SplineFontDB: 3.2
FontName: OverusedGrotesk-LightItalic
FullName: Overused Grotesk Light
FamilyName: Overused Grotesk
Weight: Light
Copyright: Copyright (c) 2023, Bao Nguyen (RandomMaerks) (rmforbusiness@gmail.com)
UComments: "2023-7-28: Created with FontForge (http://fontforge.org)"
Version: 0.4
ItalicAngle: -10
UnderlinePosition: -102
UnderlineWidth: 51
Ascent: 819
Descent: 205
InvalidEm: 0
LayerCount: 2
Layer: 0 0 "Back" 1
Layer: 1 0 "Fore" 0
XUID: [1021 36 -67577861 30019]
StyleMap: 0x0001
FSType: 0
OS2Version: 0
OS2_WeightWidthSlopeOnly: 0
OS2_UseTypoMetrics: 1
CreationTime: 1690548111
ModificationTime: 1695396709
PfmFamily: 17
TTFWeight: 300
TTFWidth: 5
LineGap: 92
VLineGap: 92
OS2TypoAscent: 819
OS2TypoAOffset: 0
OS2TypoDescent: -205
OS2TypoDOffset: 0
OS2TypoLinegap: 92
OS2WinAscent: 1024
OS2WinAOffset: 0
OS2WinDescent: 225
OS2WinDOffset: 0
HheadAscent: 1024
HheadAOffset: 0
HheadDescent: -225
HheadDOffset: 0
OS2Vendor: 'Rand'
Lookup: 1 0 0 "ss11StyleSet11inLatinlookup21" { "ss11StyleSet11inLatinlookup21 subtable"  } ['ss11' ('latn' <'dflt' > 'DFLT' <'dflt' > ) ]
Lookup: 1 0 0 "cv05CharacterVariants05inLatinlookup20" { "cv05CharacterVariants05inLatinlookup20-1" ("spur") } ['cv05' ('DFLT' <'dflt' > 'latn' <'dflt' > ) ]
Lookup: 1 0 0 "cv01CharacterVariants01inLatinlookup16" { "cv01CharacterVariants01inLatinlookup16 subtable"  } ['cv01' ('latn' <'dflt' > 'DFLT' <'dflt' > ) ]
Lookup: 1 0 0 "cv02CharacterVariants02inLatinlookup17" { "cv02CharacterVariants02inLatinlookup17 subtable"  } ['cv02' ('latn' <'dflt' > 'DFLT' <'dflt' > ) ]
Lookup: 1 0 0 "cv03CharacterVariants03inLatinlookup18" { "cv03CharacterVariants03inLatinlookup18 subtable"  } ['cv03' ('latn' <'dflt' > 'DFLT' <'dflt' > ) ]
Lookup: 1 0 0 "cv04CharacterVariants04inLatinlookup19" { "cv04CharacterVariants04inLatinlookup19 subtable"  } ['cv04' ('latn' <'dflt' > 'DFLT' <'dflt' > ) ]

StartChar: n
Encoding: 110 110 0
GlifName: n
Width: 522
GlyphClass: 2
Flags: HMW
AnchorPoint: "bottom1" 271 0 basechar 0
AnchorPoint: "top1" 370 573 basechar 0
LayerCount: 2
Fore
SplineSet
471 299 m 2
 490 403 441 470 347 470 c 0
 248 470 178 407 162 307 c 1
 130 313 l 1
 150 433 246 521 358 521 c 0
 470 521 545 423 523 304 c 2
 468 0 l 1
 417 0 l 1
 471 299 l 2
146 512 m 1
 198 512 l 1
 109 0 l 1
 57 0 l 1
 146 512 l 1
EndSplineSet
Substitution2: "supsSuperscriptinLatinlookup15 subtable" uni207F
Substitution2: "subsSubscriptinLatinlookup14 subtable" uni2099
EndChar

StartChar: h
Encoding: 104 104 1
GlifName: h
Width: 522
GlyphClass: 2
Flags: HMW
AnchorPoint: "top1" 215 773 basechar 0
LayerCount: 2
Fore
SplineSet
471 299 m 6
 490 403 441 470 347 470 c 4
 248 470 178 407 162 307 c 5
 130 313 l 5
 150 433 246 521 358 521 c 4
 470 521 545 423 523 304 c 6
 468 0 l 5
 417 0 l 5
 471 299 l 6
181 717 m 5
 233 717 l 5
 109 0 l 5
 57 0 l 5
 181 717 l 5
EndSplineSet
EndChar

StartChar: m
Encoding: 109 109 2
GlifName: m
Width: 839
GlyphClass: 2
Flags: HMW
LayerCount: 2
Fore
SplineSet
794 316 m 2
 814 426 763 468 686 468 c 0
 604 468 521 403 506 317 c 1
 475 326 l 1
 495 446 604 521 694 521 c 0
 795 521 868 446 846 323 c 2
 787 0 l 1
 736 0 l 1
 794 316 l 2
455 315 m 2
 475 423 427 472 340 472 c 0
 258 472 181 415 166 329 c 1
 137 338 l 1
 157 458 269 523 357 523 c 0
 460 523 530 446 507 322 c 2
 447 0 l 1
 396 0 l 1
 455 315 l 2
147 512 m 1
 199 512 l 1
 109 0 l 1
 57 0 l 1
 147 512 l 1
EndSplineSet
EndChar

StartChar: u
Encoding: 117 117 3
GlifName: u
Width: 514
GlyphClass: 2
Flags: HMW
AnchorPoint: "top3" 495 512 basechar 0
AnchorPoint: "bottom2" 457 0 basechar 0
AnchorPoint: "bottom1" 269 0 basechar 0
AnchorPoint: "top1" 355 573 basechar 0
LayerCount: 2
Fore
SplineSet
140 213 m 6
 122 109 165 42 259 42 c 4
 357 42 426 105 441 205 c 5
 473 199 l 5
 454 79 361 -9 248 -9 c 4
 135 -9 66 88 88 208 c 6
 143 512 l 5
 195 512 l 5
 140 213 l 6
457 0 m 5
 406 0 l 5
 495 512 l 5
 546 512 l 5
 457 0 l 5
EndSplineSet
Substitution2: "ss10StyleSet10inLatinlookup9 subtable" u.ss10
EndChar

StartChar: i
Encoding: 105 105 4
GlifName: i
Width: 163
GlyphClass: 2
Flags: HMW
AnchorPoint: "bottom1" 85 0 basechar 0
AnchorPoint: "bottom2" 110 0 basechar 0
LayerCount: 2
Fore
SplineSet
167 658 m 1
 233 658 l 1
 220 587 l 1
 154 587 l 1
 167 658 l 1
147 512 m 5
 200 512 l 5
 110 0 l 5
 57 0 l 5
 147 512 l 5
EndSplineSet
Substitution2: "ss03StyleSet3inLatinlookup2 subtable" i.ss03
EndChar

StartChar: l
Encoding: 108 108 5
GlifName: l
Width: 163
GlyphClass: 2
Flags: HMW
AnchorPoint: "top2" 254 512 basechar 0
AnchorPoint: "bottom1" 82 0 basechar 0
AnchorPoint: "top1" 217 773 basechar 0
LayerCount: 2
Fore
SplineSet
183 717 m 5
 236 717 l 5
 110 0 l 5
 57 0 l 5
 183 717 l 5
EndSplineSet
Substitution2: "ss02StyleSet2inLatinlookup1 subtable" l.ss02
EndChar

StartChar: o
Encoding: 111 111 6
GlifName: o
Width: 558
GlyphClass: 2
Flags: HMW
AnchorPoint: "top3" 417 512 basechar 0
AnchorPoint: "bottom1" 267 0 basechar 0
AnchorPoint: "top1" 367 573 basechar 0
LayerCount: 2
Fore
SplineSet
86 214 m 0
 86 389 198 522 345 522 c 0
 474 522 558 435 558 301 c 0
 558 126 445 -8 299 -8 c 0
 170 -8 86 79 86 214 c 0
505 303 m 0
 505 409 444 471 340 471 c 0
 232 471 140 365 140 212 c 0
 140 104 201 43 305 43 c 0
 411 43 505 150 505 303 c 0
EndSplineSet
EndChar

StartChar: c
Encoding: 99 99 7
GlifName: c
Width: 549
GlyphClass: 2
Flags: HMW
AnchorPoint: "bottom1" 278 1 basechar 0
AnchorPoint: "top1" 378 571 basechar 0
LayerCount: 2
Fore
SplineSet
86 214 m 4
 86 389 198 522 345 522 c 4
 467 522 547 441 547 322 c 5
 494 322 l 5
 494 414 437 471 339 471 c 4
 226 471 140 359 140 212 c 4
 140 103 200 42 307 42 c 4
 386 42 451 96 470 173 c 5
 528 173 l 5
 500 62 413 -8 302 -8 c 4
 170 -8 86 79 86 214 c 4
EndSplineSet
EndChar

StartChar: e
Encoding: 101 101 8
GlifName: e
Width: 556
GlyphClass: 2
Flags: HMW
AnchorPoint: "bottom2" 436 25 basechar 0
AnchorPoint: "bottom1" 286 0 basechar 0
AnchorPoint: "top1" 376 572 basechar 0
LayerCount: 2
Fore
SplineSet
86 212 m 4
 86 381 186 522 344 522 c 4
 495 522 576 403 553 268 c 6
 548 238 l 5
 133 238 l 5
 142 287 l 5
 502 287 l 5
 519 396 452 471 348 471 c 4
 224 471 139 366 139 209 c 4
 139 100 200 42 313 42 c 4
 393 42 450 83 479 155 c 5
 539 155 l 5
 498 48 418 -9 311 -9 c 4
 172 -9 86 75 86 212 c 4
EndSplineSet
EndChar

StartChar: a
Encoding: 97 97 9
GlifName: a
Width: 513
GlyphClass: 2
Flags: HMW
AnchorPoint: "bottom2" 482 0 basechar 0
AnchorPoint: "bottom1" 284 -1 basechar 0
AnchorPoint: "top1" 360 572 basechar 0
LayerCount: 2
Fore
SplineSet
479 125 m 6
 471 79 472 44 482 0 c 5
 430 0 l 5
 420 36 419 78 427 121 c 6
 465 336 l 6
 478 414 417 472 322 472 c 4
 241 472 191 439 169 370 c 5
 112 370 l 5
 136 464 218 522 327 522 c 4
 452 522 535 441 517 336 c 6
 479 125 l 6
479 210 m 5
 457 79 353 -9 235 -9 c 4
 138 -9 71 46 71 127 c 4
 71 215 137 280 241 284 c 6
 391 289 l 6
 443 291 459 300 465 334 c 5
 450 239 l 5
 248 233 l 6
 165 231 125 190 125 133 c 4
 125 78 172 41 243 41 c 4
 343 41 425 112 443 213 c 5
 479 210 l 5
EndSplineSet
Substitution2: "cv05CharacterVariants05inLatinlookup20-1" a.spur
Substitution2: "ss01StyleSet1inLatinlookup0 subtable" a.ss01
EndChar

StartChar: s
Encoding: 115 115 10
GlifName: s
Width: 501
GlyphClass: 2
Flags: HMW
AnchorPoint: "bottom1" 267 0 basechar 0
AnchorPoint: "top1" 342 573 basechar 0
LayerCount: 2
Fore
SplineSet
326 223 m 2
 252 241 l 2
 160 262 117 301 117 370 c 0
 117 461 190 523 310 523 c 0
 435 523 512 455 504 346 c 1
 452 346 l 1
 452 430 402 472 310 472 c 0
 221 472 168 433 168 375 c 0
 168 332 197 310 265 295 c 2
 340 279 l 2
 434 258 479 215 479 142 c 0
 479 50 409 -10 286 -10 c 0
 155 -10 69 59 76 167 c 1
 130 167 l 1
 130 84 188 40 287 40 c 0
 377 40 427 77 427 134 c 0
 427 180 396 206 326 223 c 2
EndSplineSet
EndChar

StartChar: b
Encoding: 98 98 11
GlifName: b
Width: 565
GlyphClass: 2
Flags: HMW
LayerCount: 2
Fore
SplineSet
183 717 m 5
 236 717 l 5
 110 0 l 5
 57 0 l 5
 183 717 l 5
123 204 m 4
 123 379 211 522 358 522 c 4
 487 522 571 435 571 301 c 4
 571 126 458 -8 312 -8 c 4
 183 -8 123 69 123 204 c 4
518 303 m 4
 518 409 457 471 353 471 c 4
 245 471 154 365 154 212 c 4
 154 104 214 43 318 43 c 4
 424 43 518 150 518 303 c 4
EndSplineSet
EndChar

StartChar: d
Encoding: 100 100 12
GlifName: d
Width: 565
GlyphClass: 2
Flags: HMW
AnchorPoint: "top2" 655 512 basechar 0
LayerCount: 2
Fore
SplineSet
636 717 m 5
 584 717 l 5
 458 0 l 5
 510 0 l 5
 636 717 l 5
538 311 m 4
 538 435 474 522 345 522 c 4
 198 522 86 389 86 214 c 4
 86 79 170 -8 299 -8 c 4
 445 -8 538 136 538 311 c 4
140 212 m 4
 140 365 232 471 340 471 c 4
 444 471 505 409 505 303 c 4
 505 150 411 43 305 43 c 4
 201 43 140 104 140 212 c 4
EndSplineSet
EndChar

StartChar: p
Encoding: 112 112 13
GlifName: p
Width: 565
GlyphClass: 2
Flags: HMW
LayerCount: 2
Fore
SplineSet
147 512 m 5
 200 512 l 5
 80 -167 l 5
 28 -167 l 5
 147 512 l 5
123 204 m 0
 123 379 211 522 358 522 c 0
 487 522 571 435 571 301 c 0
 571 126 458 -8 312 -8 c 0
 183 -8 123 69 123 204 c 0
518 303 m 0
 518 409 457 471 353 471 c 0
 245 471 154 365 154 212 c 0
 154 104 214 43 318 43 c 0
 424 43 518 150 518 303 c 0
EndSplineSet
EndChar

StartChar: q
Encoding: 113 113 14
GlifName: q
Width: 565
GlyphClass: 2
Flags: HMW
LayerCount: 2
Fore
SplineSet
599 512 m 1
 547 512 l 1
 427 -167 l 1
 479 -167 l 1
 599 512 l 1
538 311 m 0
 538 435 474 522 345 522 c 0
 198 522 86 389 86 214 c 0
 86 79 170 -8 299 -8 c 0
 445 -8 538 136 538 311 c 0
140 212 m 0
 140 365 232 471 340 471 c 0
 444 471 505 409 505 303 c 0
 505 150 411 43 305 43 c 0
 201 43 140 104 140 212 c 0
EndSplineSet
EndChar

StartChar: g
Encoding: 103 103 15
GlifName: g
Width: 565
GlyphClass: 2
Flags: HMW
AnchorPoint: "top1" 375 572 basechar 0
LayerCount: 2
Fore
SplineSet
143 223 m 4
 143 369 223 471 340 471 c 4
 446 471 508 409 508 305 c 4
 508 159 427 57 310 57 c 4
 205 57 143 118 143 223 c 4
542 310 m 4
 542 440 466 522 344 522 c 4
 201 522 90 392 90 224 c 4
 90 94 173 7 298 7 c 4
 436 7 542 138 542 310 c 4
600 512 m 5
 548 512 l 5
 455 -22 l 6
 441 -103 382 -154 291 -154 c 4
 179 -154 106 -99 106 -22 c 5
 53 -22 l 5
 53 -130 145 -205 285 -205 c 4
 402 -205 487 -134 505 -31 c 6
 600 512 l 5
EndSplineSet
EndChar

StartChar: t
Encoding: 116 116 16
GlifName: t
Width: 319
GlyphClass: 2
Flags: HMW
AnchorPoint: "top2" 337 562 basechar 0
AnchorPoint: "bottom1" 239 0 basechar 0
LayerCount: 2
Fore
SplineSet
127 512 m 5
 374 512 l 5
 366 463 l 5
 118 463 l 5
 127 512 l 5
293 49 m 5
 284 0 l 5
 241 0 l 6
 190 0 140 29 156 121 c 6
 248 645 l 5
 301 645 l 5
 209 127 l 6
 198 64 219 49 251 49 c 6
 293 49 l 5
EndSplineSet
Substitution2: "ss08StyleSet8inLatinlookup7 subtable" t.ss08
EndChar

StartChar: r
Encoding: 114 114 17
GlifName: r
Width: 311
GlyphClass: 2
Flags: HMW
AnchorPoint: "bottom1" 85 0 basechar 0
AnchorPoint: "top1" 267 572 basechar 0
LayerCount: 2
Fore
SplineSet
359 461 m 1
 340 461 l 2
 262 461 182 413 168 329 c 1
 140 337 l 1
 160 457 262 515 348 515 c 2
 369 515 l 1
 359 461 l 1
148 512 m 1
 201 512 l 1
 111 0 l 1
 59 0 l 1
 148 512 l 1
EndSplineSet
EndChar

StartChar: v
Encoding: 118 118 19
GlifName: v
Width: 543
GlyphClass: 2
Flags: HMW
LayerCount: 2
Fore
SplineSet
127 512 m 5
 180 512 l 5
 281 68 l 5
 535 512 l 5
 599 512 l 5
 302 0 l 5
 244 0 l 5
 127 512 l 5
EndSplineSet
EndChar

StartChar: f
Encoding: 102 102 20
GlifName: f
Width: 319
GlyphClass: 2
Flags: HMW
LayerCount: 2
Fore
SplineSet
118 463 m 1
 126 512 l 1
 374 512 l 1
 366 463 l 1
 118 463 l 1
402 668 m 1
 360 668 l 2
 319 668 285 647 275 590 c 2
 171 0 l 1
 119 0 l 1
 224 596 l 2
 240 688 309 717 367 717 c 2
 410 717 l 1
 402 668 l 1
EndSplineSet
EndChar

StartChar: k
Encoding: 107 107 21
GlifName: k
Width: 478
GlyphClass: 2
Flags: HMW
AnchorPoint: "bottom1" 248 0 basechar 0
LayerCount: 2
Fore
SplineSet
182 717 m 5
 233 717 l 5
 107 0 l 5
 56 0 l 5
 182 717 l 5
447 512 m 5
 524 512 l 5
 250 257 l 5
 447 0 l 5
 385 0 l 5
 213 220 l 5
 132 148 l 5
 100 184 l 5
 447 512 l 5
EndSplineSet
EndChar

StartChar: j
Encoding: 106 106 22
GlifName: j
Width: 163
GlyphClass: 2
Flags: HMW
LayerCount: 2
Fore
SplineSet
-55 -109 m 5
 -23 -109 l 6
 12 -109 41 -94 52 -31 c 6
 148 512 l 5
 200 512 l 5
 103 -37 l 6
 87 -129 22 -158 -31 -158 c 6
 -64 -158 l 5
 -55 -109 l 5
166 658 m 1
 233 658 l 1
 220 587 l 1
 154 587 l 1
 166 658 l 1
EndSplineSet
Substitution2: "ss03StyleSet3inLatinlookup2 subtable" j.ss03
EndChar

StartChar: w
Encoding: 119 119 23
GlifName: w
Width: 766
GlyphClass: 2
Flags: HMW
AnchorPoint: "top1" 479 573 basechar 0
LayerCount: 2
Fore
SplineSet
125 512 m 1
 178 512 l 1
 224 78 l 1
 437 512 l 1
 496 512 l 1
 556 78 l 1
 757 512 l 1
 820 512 l 1
 572 0 l 1
 518 0 l 1
 455 434 l 5
 240 0 l 1
 185 0 l 1
 125 512 l 1
EndSplineSet
EndChar

StartChar: x
Encoding: 120 120 24
GlifName: x
Width: 508
GlyphClass: 2
Flags: HMW
LayerCount: 2
Fore
SplineSet
126 512 m 1
 184 512 l 1
 301 287 l 1
 495 512 l 1
 563 512 l 1
 344 259 l 1
 473 0 l 1
 416 0 l 1
 303 231 l 5
 105 0 l 1
 36 0 l 1
 257 261 l 1
 126 512 l 1
EndSplineSet
EndChar

StartChar: y
Encoding: 121 121 25
GlifName: y
Width: 543
GlyphClass: 2
Flags: HMW
AnchorPoint: "bottom1" 370 0 basechar 0
AnchorPoint: "top1" 382 573 basechar 0
LayerCount: 2
Fore
SplineSet
39 -104 m 1
 115 -104 l 2
 166 -104 190 -85 219 -31 c 2
 240 10 l 1
 125 512 l 1
 179 512 l 5
 280 68 l 5
 533 512 l 5
 597 512 l 1
 281 -37 l 2
 231 -123 187 -158 130 -158 c 2
 33 -158 l 1
 39 -104 l 1
EndSplineSet
Substitution2: "ss07StyleSet7inLatinlookup6 subtable" y.ss07
EndChar

StartChar: z
Encoding: 122 122 26
GlifName: z
Width: 473
GlyphClass: 2
Flags: HMW
AnchorPoint: "top1" 333 573 basechar 0
LayerCount: 2
Fore
SplineSet
134 512 m 1
 513 512 l 1
 505 453 l 1
 111 49 l 1
 434 49 l 1
 425 0 l 1
 46 0 l 5
 54 59 l 1
 447 463 l 1
 126 463 l 1
 134 512 l 1
EndSplineSet
EndChar

StartChar: H
Encoding: 72 72 27
GlifName: H_
Width: 624
GlyphClass: 2
Flags: HMW
AnchorPoint: "top1" 445 717 basechar 0
LayerCount: 2
Fore
SplineSet
174 666 m 1
 225 666 l 1
 172 369 l 1
 582 369 l 1
 635 666 l 1
 686 666 l 1
 568 0 l 1
 517 0 l 1
 573 319 l 1
 164 319 l 1
 108 0 l 1
 56 0 l 1
 174 666 l 1
EndSplineSet
EndChar

StartChar: I
Encoding: 73 73 28
GlifName: I_
Width: 163
GlyphClass: 2
Flags: HMW
AnchorPoint: "bottom2" 108 0 basechar 0
AnchorPoint: "bottom1" 82 0 basechar 0
AnchorPoint: "top1" 209 717 basechar 0
LayerCount: 2
Fore
SplineSet
174 666 m 5
 225 666 l 5
 108 0 l 5
 56 0 l 5
 174 666 l 5
EndSplineSet
Substitution2: "ss11StyleSet11inLatinlookup21 subtable" I.ss11
EndChar

StartChar: N
Encoding: 78 78 29
GlifName: N_
Width: 624
GlyphClass: 2
Flags: HMW
AnchorPoint: "bottom1" 327 0 basechar 0
AnchorPoint: "top1" 450 717 basechar 0
LayerCount: 2
Fore
SplineSet
635 666 m 1
 686 666 l 1
 568 0 l 1
 513 0 l 5
 214 605 l 1
 108 0 l 1
 56 0 l 1
 174 666 l 1
 242 666 l 1
 531 80 l 1
 635 666 l 1
EndSplineSet
EndChar

StartChar: M
Encoding: 77 77 30
GlifName: M_
Width: 743
GlyphClass: 2
Flags: HMW
LayerCount: 2
Fore
SplineSet
397 0 m 1
 346 0 l 1
 212 595 l 1
 108 0 l 1
 56 0 l 1
 174 666 l 1
 242 666 l 5
 380 74 l 5
 723 666 l 5
 805 666 l 1
 687 0 l 1
 636 0 l 1
 740 595 l 1
 397 0 l 1
EndSplineSet
EndChar

StartChar: L
Encoding: 76 76 31
GlifName: L_
Width: 481
GlyphClass: 2
Flags: HMW
AnchorPoint: "top2" 291 478 basechar 0
AnchorPoint: "bottom1" 253 0 basechar 0
AnchorPoint: "top1" 210 717 basechar 0
LayerCount: 2
Fore
SplineSet
445 0 m 5
 56 0 l 5
 174 666 l 5
 225 666 l 5
 116 49 l 5
 454 49 l 5
 445 0 l 5
EndSplineSet
EndChar

StartChar: E
Encoding: 69 69 32
GlifName: E_
Width: 542
GlyphClass: 2
Flags: HMW
AnchorPoint: "bottom2" 476 0 basechar 0
AnchorPoint: "bottom1" 286 0 basechar 0
AnchorPoint: "top1" 412 717 basechar 0
LayerCount: 2
Fore
SplineSet
614 666 m 1
 605 616 l 1
 216 616 l 1
 172 366 l 1
 532 366 l 1
 523 316 l 1
 163 316 l 1
 116 49 l 1
 505 49 l 1
 497 0 l 1
 56 0 l 1
 174 666 l 1
 614 666 l 1
EndSplineSet
EndChar

StartChar: F
Encoding: 70 70 33
GlifName: F_
Width: 542
GlyphClass: 2
Flags: HMW
LayerCount: 2
Fore
SplineSet
614 666 m 5
 605 616 l 5
 216 616 l 5
 168 345 l 5
 528 345 l 5
 520 296 l 5
 160 296 l 5
 108 0 l 5
 56 0 l 5
 174 666 l 5
 614 666 l 5
EndSplineSet
EndChar

StartChar: T
Encoding: 84 84 34
GlifName: T_
Width: 532
GlyphClass: 2
Flags: HMW
AnchorPoint: "bottom1" 266 0 basechar 0
AnchorPoint: "top1" 390 717 basechar 0
LayerCount: 2
Fore
SplineSet
614 666 m 5
 605 616 l 5
 400 616 l 5
 292 0 l 5
 241 0 l 5
 349 616 l 5
 144 616 l 5
 154 666 l 5
 614 666 l 5
EndSplineSet
EndChar

StartChar: O
Encoding: 79 79 35
GlifName: O_
Width: 680
GlyphClass: 2
Flags: HMW
AnchorPoint: "top3" 507 666 basechar 0
AnchorPoint: "bottom1" 340 0 basechar 0
AnchorPoint: "top1" 468 717 basechar 0
LayerCount: 2
Fore
SplineSet
99 270 m 0
 99 503 241 676 431 676 c 0
 587 676 696 557 696 387 c 0
 696 153 563 -8 369 -8 c 0
 210 -8 99 106 99 270 c 0
643 392 m 0
 643 539 563 625 424 625 c 0
 267 625 153 474 153 267 c 0
 153 125 235 43 376 43 c 0
 535 43 643 184 643 392 c 0
EndSplineSet
EndChar

StartChar: C
Encoding: 67 67 36
GlifName: C_
Width: 652
GlyphClass: 2
Flags: HMW
AnchorPoint: "bottom1" 329 0 basechar 0
AnchorPoint: "top1" 456 717 basechar 0
LayerCount: 2
Fore
SplineSet
99 272 m 0
 99 499 239 675 420 675 c 0
 577 675 682 576 682 429 c 1
 629 429 l 1
 629 551 548 625 415 625 c 0
 268 625 154 468 154 266 c 0
 154 123 230 43 368 43 c 0
 474 43 569 114 593 210 c 1
 649 210 l 1
 612 77 499 -8 360 -8 c 0
 198 -8 99 98 99 272 c 0
EndSplineSet
EndChar

StartChar: G
Encoding: 71 71 37
GlifName: G_
Width: 662
GlyphClass: 2
Flags: HMW
AnchorPoint: "bottom1" 330 0 basechar 0
AnchorPoint: "top1" 457 717 basechar 0
LayerCount: 2
Fore
SplineSet
614 335 m 1
 667 340 l 1
 607 0 l 1
 567 0 l 1
 614 335 l 1
387 340 m 5
 667 340 l 5
 648 291 l 5
 379 291 l 5
 387 340 l 5
99 272 m 4
 99 505 234 675 420 675 c 4
 578 675 682 577 682 429 c 5
 628 429 l 5
 628 552 549 625 415 625 c 4
 262 625 154 476 154 266 c 4
 154 129 229 43 352 43 c 4
 477 43 572 152 600 328 c 5
 640 324 l 5
 608 120 494 -8 346 -8 c 4
 200 -8 99 105 99 272 c 4
EndSplineSet
Substitution2: "ss04StyleSet4inLatinlookup3 subtable" G.ss04
EndChar

StartChar: Q
Encoding: 81 81 38
GlifName: Q_
Width: 680
GlyphClass: 2
Flags: HMW
LayerCount: 2
Fore
SplineSet
665 24 m 1
 632 -17 l 1
 366 191 l 5
 398 232 l 5
 665 24 l 1
99 270 m 0
 99 496 246 676 431 676 c 0
 592 676 696 562 696 387 c 0
 696 160 557 -8 369 -8 c 0
 205 -8 99 101 99 270 c 0
643 392 m 0
 643 539 562 625 424 625 c 0
 267 625 153 474 153 267 c 0
 153 126 235 43 376 43 c 0
 535 43 643 184 643 392 c 0
EndSplineSet
EndChar

StartChar: S
Encoding: 83 83 39
GlifName: S_
Width: 583
GlyphClass: 2
Flags: HMW
AnchorPoint: "bottom1" 307 0 basechar 0
AnchorPoint: "top1" 409 717 basechar 0
LayerCount: 2
Fore
SplineSet
381 300 m 2
 307 317 l 2
 192 344 136 395 136 473 c 0
 136 596 228 675 369 675 c 0
 521 675 606 596 606 455 c 1
 553 455 l 1
 553 568 492 623 366 623 c 0
 263 623 190 564 190 481 c 0
 190 427 232 391 321 372 c 2
 395 355 l 2
 513 329 570 276 570 193 c 0
 570 69 481 -9 340 -9 c 0
 181 -9 84 75 84 211 c 1
 139 211 l 1
 139 102 211 43 344 43 c 0
 445 43 516 99 516 181 c 0
 516 239 472 278 381 300 c 2
EndSplineSet
EndChar

StartChar: J
Encoding: 74 74 40
GlifName: J_
Width: 319
GlyphClass: 2
Flags: HMW
AnchorPoint: "top1" 365 717 basechar 0
LayerCount: 2
Fore
SplineSet
35 49 m 1
 97 49 l 2
 167 49 226 80 249 209 c 2
 330 666 l 1
 381 666 l 1
 299 203 l 2
 271 45 186 0 111 0 c 2
 27 0 l 1
 35 49 l 1
EndSplineSet
Substitution2: "ss06StyleSet6inLatinlookup5 subtable" J.ss06
EndChar

StartChar: V
Encoding: 86 86 41
GlifName: V_
Width: 630
GlyphClass: 2
Flags: HMW
LayerCount: 2
Fore
SplineSet
154 666 m 1
 207 666 l 5
 324 68 l 5
 648 666 l 5
 713 666 l 1
 344 0 l 1
 286 0 l 1
 154 666 l 1
EndSplineSet
EndChar

StartChar: W
Encoding: 87 87 42
GlifName: W_
Width: 977
GlyphClass: 2
Flags: HMW
AnchorPoint: "top1" 614 717 basechar 0
LayerCount: 2
Fore
SplineSet
154 666 m 1
 209 666 l 1
 266 73 l 1
 573 666 l 1
 632 666 l 1
 724 73 l 1
 998 666 l 1
 1060 666 l 1
 741 0 l 1
 687 0 l 1
 594 597 l 1
 284 0 l 1
 229 0 l 1
 154 666 l 1
EndSplineSet
EndChar

StartChar: X
Encoding: 88 88 43
GlifName: X_
Width: 580
GlyphClass: 2
Flags: HMW
LayerCount: 2
Fore
SplineSet
154 666 m 1
 211 666 l 5
 349 358 l 5
 591 666 l 5
 663 666 l 1
 392 331 l 1
 545 0 l 1
 488 0 l 1
 350 306 l 1
 106 0 l 1
 36 0 l 1
 305 333 l 1
 154 666 l 1
EndSplineSet
EndChar

StartChar: Y
Encoding: 89 89 44
GlifName: Y_
Width: 580
GlyphClass: 2
Flags: HMW
AnchorPoint: "bottom1" 290 0 basechar 0
AnchorPoint: "top1" 427 717 basechar 0
LayerCount: 2
Fore
SplineSet
304 230 m 1
 154 666 l 1
 212 666 l 5
 336 295 l 5
 596 666 l 5
 663 666 l 1
 355 230 l 1
 314 0 l 1
 263 0 l 1
 304 230 l 1
EndSplineSet
EndChar

StartChar: A
Encoding: 65 65 45
GlifName: A_
Width: 630
GlyphClass: 2
Flags: HMW
AnchorPoint: "bottom2" 595 0 basechar 0
AnchorPoint: "bottom1" 313 0 basechar 0
AnchorPoint: "top1" 441 717 basechar 0
LayerCount: 2
Fore
SplineSet
190 242 m 1
 520 242 l 1
 511 193 l 1
 181 193 l 1
 190 242 l 1
595 0 m 1
 541 0 l 1
 424 598 l 1
 99 0 l 1
 36 0 l 1
 404 666 l 1
 463 666 l 1
 595 0 l 1
EndSplineSet
EndChar

StartChar: Z
Encoding: 90 90 46
GlifName: Z_
Width: 565
GlyphClass: 2
Flags: HMW
AnchorPoint: "top1" 414 717 basechar 0
LayerCount: 2
Fore
SplineSet
164 666 m 1
 635 666 l 1
 626 606 l 1
 113 49 l 1
 527 49 l 1
 519 0 l 1
 48 0 l 5
 56 59 l 1
 568 616 l 1
 155 616 l 1
 164 666 l 1
EndSplineSet
EndChar

StartChar: U
Encoding: 85 85 47
GlifName: U_
Width: 592
GlyphClass: 2
Flags: HMW
AnchorPoint: "top3" 608 666 basechar 0
AnchorPoint: "bottom2" 333 0 basechar 0
AnchorPoint: "bottom1" 298 0 basechar 0
AnchorPoint: "top1" 430 717 basechar 0
LayerCount: 2
Fore
SplineSet
167 666 m 1
 220 666 l 1
 150 270 l 2
 124 129 192 43 328 43 c 0
 438 43 512 114 534 237 c 2
 608 666 l 1
 660 666 l 1
 584 231 l 2
 558 87 456 -8 325 -8 c 0
 165 -8 69 105 99 274 c 2
 167 666 l 1
EndSplineSet
EndChar

StartChar: R
Encoding: 82 82 48
GlifName: R_
Width: 572
GlyphClass: 2
Flags: HMW
AnchorPoint: "bottom1" 301 0 basechar 0
AnchorPoint: "top1" 415 717 basechar 0
LayerCount: 2
Fore
SplineSet
329 286 m 1
 364 306 l 1
 491 306 536 267 536 157 c 2
 536 0 l 1
 484 0 l 1
 484 150 l 2
 484 250 443 286 329 286 c 1
428 616 m 6
 216 616 l 5
 167 335 l 5
 379 335 l 6
 487 335 558 403 558 506 c 4
 558 577 511 616 428 616 c 6
392 296 m 5
 372 286 l 5
 158 286 l 5
 108 0 l 5
 56 0 l 5
 174 666 l 5
 437 666 l 6
 546 666 613 603 613 501 c 4
 613 382 520 296 392 296 c 5
EndSplineSet
Substitution2: "ss05StyleSet5inLatinlookup4 subtable" R.ss05
EndChar

StartChar: B
Encoding: 66 66 49
GlifName: B_
Width: 603
GlyphClass: 2
Flags: HMW
LayerCount: 2
Fore
SplineSet
463 666 m 2
 559 666 617 610 617 521 c 0
 617 455 580 377 496 343 c 1
 556 320 591 269 591 198 c 0
 591 103 517 0 385 0 c 2
 56 0 l 1
 174 666 l 1
 463 666 l 2
459 616 m 2
 216 616 l 1
 172 366 l 1
 415 366 l 2
 529 366 562 468 562 525 c 0
 562 583 526 616 459 616 c 2
406 316 m 2
 163 316 l 1
 116 49 l 1
 379 49 l 2
 496 49 537 136 537 207 c 0
 537 277 490 316 406 316 c 2
EndSplineSet
EndChar

StartChar: D
Encoding: 68 68 50
GlifName: D_
Width: 623
GlyphClass: 2
Flags: HMW
AnchorPoint: "top1" 415 717 basechar 0
LayerCount: 2
Fore
SplineSet
216 616 m 5
 116 49 l 5
 312 49 l 6
 513 49 588 272 588 407 c 4
 588 541 519 616 392 616 c 6
 216 616 l 5
401 666 m 6
 553 666 642 562 642 398 c 4
 642 202 524 0 325 0 c 6
 56 0 l 5
 174 666 l 5
 401 666 l 6
EndSplineSet
EndChar

StartChar: P
Encoding: 80 80 51
GlifName: P_
Width: 567
GlyphClass: 2
Flags: HMW
LayerCount: 2
Fore
SplineSet
418 616 m 6
 216 616 l 5
 161 304 l 5
 362 304 l 6
 505 304 558 409 558 496 c 4
 558 574 509 616 418 616 c 6
374 255 m 6
 153 255 l 5
 108 0 l 5
 56 0 l 5
 174 666 l 5
 428 666 l 6
 542 666 611 596 611 490 c 4
 611 369 526 255 374 255 c 6
EndSplineSet
EndChar

StartChar: K
Encoding: 75 75 52
GlifName: K_
Width: 531
GlyphClass: 2
Flags: HMW
AnchorPoint: "bottom1" 272 0 basechar 0
AnchorPoint: "top1" 395 717 basechar 0
LayerCount: 2
Fore
SplineSet
174 666 m 1
 225 666 l 1
 108 0 l 1
 56 0 l 1
 174 666 l 1
549 666 m 1
 626 666 l 1
 266 345 l 1
 516 0 l 1
 457 0 l 1
 231 308 l 1
 148 237 l 1
 117 272 l 1
 549 666 l 1
EndSplineSet
EndChar

StartChar: four
Encoding: 52 52 53
GlifName: four
Width: 544
GlyphClass: 2
Flags: HMW
LayerCount: 2
Fore
SplineSet
445 176 m 1
 414 0 l 1
 362 0 l 1
 394 176 l 1
 67 176 l 1
 77 234 l 1
 468 666 l 1
 531 666 l 1
 453 224 l 1
 559 224 l 1
 550 176 l 1
 445 176 l 1
402 224 m 1
 469 602 l 1
 132 224 l 5
 402 224 l 1
EndSplineSet
Substitution2: "tnumTabularNumbersinLatinlookup11 subtable" four.tabl
Substitution2: "supsSuperscriptinLatinlookup15 subtable" uni2074
Substitution2: "subsSubscriptinLatinlookup14 subtable" uni2084
Substitution2: "numrNumeratorsinLatinlookup13 subtable" four.numr
Substitution2: "dnomDenominatorsinLatinlookup12 subtable" four.dnom
Substitution2: "cv04CharacterVariants04inLatinlookup19 subtable" uni2463
Substitution2: "cv03CharacterVariants03inLatinlookup18 subtable" uni2779
Substitution2: "cv02CharacterVariants02inLatinlookup17 subtable" four.cv02
Substitution2: "cv01CharacterVariants01inLatinlookup16 subtable" four.cv01
EndChar

StartChar: three
Encoding: 51 51 54
GlifName: three
Width: 529
GlyphClass: 2
Flags: HMW
LayerCount: 2
Fore
SplineSet
407 360 m 1
 398 309 l 1
 276 309 l 1
 285 360 l 1
 407 360 l 1
348 319 m 1
 355 360 l 1
 445 360 507 423 507 515 c 0
 507 584 459 623 373 623 c 0
 283 623 215 570 197 487 c 1
 142 487 l 1
 169 598 258 674 377 674 c 0
 490 674 561 614 561 517 c 0
 561 404 470 319 348 319 c 1
354 350 m 1
 455 350 518 293 518 201 c 0
 518 82 413 -8 274 -8 c 0
 149 -8 75 59 75 174 c 1
 129 174 l 1
 129 89 181 43 277 43 c 0
 391 43 464 108 464 210 c 0
 464 274 421 309 346 309 c 1
 354 350 l 1
EndSplineSet
Substitution2: "tnumTabularNumbersinLatinlookup11 subtable" three.tabl
Substitution2: "supsSuperscriptinLatinlookup15 subtable" uni00B3
Substitution2: "subsSubscriptinLatinlookup14 subtable" uni2083
Substitution2: "numrNumeratorsinLatinlookup13 subtable" three.numr
Substitution2: "dnomDenominatorsinLatinlookup12 subtable" three.dnom
Substitution2: "cv04CharacterVariants04inLatinlookup19 subtable" uni2462
Substitution2: "cv03CharacterVariants03inLatinlookup18 subtable" uni2778
Substitution2: "cv02CharacterVariants02inLatinlookup17 subtable" three.cv02
Substitution2: "cv01CharacterVariants01inLatinlookup16 subtable" three.cv01
EndChar

StartChar: period
Encoding: 46 46 55
GlifName: period
Width: 163
GlyphClass: 2
Flags: HMW
LayerCount: 2
Fore
SplineSet
62 72 m 5
 127 72 l 5
 115 0 l 5
 49 0 l 5
 62 72 l 5
EndSplineSet
Substitution2: "ss03StyleSet3inLatinlookup2 subtable" period.ss03
Substitution2: "tnumTabularNumbersinLatinlookup11 subtable" period.tabl
EndChar

StartChar: comma
Encoding: 44 44 56
GlifName: comma
Width: 163
GlyphClass: 2
Flags: HMW
LayerCount: 2
Fore
SplineSet
62 72 m 5
 127 72 l 5
 115 0 l 5
 61 -128 l 5
 19 -128 l 5
 89 0 l 5
 49 0 l 5
 62 72 l 5
EndSplineSet
Substitution2: "ss03StyleSet3inLatinlookup2 subtable" comma.ss03
EndChar

StartChar: colon
Encoding: 58 58 57
GlifName: colon
Width: 163
GlyphClass: 2
Flags: HMW
LayerCount: 2
Fore
SplineSet
136 492 m 5
 201 492 l 5
 189 420 l 5
 123 420 l 5
 136 492 l 5
62 72 m 5
 127 72 l 5
 115 0 l 5
 49 0 l 5
 62 72 l 5
EndSplineSet
Substitution2: "ss03StyleSet3inLatinlookup2 subtable" colon.ss03
Substitution2: "tnumTabularNumbersinLatinlookup11 subtable" colon.tabl
EndChar

StartChar: semicolon
Encoding: 59 59 58
GlifName: semicolon
Width: 163
GlyphClass: 2
Flags: HMW
LayerCount: 2
Fore
SplineSet
136 492 m 1
 201 492 l 1
 189 420 l 1
 123 420 l 1
 136 492 l 1
62 72 m 1
 127 72 l 5
 115 0 l 5
 61 -128 l 1
 19 -128 l 1
 89 0 l 5
 49 0 l 1
 62 72 l 1
EndSplineSet
Substitution2: "ss03StyleSet3inLatinlookup2 subtable" semicolon.ss03
EndChar

StartChar: hyphen
Encoding: 45 45 59
GlifName: hyphen
Width: 473
GlyphClass: 2
Flags: HMW
LayerCount: 2
Fore
SplineSet
90 307 m 5
 491 307 l 5
 483 258 l 5
 81 258 l 5
 90 307 l 5
EndSplineSet
Substitution2: "tnumTabularNumbersinLatinlookup11 subtable" hyphen.tabl
Substitution2: "supsSuperscriptinLatinlookup15 subtable" uni207B
Substitution2: "subsSubscriptinLatinlookup14 subtable" uni208B
EndChar

StartChar: plus
Encoding: 43 43 60
GlifName: plus
Width: 559
GlyphClass: 2
Flags: HMW
LayerCount: 2
Fore
SplineSet
358 307 m 5
 577 307 l 5
 569 258 l 5
 350 258 l 5
 311 39 l 5
 262 39 l 5
 300 258 l 5
 81 258 l 5
 90 307 l 5
 309 307 l 5
 348 526 l 5
 397 526 l 5
 358 307 l 5
EndSplineSet
Substitution2: "tnumTabularNumbersinLatinlookup11 subtable" plus.tabl
Substitution2: "supsSuperscriptinLatinlookup15 subtable" uni207A
Substitution2: "subsSubscriptinLatinlookup14 subtable" uni208A
EndChar

StartChar: equal
Encoding: 61 61 61
GlifName: equal
Width: 559
GlyphClass: 2
Flags: HMW
LayerCount: 2
Fore
SplineSet
553 169 m 5
 544 120 l 5
 57 120 l 5
 66 169 l 5
 553 169 l 5
600 435 m 5
 591 386 l 5
 104 386 l 5
 113 435 l 5
 600 435 l 5
EndSplineSet
Substitution2: "supsSuperscriptinLatinlookup15 subtable" uni207C
Substitution2: "subsSubscriptinLatinlookup14 subtable" uni208C
EndChar

StartChar: quotesingle
Encoding: 39 39 62
GlifName: quotesingle
Width: 163
GlyphClass: 2
Flags: HMW
LayerCount: 2
Fore
SplineSet
183 717 m 1
 234 717 l 1
 188 512 l 1
 147 512 l 1
 183 717 l 1
EndSplineSet
EndChar

StartChar: quotedbl
Encoding: 34 34 63
GlifName: quotedbl
Width: 276
GlyphClass: 2
Flags: HMW
LayerCount: 2
Fore
SplineSet
295 717 m 5
 347 717 l 5
 300 512 l 5
 259 512 l 5
 295 717 l 5
183 717 m 5
 234 717 l 5
 188 512 l 5
 147 512 l 5
 183 717 l 5
EndSplineSet
EndChar

StartChar: one
Encoding: 49 49 64
GlifName: one
Width: 303
GlyphClass: 2
Flags: HMW
LayerCount: 2
Fore
SplineSet
313 666 m 1
 364 666 l 1
 247 0 l 1
 196 0 l 1
 286 512 l 1
 126 512 l 1
 134 556 l 1
 213 556 l 2
 266 556 297 572 306 625 c 2
 313 666 l 1
EndSplineSet
Substitution2: "tnumTabularNumbersinLatinlookup11 subtable" one.tabl
Substitution2: "supsSuperscriptinLatinlookup15 subtable" uni00B9
Substitution2: "subsSubscriptinLatinlookup14 subtable" uni2081
Substitution2: "numrNumeratorsinLatinlookup13 subtable" one.numr
Substitution2: "dnomDenominatorsinLatinlookup12 subtable" one.dnom
Substitution2: "cv04CharacterVariants04inLatinlookup19 subtable" uni2460
Substitution2: "cv03CharacterVariants03inLatinlookup18 subtable" uni2776
Substitution2: "cv02CharacterVariants02inLatinlookup17 subtable" one.cv02
Substitution2: "cv01CharacterVariants01inLatinlookup16 subtable" one.cv01
EndChar

StartChar: exclam
Encoding: 33 33 65
GlifName: exclam
Width: 163
GlyphClass: 2
Flags: HMW
LayerCount: 2
Fore
SplineSet
115 0 m 1
 49 0 l 1
 62 72 l 1
 127 72 l 1
 115 0 l 1
129 146 m 5
 86 146 l 5
 174 666 l 5
 225 666 l 5
 129 146 l 5
EndSplineSet
Substitution2: "ss03StyleSet3inLatinlookup2 subtable" exclam.ss03
EndChar

StartChar: zero
Encoding: 48 48 66
GlifName: zero
Width: 558
GlyphClass: 2
Flags: HMW
LayerCount: 2
Fore
SplineSet
94 237 m 4
 94 483 218 676 376 676 c 4
 503 676 577 584 577 423 c 4
 577 174 459 -8 299 -8 c 4
 169 -8 94 81 94 237 c 4
523 431 m 4
 523 559 472 625 371 625 c 4
 244 625 147 454 147 230 c 4
 147 107 201 43 304 43 c 4
 432 43 523 204 523 431 c 4
EndSplineSet
Substitution2: "zeroSlashedZeroinLatinlookup10 subtable" zero.slsh
Substitution2: "tnumTabularNumbersinLatinlookup11 subtable" zero.tabl
Substitution2: "supsSuperscriptinLatinlookup15 subtable" uni2070
Substitution2: "subsSubscriptinLatinlookup14 subtable" uni2080
Substitution2: "numrNumeratorsinLatinlookup13 subtable" zero.numr
Substitution2: "dnomDenominatorsinLatinlookup12 subtable" zero.dnom
Substitution2: "cv04CharacterVariants04inLatinlookup19 subtable" uni24EA
Substitution2: "cv03CharacterVariants03inLatinlookup18 subtable" uni24FF
Substitution2: "cv02CharacterVariants02inLatinlookup17 subtable" zero.cv02
Substitution2: "cv01CharacterVariants01inLatinlookup16 subtable" zero.cv01
EndChar

StartChar: nine
Encoding: 57 57 67
GlifName: nine
Width: 549
GlyphClass: 2
Flags: HMW
LayerCount: 2
Fore
SplineSet
571 437 m 4
 571 171 446 -8 259 -8 c 4
 149 -8 81 58 81 167 c 5
 135 167 l 5
 135 88 181 43 263 43 c 4
 393 43 473 138 507 333 c 4
 509 343 511 351 512 368 c 5
 468 284 386 231 302 231 c 4
 193 231 121 306 121 419 c 4
 121 559 231 676 363 676 c 4
 490 676 571 582 571 437 c 4
509 486 m 4
 509 568 450 624 365 624 c 4
 258 624 176 532 176 414 c 4
 176 333 225 284 305 284 c 4
 419 284 509 373 509 486 c 4
EndSplineSet
Substitution2: "tnumTabularNumbersinLatinlookup11 subtable" nine.tabl
Substitution2: "supsSuperscriptinLatinlookup15 subtable" uni2079
Substitution2: "subsSubscriptinLatinlookup14 subtable" uni2089
Substitution2: "numrNumeratorsinLatinlookup13 subtable" nine.numr
Substitution2: "dnomDenominatorsinLatinlookup12 subtable" nine.dnom
Substitution2: "cv04CharacterVariants04inLatinlookup19 subtable" uni2468
Substitution2: "cv03CharacterVariants03inLatinlookup18 subtable" uni277E
Substitution2: "cv02CharacterVariants02inLatinlookup17 subtable" nine.cv02
Substitution2: "cv01CharacterVariants01inLatinlookup16 subtable" nine.cv01
EndChar

StartChar: seven
Encoding: 55 55 68
GlifName: seven
Width: 555
GlyphClass: 2
Flags: HMW
LayerCount: 2
Fore
SplineSet
256 0 m 5
 316 302 447 442 616 606 c 1
 626 666 l 1
 163 666 l 1
 155 616 l 1
 565 616 l 1
 417 469 277 351 199 0 c 5
 256 0 l 5
EndSplineSet
Substitution2: "tnumTabularNumbersinLatinlookup11 subtable" seven.tabl
Substitution2: "supsSuperscriptinLatinlookup15 subtable" uni2077
Substitution2: "subsSubscriptinLatinlookup14 subtable" uni2087
Substitution2: "numrNumeratorsinLatinlookup13 subtable" seven.numr
Substitution2: "dnomDenominatorsinLatinlookup12 subtable" seven.dnom
Substitution2: "cv04CharacterVariants04inLatinlookup19 subtable" uni2466
Substitution2: "cv03CharacterVariants03inLatinlookup18 subtable" uni277C
Substitution2: "cv02CharacterVariants02inLatinlookup17 subtable" seven.cv02
Substitution2: "cv01CharacterVariants01inLatinlookup16 subtable" seven.cv01
EndChar

StartChar: two
Encoding: 50 50 69
GlifName: two
Width: 529
GlyphClass: 2
Flags: HMW
LayerCount: 2
Fore
SplineSet
114 49 m 1
 490 49 l 1
 481 0 l 1
 46 0 l 1
 48 14 l 2
 65 135 141 204 317 280 c 0
 470 347 513 392 513 487 c 0
 513 570 451 623 353 623 c 0
 281 623 204 573 185 487 c 1
 131 487 l 1
 158 599 241 674 358 674 c 0
 483 674 567 599 567 488 c 0
 567 376 507 309 343 237 c 0
 181 165 126 117 114 49 c 1
EndSplineSet
Substitution2: "tnumTabularNumbersinLatinlookup11 subtable" two.tabl
Substitution2: "supsSuperscriptinLatinlookup15 subtable" uni00B2
Substitution2: "subsSubscriptinLatinlookup14 subtable" uni2082
Substitution2: "numrNumeratorsinLatinlookup13 subtable" two.numr
Substitution2: "dnomDenominatorsinLatinlookup12 subtable" two.dnom
Substitution2: "cv04CharacterVariants04inLatinlookup19 subtable" uni2461
Substitution2: "cv03CharacterVariants03inLatinlookup18 subtable" uni2777
Substitution2: "cv02CharacterVariants02inLatinlookup17 subtable" two.cv02
Substitution2: "cv01CharacterVariants01inLatinlookup16 subtable" two.cv01
EndChar

StartChar: eight
Encoding: 56 56 70
GlifName: eight
Width: 529
GlyphClass: 2
Flags: HMW
LayerCount: 2
Fore
SplineSet
422 336 m 1
 483 312 517 263 517 197 c 0
 517 80 412 -8 273 -8 c 0
 150 -8 74 54 74 152 c 0
 74 237 133 307 226 336 c 1
 177 361 150 407 150 467 c 0
 150 584 248 674 373 674 c 0
 484 674 553 613 553 516 c 0
 553 435 503 366 422 336 c 1
335 360 m 2
 433 360 498 424 498 520 c 0
 498 586 450 623 364 623 c 0
 269 623 205 558 205 460 c 0
 205 397 246 360 322 360 c 2
 335 360 l 2
326 309 m 2
 312 309 l 2
 201 309 129 244 129 147 c 0
 129 79 184 43 282 43 c 0
 393 43 463 106 463 204 c 0
 463 272 414 309 326 309 c 2
EndSplineSet
Substitution2: "tnumTabularNumbersinLatinlookup11 subtable" eight.tabl
Substitution2: "supsSuperscriptinLatinlookup15 subtable" uni2078
Substitution2: "subsSubscriptinLatinlookup14 subtable" uni2088
Substitution2: "numrNumeratorsinLatinlookup13 subtable" eight.numr
Substitution2: "dnomDenominatorsinLatinlookup12 subtable" eight.dnom
Substitution2: "cv04CharacterVariants04inLatinlookup19 subtable" uni2467
Substitution2: "cv03CharacterVariants03inLatinlookup18 subtable" uni277D
Substitution2: "cv02CharacterVariants02inLatinlookup17 subtable" eight.cv02
Substitution2: "cv01CharacterVariants01inLatinlookup16 subtable" eight.cv01
EndChar

StartChar: five
Encoding: 53 53 71
GlifName: five
Width: 529
GlyphClass: 2
Flags: HMW
LayerCount: 2
Fore
SplineSet
472 263 m 0
 472 131 392 43 271 43 c 0
 179 43 130 86 130 168 c 1
 76 168 l 1
 76 58 149 -8 272 -8 c 0
 417 -8 527 108 527 262 c 0
 527 376 457 447 345 447 c 0
 277 447 213 423 166 380 c 1
 233 617 l 1
 569 617 l 1
 577 667 l 1
 194 667 l 1
 102 316 l 1
 152 316 l 1
 193 367 256 396 329 396 c 0
 420 396 472 348 472 263 c 0
EndSplineSet
Substitution2: "tnumTabularNumbersinLatinlookup11 subtable" five.tabl
Substitution2: "supsSuperscriptinLatinlookup15 subtable" uni2075
Substitution2: "subsSubscriptinLatinlookup14 subtable" uni2085
Substitution2: "numrNumeratorsinLatinlookup13 subtable" five.numr
Substitution2: "dnomDenominatorsinLatinlookup12 subtable" five.dnom
Substitution2: "cv04CharacterVariants04inLatinlookup19 subtable" uni2464
Substitution2: "cv03CharacterVariants03inLatinlookup18 subtable" uni277A
Substitution2: "cv02CharacterVariants02inLatinlookup17 subtable" five.cv02
Substitution2: "cv01CharacterVariants01inLatinlookup16 subtable" five.cv01
EndChar

StartChar: six
Encoding: 54 54 72
GlifName: six
Width: 549
GlyphClass: 2
Flags: HMW
LayerCount: 2
Fore
SplineSet
95 231 m 0
 95 497 221 676 408 676 c 0
 518 676 586 609 586 501 c 1
 531 501 l 1
 531 580 486 625 404 625 c 0
 274 625 193 530 159 335 c 0
 157 325 156 317 155 300 c 1
 199 384 281 436 365 436 c 0
 474 436 546 362 546 249 c 0
 546 109 436 -8 304 -8 c 0
 177 -8 95 86 95 231 c 0
158 182 m 0
 158 100 217 44 302 44 c 0
 409 44 491 136 491 254 c 0
 491 335 442 384 362 384 c 0
 248 384 158 295 158 182 c 0
EndSplineSet
Substitution2: "tnumTabularNumbersinLatinlookup11 subtable" six.tabl
Substitution2: "supsSuperscriptinLatinlookup15 subtable" uni2076
Substitution2: "subsSubscriptinLatinlookup14 subtable" uni2086
Substitution2: "numrNumeratorsinLatinlookup13 subtable" six.numr
Substitution2: "dnomDenominatorsinLatinlookup12 subtable" six.dnom
Substitution2: "cv04CharacterVariants04inLatinlookup19 subtable" uni2465
Substitution2: "cv03CharacterVariants03inLatinlookup18 subtable" uni277B
Substitution2: "cv02CharacterVariants02inLatinlookup17 subtable" six.cv02
Substitution2: "cv01CharacterVariants01inLatinlookup16 subtable" six.cv01
EndChar

StartChar: a.ss01
Encoding: 65536 -1 73
GlifName: a.ss01
Width: 565
GlyphClass: 2
Flags: HMW
AnchorPoint: "bottom2" 510 0 basechar 0
AnchorPoint: "bottom1" 302 0 basechar 0
AnchorPoint: "top1" 400 573 basechar 0
LayerCount: 2
Fore
SplineSet
600 512 m 5
 548 512 l 5
 458 0 l 5
 510 0 l 5
 600 512 l 5
538 311 m 4
 538 435 474 522 345 522 c 4
 198 522 86 389 86 214 c 4
 86 79 170 -8 299 -8 c 4
 445 -8 538 136 538 311 c 4
140 212 m 4
 140 365 232 471 340 471 c 4
 444 471 505 409 505 303 c 4
 505 150 411 43 305 43 c 4
 201 43 140 104 140 212 c 4
EndSplineSet
Substitution2: "cv05CharacterVariants05inLatinlookup20-1" a.spur.ss01
EndChar

StartChar: l.ss02
Encoding: 65537 -1 74
GlifName: l.ss02
Width: 226
GlyphClass: 2
Flags: HMW
AnchorPoint: "top1" 217 773 basechar 0
AnchorPoint: "bottom1" 113 0 basechar 0
AnchorPoint: "top2" 254 512 basechar 0
LayerCount: 2
Fore
SplineSet
199 49 m 5
 190 0 l 5
 178 0 l 6
 120 0 62 29 78 121 c 6
 183 717 l 5
 234 717 l 5
 130 127 l 6
 119 64 148 49 188 49 c 6
 199 49 l 5
EndSplineSet
EndChar

StartChar: i.ss03
Encoding: 65538 -1 75
GlifName: i.ss03
Width: 163
GlyphClass: 2
Flags: HMW
AnchorPoint: "bottom2" 110 0 basechar 0
AnchorPoint: "bottom1" 85 0 basechar 0
LayerCount: 2
Fore
SplineSet
153 634 m 4
 153 658 172 677 196 677 c 4
 220 677 239 658 239 634 c 4
 239 610 220 591 196 591 c 4
 172 591 153 610 153 634 c 4
147 512 m 1
 200 512 l 1
 110 0 l 1
 57 0 l 1
 147 512 l 1
EndSplineSet
EndChar

StartChar: j.ss03
Encoding: 65539 -1 76
GlifName: j.ss03
Width: 163
GlyphClass: 2
Flags: HMW
LayerCount: 2
Fore
SplineSet
153 634 m 4
 153 658 172 677 196 677 c 4
 220 677 239 658 239 634 c 4
 239 610 220 591 196 591 c 4
 172 591 153 610 153 634 c 4
-55 -109 m 1
 -23 -109 l 2
 12 -109 41 -94 52 -31 c 2
 148 512 l 1
 200 512 l 1
 103 -37 l 2
 87 -129 22 -158 -31 -158 c 2
 -64 -158 l 1
 -55 -109 l 1
EndSplineSet
EndChar

StartChar: G.ss04
Encoding: 65540 -1 77
GlifName: G_.ss04
Width: 662
GlyphClass: 2
Flags: HMW
AnchorPoint: "top1" 456 717 basechar 0
AnchorPoint: "bottom1" 329 0 basechar 0
LayerCount: 2
Fore
SplineSet
99 272 m 0
 99 505 234 675 420 675 c 0
 578 675 682 577 682 429 c 1
 628 429 l 1
 628 552 549 625 415 625 c 0
 262 625 154 476 154 266 c 0
 154 130 235 45 367 45 c 0
 488 45 591 121 610 291 c 1
 379 291 l 1
 387 340 l 1
 666 340 l 1
 662 291 l 2
 647 106 520 -8 355 -8 c 0
 203 -8 99 105 99 272 c 0
EndSplineSet
EndChar

StartChar: R.ss05
Encoding: 65541 -1 78
GlifName: R_.ss05
Width: 572
GlyphClass: 2
Flags: HMW
AnchorPoint: "top1" 415 717 basechar 0
AnchorPoint: "bottom1" 301 0 basechar 0
LayerCount: 2
Fore
SplineSet
412 308 m 1
 546 0 l 5
 492 0 l 5
 357 308 l 1
 412 308 l 1
428 616 m 2
 216 616 l 1
 167 335 l 1
 379 335 l 2
 488 335 559 401 559 502 c 0
 559 575 512 616 428 616 c 2
387 286 m 2
 158 286 l 1
 108 0 l 1
 56 0 l 1
 174 666 l 1
 437 666 l 2
 546 666 613 603 613 501 c 0
 613 376 518 286 387 286 c 2
EndSplineSet
EndChar

StartChar: J.ss06
Encoding: 65542 -1 79
GlifName: J_.ss06
Width: 531
GlyphClass: 2
Flags: HMW
AnchorPoint: "top1" 582 717 basechar 0
LayerCount: 2
Fore
SplineSet
132 183 m 1
 132 91 184 43 282 43 c 0
 383 43 449 107 467 212 c 2
 547 666 l 1
 598 666 l 1
 518 203 l 2
 497 78 413 -8 284 -8 c 0
 159 -8 81 65 81 183 c 1
 132 183 l 1
EndSplineSet
EndChar

StartChar: y.ss07
Encoding: 65543 -1 80
GlifName: y.ss07
Width: 543
GlyphClass: 2
Flags: HMW
AnchorPoint: "top1" 384 573 basechar 0
AnchorPoint: "bottom1" 372 0 basechar 0
LayerCount: 2
Fore
SplineSet
133 -178 m 5
 244 19 l 5
 126 512 l 1
 179 512 l 1
 285 87 l 1
 534 512 l 1
 598 512 l 1
 193 -178 l 1
 133 -178 l 5
EndSplineSet
EndChar

StartChar: t.ss08
Encoding: 65544 -1 81
GlifName: t.ss08
Width: 319
GlyphClass: 2
Flags: HMW
AnchorPoint: "bottom1" 161 0 basechar 0
AnchorPoint: "top2" 337 562 basechar 0
LayerCount: 2
Fore
SplineSet
126 512 m 5
 374 512 l 5
 365 463 l 5
 117 463 l 5
 126 512 l 5
134 0 m 5
 248 645 l 5
 299 645 l 5
 185 0 l 5
 134 0 l 5
EndSplineSet
EndChar

StartChar: exclam.ss03
Encoding: 65545 -1 82
GlifName: exclam.ss03
Width: 163
GlyphClass: 2
Flags: HMW
LayerCount: 2
Fore
SplineSet
47 35 m 4
 47 59 66 78 90 78 c 4
 114 78 133 59 133 35 c 4
 133 11 114 -8 90 -8 c 4
 66 -8 47 11 47 35 c 4
129 146 m 1
 86 146 l 1
 174 666 l 1
 225 666 l 1
 129 146 l 1
EndSplineSet
EndChar

StartChar: comma.ss03
Encoding: 65546 -1 83
GlifName: comma.ss03
Width: 163
GlyphClass: 2
Flags: HMW
LayerCount: 2
Fore
SplineSet
44 35 m 0
 44 59 63 78 87 78 c 0
 111 78 130 59 130 35 c 2
 130 -17 l 2
 130 -77 92 -97 58 -97 c 2
 46 -97 l 1
 46 -73 l 1
 57 -73 l 2
 87 -73 110 -61 110 -11 c 2
 110 -2 l 1
 104 -6 95 -8 87 -8 c 0
 63 -8 44 11 44 35 c 0
EndSplineSet
EndChar

StartChar: period.ss03
Encoding: 65547 -1 84
GlifName: period.ss03
Width: 163
GlyphClass: 2
Flags: HMW
LayerCount: 2
Fore
SplineSet
49 35 m 4
 49 59 68 78 92 78 c 4
 116 78 135 59 135 35 c 4
 135 11 116 -8 92 -8 c 4
 68 -8 49 11 49 35 c 4
EndSplineSet
Substitution2: "tnumTabularNumbersinLatinlookup11 subtable" period.ss03.tabl
EndChar

StartChar: colon.ss03
Encoding: 65548 -1 85
GlifName: colon.ss03
Width: 163
GlyphClass: 2
Flags: HMW
LayerCount: 2
Fore
SplineSet
121 458 m 0
 121 482 140 501 164 501 c 0
 188 501 207 482 207 458 c 0
 207 434 188 415 164 415 c 0
 140 415 121 434 121 458 c 0
47 35 m 4
 47 59 66 78 90 78 c 4
 114 78 133 59 133 35 c 4
 133 11 114 -8 90 -8 c 4
 66 -8 47 11 47 35 c 4
EndSplineSet
Substitution2: "tnumTabularNumbersinLatinlookup11 subtable" colon.ss03.tabl
EndChar

StartChar: semicolon.ss03
Encoding: 65549 -1 86
GlifName: semicolon.ss03
Width: 163
GlyphClass: 2
Flags: HMW
LayerCount: 2
Fore
SplineSet
121 458 m 0
 121 482 140 501 164 501 c 0
 188 501 207 482 207 458 c 0
 207 434 188 415 164 415 c 0
 140 415 121 434 121 458 c 0
43 34 m 4
 43 58 62 77 86 77 c 4
 110 77 129 58 129 34 c 6
 129 -18 l 6
 129 -78 91 -98 57 -98 c 6
 45 -98 l 5
 45 -74 l 5
 56 -74 l 6
 86 -74 109 -62 109 -12 c 6
 109 -3 l 5
 103 -7 94 -9 86 -9 c 4
 62 -9 43 10 43 34 c 4
EndSplineSet
EndChar

StartChar: numbersign
Encoding: 35 35 87
GlifName: numbersign
Width: 704
GlyphClass: 2
Flags: HMW
LayerCount: 2
Fore
SplineSet
654 226 m 5
 654 177 l 5
 93 177 l 5
 93 226 l 5
 654 226 l 5
726 493 m 5
 726 443 l 5
 165 443 l 5
 165 493 l 5
 726 493 l 5
648 666 m 5
 706 666 l 5
 431 0 l 5
 374 0 l 5
 648 666 l 5
388 666 m 5
 445 666 l 5
 171 0 l 5
 114 0 l 5
 388 666 l 5
EndSplineSet
EndChar

StartChar: slash
Encoding: 47 47 88
GlifName: slash
Width: 403
GlyphClass: 2
Flags: HMW
LayerCount: 2
Fore
SplineSet
423 666 m 5
 485 666 l 5
 98 0 l 5
 36 0 l 5
 423 666 l 5
EndSplineSet
Substitution2: "tnumTabularNumbersinLatinlookup11 subtable" slash.tabl
EndChar

StartChar: backslash
Encoding: 92 92 89
GlifName: backslash
Width: 403
GlyphClass: 2
Flags: HMW
LayerCount: 2
Fore
SplineSet
205 666 m 1
 368 0 l 1
 315 0 l 5
 153 666 l 1
 205 666 l 1
EndSplineSet
EndChar

StartChar: dollar
Encoding: 36 36 90
GlifName: dollar
Width: 583
GlyphClass: 2
Flags: HMW
LayerCount: 2
Fore
SplineSet
403 768 m 5
 454 768 l 5
 297 -123 l 5
 246 -123 l 5
 403 768 l 5
377 300 m 2
 303 317 l 2
 188 344 132 395 132 473 c 0
 132 596 224 675 365 675 c 0
 517 675 602 596 602 455 c 1
 549 455 l 1
 549 568 487 623 361 623 c 0
 258 623 186 564 186 481 c 0
 186 427 227 391 316 372 c 2
 391 355 l 2
 509 329 566 276 566 193 c 0
 566 69 477 -9 336 -9 c 0
 177 -9 80 75 80 211 c 1
 135 211 l 1
 135 102 207 43 340 43 c 0
 441 43 512 99 512 181 c 0
 512 239 468 278 377 300 c 2
EndSplineSet
EndChar

StartChar: bar
Encoding: 124 124 91
GlifName: bar
Width: 163
GlyphClass: 2
Flags: HMW
LayerCount: 2
Fore
SplineSet
201 820 m 5
 252 820 l 5
 71 -205 l 5
 20 -205 l 5
 201 820 l 5
EndSplineSet
EndChar

StartChar: percent
Encoding: 37 37 92
GlifName: percent
Width: 854
GlyphClass: 2
Flags: HMW
LayerCount: 2
Fore
SplineSet
528 157 m 4
 528 294 610 399 714 399 c 4
 801 399 857 335 857 236 c 4
 857 100 775 -8 672 -8 c 4
 585 -8 528 57 528 157 c 4
804 237 m 4
 804 308 769 348 710 348 c 4
 637 348 583 267 583 156 c 4
 583 84 618 43 677 43 c 4
 750 43 804 126 804 237 c 4
653 666 m 5
 711 666 l 5
 319 0 l 5
 262 0 l 5
 653 666 l 5
113 432 m 4
 113 569 194 675 298 675 c 4
 385 675 441 610 441 511 c 4
 441 375 359 267 256 267 c 4
 169 267 113 332 113 432 c 4
388 512 m 4
 388 583 353 624 294 624 c 4
 221 624 167 542 167 431 c 4
 167 359 202 318 261 318 c 4
 334 318 388 401 388 512 c 4
EndSplineSet
EndChar

StartChar: less
Encoding: 60 60 93
GlifName: less
Width: 583
GlyphClass: 2
Flags: HMW
LayerCount: 2
Fore
SplineSet
638 512 m 5
 628 455 l 5
 152 274 l 5
 566 100 l 5
 555 41 l 5
 80 248 l 5
 90 305 l 5
 638 512 l 5
EndSplineSet
EndChar

StartChar: greater
Encoding: 62 62 94
GlifName: greater
Width: 583
GlyphClass: 2
Flags: HMW
LayerCount: 2
Fore
SplineSet
43 41 m 5
 53 98 l 5
 529 279 l 5
 116 453 l 5
 126 512 l 5
 602 305 l 5
 592 248 l 5
 43 41 l 5
EndSplineSet
EndChar

StartChar: question
Encoding: 63 63 95
GlifName: question
Width: 529
GlyphClass: 2
Flags: HMW
LayerCount: 2
Fore
SplineSet
266 146 m 5
 285 251 355 300 416 348 c 4
 469 390 516 431 516 508 c 4
 516 582 464 623 371 623 c 4
 277 623 204 563 183 470 c 5
 129 470 l 5
 158 591 250 674 373 674 c 4
 496 674 571 612 571 514 c 4
 571 406 506 356 441 307 c 4
 386 264 331 223 318 146 c 5
 266 146 l 5
298 0 m 1
 232 0 l 1
 245 72 l 1
 311 72 l 1
 298 0 l 1
EndSplineSet
Substitution2: "ss03StyleSet3inLatinlookup2 subtable" question.ss03
EndChar

StartChar: question.ss03
Encoding: 65550 -1 96
GlifName: question.ss03
Width: 529
GlyphClass: 2
Flags: HMW
LayerCount: 2
Fore
SplineSet
234 35 m 4
 234 59 254 78 278 78 c 4
 302 78 321 59 321 35 c 4
 321 11 302 -8 278 -8 c 4
 254 -8 234 11 234 35 c 4
266 146 m 1
 285 251 355 300 416 348 c 0
 469 390 516 431 516 508 c 0
 516 582 464 623 371 623 c 0
 277 623 204 563 183 470 c 1
 129 470 l 1
 158 591 250 674 373 674 c 0
 496 674 571 612 571 514 c 0
 571 406 506 356 441 307 c 0
 386 264 331 223 318 146 c 1
 266 146 l 1
EndSplineSet
EndChar

StartChar: parenleft
Encoding: 40 40 97
GlifName: parenleft
Width: 236
GlyphClass: 2
Flags: HMW
LayerCount: 2
Fore
SplineSet
197 -137 m 5
 145 -137 l 5
 82 -57 52 89 86 284 c 4
 120 479 202 625 293 705 c 5
 345 705 l 5
 242 618 176 490 140 284 c 4
 104 78 124 -50 197 -137 c 5
EndSplineSet
Substitution2: "supsSuperscriptinLatinlookup15 subtable" uni207D
Substitution2: "subsSubscriptinLatinlookup14 subtable" uni208D
EndChar

StartChar: parenright
Encoding: 41 41 98
GlifName: parenright
Width: 236
GlyphClass: 2
Flags: HMW
LayerCount: 2
Fore
SplineSet
129 705 m 1
 182 705 l 1
 245 625 274 479 240 284 c 4
 206 89 124 -57 33 -137 c 5
 -19 -137 l 5
 84 -50 150 78 186 284 c 4
 222 490 202 618 129 705 c 1
EndSplineSet
Substitution2: "supsSuperscriptinLatinlookup15 subtable" uni207E
Substitution2: "subsSubscriptinLatinlookup14 subtable" uni208E
EndChar

StartChar: bracketleft
Encoding: 91 91 99
GlifName: bracketleft
Width: 235
GlyphClass: 2
Flags: HMW
LayerCount: 2
Fore
SplineSet
213 657 m 5
 336 657 l 5
 345 707 l 5
 171 707 l 5
 23 -133 l 5
 197 -133 l 5
 205 -84 l 5
 82 -84 l 5
 213 657 l 5
EndSplineSet
EndChar

StartChar: bracketright
Encoding: 93 93 100
GlifName: bracketright
Width: 235
GlyphClass: 2
Flags: HMW
LayerCount: 2
Fore
SplineSet
123 -84 m 5
 1 -84 l 5
 -8 -133 l 5
 166 -133 l 5
 314 707 l 5
 140 707 l 5
 131 657 l 5
 254 657 l 5
 123 -84 l 5
EndSplineSet
EndChar

StartChar: underscore
Encoding: 95 95 101
GlifName: underscore
Width: 575
GlyphClass: 2
Flags: HMW
LayerCount: 2
Fore
SplineSet
36 0 m 5
 540 0 l 5
 531 -49 l 5
 27 -49 l 5
 36 0 l 5
EndSplineSet
EndChar

StartChar: grave
Encoding: 96 96 102
GlifName: grave
Width: 250
GlyphClass: 2
Flags: HMW
LayerCount: 2
Fore
SplineSet
162 717 m 1
 220 717 l 5
 313 553 l 1
 269 553 l 1
 162 717 l 1
EndSplineSet
EndChar

StartChar: asterisk
Encoding: 42 42 103
GlifName: asterisk
Width: 540
GlyphClass: 2
Flags: HMW
LayerCount: 2
Fore
SplineSet
371 718 m 1
 421 709 l 1
 380 485 l 1
 601 522 l 1
 608 471 l 1
 387 438 l 1
 486 242 l 1
 441 220 l 1
 343 421 l 1
 185 265 l 1
 150 301 l 1
 310 453 l 1
 114 558 l 1
 137 604 l 1
 333 494 l 1
 371 718 l 1
EndSplineSet
Substitution2: "ss09StyleSet9inLatinlookup8 subtable" asterisk.ss09
EndChar

StartChar: asterisk.ss09
Encoding: 65551 -1 104
GlifName: asterisk.ss09
Width: 673
GlyphClass: 2
Flags: HMW
LayerCount: 2
Fore
SplineSet
427 665 m 1
 477 656 l 1
 424 368 l 1
 698 471 l 1
 716 423 l 1
 440 325 l 1
 666 138 l 1
 633 99 l 1
 410 289 l 1
 362 1 l 1
 311 10 l 1
 364 298 l 1
 90 195 l 1
 73 243 l 1
 349 341 l 1
 123 527 l 1
 156 566 l 1
 378 376 l 1
 427 665 l 1
EndSplineSet
EndChar

StartChar: u.ss10
Encoding: 65552 -1 105
GlifName: u.ss10
Width: 514
GlyphClass: 2
Flags: HMW
AnchorPoint: "top1" 355 573 basechar 0
AnchorPoint: "bottom1" 269 0 basechar 0
AnchorPoint: "bottom2" 324 0 basechar 0
AnchorPoint: "top3" 495 512 basechar 0
LayerCount: 2
Fore
SplineSet
141 512 m 1
 194 512 l 1
 139 205 l 2
 122 105 176 43 282 43 c 0
 365 43 420 91 435 178 c 2
 495 512 l 1
 546 512 l 1
 485 174 l 2
 466 63 385 -8 276 -8 c 0
 144 -8 67 81 89 209 c 2
 141 512 l 1
EndSplineSet
EndChar

StartChar: braceleft
Encoding: 123 123 106
GlifName: braceleft
Width: 235
GlyphClass: 2
Flags: HMW
LayerCount: 2
Fore
SplineSet
336 657 m 1
 315 657 l 2
 272 657 249 634 239 580 c 2
 201 362 l 2
 195 325 174 299 142 287 c 1
 170 275 180 248 174 211 c 2
 136 -6 l 2
 126 -60 141 -84 184 -84 c 2
 205 -84 l 1
 197 -133 l 1
 170 -133 l 2
 102 -133 71 -88 84 -12 c 2
 122 205 l 2
 129 245 118 262 86 262 c 2
 60 262 l 1
 68 311 l 1
 95 311 l 2
 127 311 144 329 151 369 c 2
 189 586 l 2
 202 662 250 707 318 707 c 2
 345 707 l 1
 336 657 l 1
EndSplineSet
EndChar

StartChar: braceright
Encoding: 125 125 107
GlifName: braceright
Width: 235
GlyphClass: 2
Flags: HMW
LayerCount: 2
Fore
SplineSet
-1 -84 m 5
 20 -84 l 6
 63 -84 85 -60 95 -6 c 6
 133 211 l 6
 139 248 161 275 193 287 c 5
 165 299 154 325 160 362 c 6
 198 580 l 6
 208 634 194 657 151 657 c 6
 129 657 l 5
 138 707 l 5
 165 707 l 6
 233 707 264 662 251 586 c 6
 212 369 l 6
 205 329 216 311 248 311 c 6
 275 311 l 5
 266 262 l 5
 240 262 l 6
 208 262 191 245 184 205 c 6
 145 -12 l 6
 132 -88 84 -133 16 -133 c 6
 -10 -133 l 5
 -1 -84 l 5
EndSplineSet
EndChar

StartChar: asciicircum
Encoding: 94 94 108
GlifName: asciicircum
Width: 375
GlyphClass: 2
Flags: HMW
LayerCount: 2
Fore
SplineSet
287 717 m 1
 341 717 l 1
 430 512 l 1
 390 512 l 5
 313 684 l 5
 174 512 l 5
 126 512 l 1
 287 717 l 1
EndSplineSet
EndChar

StartChar: ampersand
Encoding: 38 38 109
GlifName: ampersand
Width: 621
GlyphClass: 2
Flags: HMW
LayerCount: 2
Fore
SplineSet
372 674 m 0
 457 674 516 619 516 544 c 0
 516 412 388 361 308 326 c 0
 222 289 127 237 127 139 c 0
 127 79 171 43 256 43 c 0
 387 43 495 148 547 329 c 1
 603 329 l 1
 547 126 410 -8 254 -8 c 0
 145 -8 72 46 72 133 c 0
 72 233 132 297 289 371 c 0
 337 394 462 447 462 542 c 0
 462 591 426 623 368 623 c 0
 288 623 250 556 250 498 c 0
 250 443 288 402 324 357 c 2
 606 0 l 1
 538 0 l 1
 281 326 l 2
 241 377 194 430 194 495 c 0
 194 585 262 674 372 674 c 0
EndSplineSet
EndChar

StartChar: at
Encoding: 64 64 110
GlifName: at
Width: 906
GlyphClass: 2
Flags: HW
LayerCount: 2
Fore
SplineSet
365 236 m 0
 365 359 432 447 524 447 c 0
 591 447 627 407 627 333 c 0
 627 211 560 122 467 122 c 0
 401 122 365 162 365 236 c 0
663 342 m 0
 663 440 606 499 521 499 c 0
 401 499 309 384 309 236 c 0
 309 138 369 71 456 71 c 0
 574 71 663 191 663 342 c 0
711 488 m 1
 659 488 l 1
 607 191 l 2
 595 120 642 75 720 75 c 0
 840 75 922 201 922 381 c 0
 922 576 777 707 568 707 c 0
 294 707 89 494 89 209 c 0
 89 10 219 -121 433 -121 c 0
 488 -121 543 -112 597 -94 c 1
 606 -43 l 1
 545 -61 492 -70 437 -70 c 0
 252 -70 143 32 143 205 c 0
 143 465 323 655 569 655 c 0
 755 655 865 552 865 377 c 0
 865 225 809 125 723 125 c 0
 672 125 651 150 660 202 c 2
 711 488 l 1
EndSplineSet
EndChar

StartChar: dotlessi
Encoding: 305 305 111
GlifName: dotlessi
Width: 163
GlyphClass: 2
Flags: HW
AnchorPoint: "bottom1" 83 0 basechar 0
AnchorPoint: "top1" 183 573 basechar 0
LayerCount: 2
Fore
SplineSet
147 512 m 5
 198 512 l 5
 108 0 l 5
 56 0 l 5
 147 512 l 5
EndSplineSet
Substitution2: "ss03StyleSet3inLatinlookup2 subtable" dotlessi.ss03
EndChar

StartChar: uni0237
Encoding: 567 567 112
GlifName: uni0237
Width: 163
GlyphClass: 2
Flags: HW
AnchorPoint: "top1" 183 573 basechar 0
LayerCount: 2
Fore
SplineSet
-56 -109 m 1
 -24 -109 l 2
 11 -109 40 -94 51 -31 c 2
 147 512 l 1
 198 512 l 1
 101 -37 l 2
 85 -129 21 -158 -32 -158 c 2
 -65 -158 l 1
 -56 -109 l 1
EndSplineSet
EndChar

StartChar: gravecomb
Encoding: 768 768 113
GlifName: gravecomb
Width: 307
GlyphClass: 4
Flags: HW
AnchorPoint: "top1" 160 512 mark 0
LayerCount: 2
Fore
SplineSet
50 666 m 1
 110 666 l 5
 209 512 l 1
 165 512 l 1
 50 666 l 1
EndSplineSet
EndChar

StartChar: acutecomb
Encoding: 769 769 116
GlifName: acutecomb
Width: 307
GlyphClass: 4
Flags: HW
AnchorPoint: "top1" 160 512 mark 0
LayerCount: 2
Fore
SplineSet
308 666 m 1
 158 512 l 5
 109 512 l 1
 239 666 l 1
 308 666 l 1
EndSplineSet
EndChar

StartChar: uni0302
Encoding: 770 770 117
GlifName: uni0302
Width: 307
GlyphClass: 4
Flags: HW
HStem: 512 164
AnchorPoint: "top1" 250 512 mark 0
LayerCount: 2
Fore
SplineSet
246 676 m 1
 300 676 l 1
 437 512 l 1
 378 512 l 5
 273 643 l 5
 121 512 l 5
 51 512 l 1
 246 676 l 1
EndSplineSet
EndChar

StartChar: tildecomb
Encoding: 771 771 118
GlifName: tildecomb
Width: 307
GlyphClass: 4
Flags: HW
AnchorPoint: "top1" 250 512 mark 0
LayerCount: 2
Fore
SplineSet
192 655 m 4
 233 655 253 626 270 600 c 4
 285 576 298 553 324 553 c 4
 355 553 382 591 392 649 c 5
 439 649 l 1
 424 563 377 508 319 508 c 0
 277 508 261 533 244 557 c 0
 227 582 216 610 190 610 c 0
 158 610 130 571 120 512 c 1
 70 512 l 1
 86 601 130 655 192 655 c 4
EndSplineSet
EndChar

StartChar: uni0304
Encoding: 772 772 119
GlifName: uni0304
Width: 307
GlyphClass: 4
Flags: HW
AnchorPoint: "top1" 250 512 mark 0
LayerCount: 2
Fore
SplineSet
102 580 m 5
 409 580 l 5
 401 532 l 5
 94 532 l 5
 102 580 l 5
EndSplineSet
EndChar

StartChar: uni0306
Encoding: 774 774 120
GlifName: uni0306
Width: 307
GlyphClass: 4
Flags: HW
AnchorPoint: "top1" 250 512 mark 0
LayerCount: 2
Fore
SplineSet
432 655 m 1
 411 569 346 512 257 512 c 0
 154 512 100 569 109 655 c 1
 162 655 l 1
 158 591 187 555 254 555 c 0
 321 555 362 591 380 655 c 1
 432 655 l 1
EndSplineSet
EndChar

StartChar: uni0308
Encoding: 776 776 121
GlifName: uni0308
Width: 307
GlyphClass: 4
Flags: HW
AnchorPoint: "top1" 250 512 mark 0
LayerCount: 2
Fore
SplineSet
325 584 m 1
 391 584 l 1
 378 512 l 1
 312 512 l 1
 325 584 l 1
121 584 m 5
 187 584 l 5
 174 512 l 5
 109 512 l 5
 121 584 l 5
EndSplineSet
Substitution2: "ss03StyleSet3inLatinlookup2 subtable" uni0308.ss03
EndChar

StartChar: uni0307
Encoding: 775 775 122
GlifName: uni0307
Width: 307
GlyphClass: 4
Flags: HW
AnchorPoint: "top1" 250 512 mark 0
LayerCount: 2
Fore
SplineSet
229 584 m 5
 294 584 l 5
 282 512 l 5
 216 512 l 5
 229 584 l 5
EndSplineSet
Substitution2: "ss03StyleSet3inLatinlookup2 subtable" uni0307.ss03
EndChar

StartChar: uni030A
Encoding: 778 778 123
GlifName: uni030A_
Width: 307
GlyphClass: 4
Flags: HW
AnchorPoint: "top1" 160 512 mark 0
LayerCount: 2
Fore
SplineSet
73 621 m 0
 73 575 101 548 150 548 c 0
 202 548 238 591 238 655 c 0
 238 701 210 728 161 728 c 0
 109 728 73 685 73 621 c 0
287 655 m 0
 287 568 227 505 146 505 c 0
 72 505 24 551 24 621 c 0
 24 708 83 771 164 771 c 0
 238 771 287 725 287 655 c 0
EndSplineSet
EndChar

StartChar: uni030C
Encoding: 780 780 124
GlifName: uni030C_
Width: 307
GlyphClass: 4
Flags: HW
AnchorPoint: "top1" 250 512 mark 0
LayerCount: 2
Fore
SplineSet
272 512 m 1
 217 512 l 1
 80 676 l 1
 141 676 l 5
 246 545 l 5
 398 676 l 5
 466 676 l 1
 272 512 l 1
EndSplineSet
EndChar

StartChar: uni0327
Encoding: 807 807 252
GlifName: uni0327
Width: 307
GlyphClass: 4
Flags: HW
AnchorPoint: "bottom1" 164 0 mark 0
LayerCount: 2
Fore
SplineSet
144 10 m 5
 190 10 l 1
 169 -56 l 1
 185 -56 l 2
 239 -56 270 -98 270 -148 c 0
 270 -226 219 -272 131 -272 c 2
 30 -272 l 1
 39 -221 l 1
 122 -221 l 2
 181 -221 218 -192 218 -147 c 0
 218 -122 200 -108 168 -108 c 2
 134 -108 l 1
 114 -77 l 1
 144 10 l 5
EndSplineSet
EndChar

StartChar: uni0328
Encoding: 808 808 253
GlifName: uni0328
Width: 307
GlyphClass: 4
Flags: HW
AnchorPoint: "bottom2" 201 0 mark 0
LayerCount: 2
Fore
SplineSet
201 0 m 1
 105 -65 68 -114 68 -176 c 0
 68 -212 92 -231 140 -231 c 2
 203 -231 l 1
 194 -283 l 1
 129 -283 l 2
 60 -283 12 -244 12 -184 c 4
 12 -108 62 -45 152 0 c 1
 201 0 l 1
EndSplineSet
EndChar

StartChar: longs
Encoding: 383 383 268
GlifName: longs
Width: 257
GlyphClass: 2
Flags: HW
LayerCount: 2
Fore
SplineSet
339 668 m 5
 297 668 l 6
 256 668 223 647 213 590 c 6
 109 0 l 5
 57 0 l 5
 162 596 l 6
 178 688 247 717 305 717 c 6
 348 717 l 5
 339 668 l 5
EndSplineSet
EndChar

StartChar: thorn
Encoding: 254 254 269
GlifName: thorn
Width: 565
GlyphClass: 2
Flags: HW
LayerCount: 2
Fore
SplineSet
183 717 m 1
 236 717 l 1
 81 -167 l 1
 29 -167 l 1
 183 717 l 1
123 204 m 0
 123 379 211 522 358 522 c 0
 487 522 571 435 571 301 c 0
 571 126 458 -8 312 -8 c 0
 183 -8 123 69 123 204 c 0
518 303 m 0
 518 409 457 471 353 471 c 0
 245 471 154 365 154 212 c 0
 154 104 214 43 318 43 c 0
 424 43 518 150 518 303 c 0
EndSplineSet
EndChar

StartChar: Thorn
Encoding: 222 222 270
GlifName: T_horn
Width: 567
GlyphClass: 2
Flags: HW
LayerCount: 2
Fore
SplineSet
174 666 m 1
 225 666 l 1
 205 551 l 1
 408 551 l 2
 522 551 592 482 592 376 c 0
 592 255 506 140 354 140 c 2
 133 140 l 1
 108 0 l 1
 56 0 l 1
 174 666 l 1
197 502 m 1
 141 189 l 1
 343 189 l 2
 486 189 539 294 539 381 c 0
 539 459 489 502 398 502 c 2
 197 502 l 1
EndSplineSet
EndChar

StartChar: uni0326
Encoding: 806 806 273
GlifName: uni0326
Width: 307
GlyphClass: 4
Flags: HW
AnchorPoint: "bottom1" 164 0 mark 0
LayerCount: 2
Fore
SplineSet
124 -39 m 1
 190 -39 l 1
 174 -126 l 2
 161 -202 119 -226 85 -226 c 2
 73 -226 l 1
 79 -191 l 1
 90 -191 l 2
 117 -191 140 -179 150 -120 c 2
 152 -111 l 1
 112 -111 l 1
 124 -39 l 1
EndSplineSet
Substitution2: "ss03StyleSet3inLatinlookup2 subtable" uni0326.ss03
EndChar

StartChar: uni0312
Encoding: 786 786 274
GlifName: uni0312
Width: 307
GlyphClass: 4
Flags: HW
AnchorPoint: "top1" 250 512 mark 0
LayerCount: 2
Fore
SplineSet
283 512 m 1
 217 512 l 1
 233 599 l 2
 246 675 288 699 322 699 c 2
 334 699 l 1
 328 665 l 1
 317 665 l 2
 290 665 267 652 257 593 c 2
 255 584 l 1
 295 584 l 1
 283 512 l 1
EndSplineSet
Substitution2: "ss03StyleSet3inLatinlookup2 subtable" uni0312.ss03
EndChar

StartChar: uni0313
Encoding: 787 787 275
GlifName: uni0313
Width: 307
GlyphClass: 4
Flags: HW
AnchorPoint: "top1" 250 512 mark 0
LayerCount: 2
Fore
SplineSet
269 699 m 5
 334 699 l 5
 319 612 l 6
 306 536 264 512 230 512 c 6
 217 512 l 5
 223 547 l 5
 235 547 l 6
 262 547 284 559 294 618 c 6
 296 628 l 5
 256 628 l 5
 269 699 l 5
EndSplineSet
Substitution2: "ss03StyleSet3inLatinlookup2 subtable" uni0313.ss03
EndChar

StartChar: kgreenlandic
Encoding: 312 312 284
GlifName: kgreenlandic
Width: 478
GlyphClass: 2
Flags: HW
LayerCount: 2
Fore
SplineSet
145 512 m 1
 196 512 l 1
 107 0 l 1
 56 0 l 1
 145 512 l 1
447 512 m 1
 524 512 l 1
 250 257 l 1
 447 0 l 1
 385 0 l 1
 213 220 l 1
 132 148 l 1
 100 184 l 1
 447 512 l 1
EndSplineSet
EndChar

StartChar: AE
Encoding: 198 198 285
GlifName: A_E_
Width: 972
GlyphClass: 2
Flags: HW
AnchorPoint: "top1" 606 717 basechar 0
LayerCount: 2
Fore
SplineSet
1044 666 m 1
 1035 616 l 1
 646 616 l 1
 602 366 l 1
 963 366 l 1
 954 316 l 1
 593 316 l 1
 546 49 l 1
 935 49 l 1
 927 0 l 1
 486 0 l 1
 520 193 l 1
 225 193 l 5
 94 0 l 5
 36 0 l 1
 488 666 l 1
 1044 666 l 1
259 242 m 5
 529 242 l 1
 595 614 l 1
 513 614 l 5
 259 242 l 5
EndSplineSet
EndChar

StartChar: Eth
Encoding: 208 208 286
GlifName: E_th
Width: 715
GlyphClass: 2
Flags: HW
LayerCount: 2
Fore
SplineSet
92 348 m 5
 473 348 l 5
 464 299 l 5
 83 299 l 5
 92 348 l 5
308 616 m 5
 208 49 l 5
 404 49 l 6
 605 49 680 272 680 407 c 4
 680 541 611 616 484 616 c 6
 308 616 l 5
494 666 m 6
 646 666 734 562 734 398 c 4
 734 202 616 0 417 0 c 6
 148 0 l 5
 266 666 l 5
 494 666 l 6
EndSplineSet
EndChar

StartChar: Oslash
Encoding: 216 216 287
GlifName: O_slash
Width: 680
GlyphClass: 2
Flags: HW
LayerCount: 2
Fore
SplineSet
717 701 m 1
 752 666 l 1
 82 -35 l 1
 46 0 l 1
 717 701 l 1
99 270 m 0
 99 496 246 676 431 676 c 0
 592 676 696 562 696 387 c 0
 696 160 557 -8 369 -8 c 0
 205 -8 99 101 99 270 c 0
643 392 m 0
 643 539 562 625 424 625 c 0
 267 625 153 474 153 267 c 0
 153 126 235 43 376 43 c 0
 535 43 643 184 643 392 c 0
EndSplineSet
EndChar

StartChar: oslash
Encoding: 248 248 288
GlifName: oslash
Width: 558
GlyphClass: 2
Flags: HW
LayerCount: 2
Fore
SplineSet
562 545 m 1
 598 512 l 1
 83 -33 l 5
 46 0 l 1
 562 545 l 1
86 214 m 0
 86 389 198 522 345 522 c 0
 474 522 558 435 558 301 c 0
 558 126 445 -8 299 -8 c 0
 170 -8 86 79 86 214 c 0
505 303 m 0
 505 409 444 471 340 471 c 0
 232 471 140 365 140 212 c 0
 140 104 201 43 305 43 c 0
 411 43 505 150 505 303 c 0
EndSplineSet
EndChar

StartChar: ae
Encoding: 230 230 289
GlifName: ae
Width: 914
GlyphClass: 2
Flags: HW
AnchorPoint: "top1" 550 573 basechar 0
LayerCount: 2
Fore
SplineSet
451 212 m 0
 451 381 551 522 709 522 c 0
 860 522 941 403 918 268 c 2
 912 238 l 1
 498 238 l 1
 507 287 l 1
 866 287 l 1
 883 396 817 471 713 471 c 0
 589 471 504 366 504 209 c 0
 504 100 565 42 678 42 c 0
 758 42 815 83 844 155 c 1
 903 155 l 1
 862 48 783 -9 676 -9 c 0
 537 -9 451 75 451 212 c 0
483 146 m 1
 431 142 l 1
 465 336 l 2
 479 414 417 472 322 472 c 0
 241 472 191 439 169 370 c 1
 112 370 l 1
 136 464 218 522 327 522 c 0
 452 522 536 441 517 336 c 2
 483 146 l 1
487 210 m 1
 465 79 357 -9 235 -9 c 0
 138 -9 71 46 71 127 c 0
 71 215 137 280 241 284 c 2
 391 289 l 2
 443 291 459 300 465 334 c 1
 450 239 l 1
 248 233 l 2
 165 231 125 190 125 133 c 0
 125 78 172 41 243 41 c 0
 343 41 425 112 443 213 c 1
 487 210 l 1
EndSplineSet
EndChar

StartChar: multiply
Encoding: 215 215 290
GlifName: multiply
Width: 559
GlyphClass: 2
Flags: HW
LayerCount: 2
Fore
SplineSet
336 317 m 1
 542 493 l 1
 570 458 l 1
 364 283 l 1
 508 108 l 1
 467 73 l 1
 323 248 l 1
 117 73 l 1
 89 108 l 1
 295 283 l 1
 150 458 l 1
 191 493 l 1
 336 317 l 1
EndSplineSet
Substitution2: "tnumTabularNumbersinLatinlookup11 subtable" multiply.tabl
EndChar

StartChar: divide
Encoding: 247 247 291
GlifName: divide
Width: 473
GlyphClass: 2
Flags: HW
LayerCount: 2
Fore
SplineSet
294 519 m 5
 360 519 l 5
 347 447 l 5
 282 447 l 5
 294 519 l 5
220 99 m 5
 286 99 l 5
 273 28 l 5
 208 28 l 5
 220 99 l 5
90 307 m 1
 491 307 l 1
 483 258 l 1
 81 258 l 1
 90 307 l 1
EndSplineSet
Substitution2: "ss03StyleSet3inLatinlookup2 subtable" divide.ss03
Substitution2: "tnumTabularNumbersinLatinlookup11 subtable" divide.tabl
EndChar

StartChar: Dcroat
Encoding: 272 272 292
GlifName: D_croat
Width: 715
GlyphClass: 2
Flags: HW
LayerCount: 2
Fore
SplineSet
92 348 m 5
 473 348 l 5
 464 299 l 5
 83 299 l 5
 92 348 l 5
308 616 m 5
 208 49 l 5
 404 49 l 6
 605 49 680 272 680 407 c 4
 680 541 611 616 484 616 c 6
 308 616 l 5
494 666 m 6
 646 666 734 562 734 398 c 4
 734 202 616 0 417 0 c 6
 148 0 l 5
 266 666 l 5
 494 666 l 6
EndSplineSet
EndChar

StartChar: dcroat
Encoding: 273 273 293
GlifName: dcroat
Width: 616
GlyphClass: 2
Flags: HW
LayerCount: 2
Fore
SplineSet
370 645 m 1
 361 598 l 1
 701 598 l 1
 710 645 l 1
 370 645 l 1
636 717 m 1
 584 717 l 1
 458 0 l 1
 510 0 l 1
 636 717 l 1
538 311 m 0
 538 435 474 522 345 522 c 0
 198 522 86 389 86 214 c 0
 86 79 170 -8 299 -8 c 0
 445 -8 538 136 538 311 c 0
140 212 m 0
 140 365 232 471 340 471 c 0
 444 471 505 409 505 303 c 0
 505 150 411 43 305 43 c 0
 201 43 140 104 140 212 c 0
EndSplineSet
EndChar

StartChar: eth
Encoding: 240 240 296
GlifName: eth
Width: 570
GlyphClass: 2
Flags: HW
LayerCount: 2
Fore
SplineSet
447 256 m 0
 447 377 374 462 270 462 c 0
 167 462 100 379 100 252 c 0
 100 126 166 44 266 44 c 0
 371 44 447 133 447 256 c 0
369 717 m 1
 475 612 524 495 524 347 c 0
 524 135 421 -8 269 -8 c 0
 137 -8 46 99 46 252 c 0
 46 404 137 514 263 514 c 0
 356 514 435 454 468 360 c 1
 470 377 470 386 470 394 c 0
 470 486 396 627 300 717 c 1
 369 717 l 1
223 606 m 5
 539 672 l 5
 539 623 l 1
 223 557 l 1
 223 606 l 5
EndSplineSet
EndChar

StartChar: uni0315
Encoding: 789 789 298
GlifName: uni0315
Width: 307
GlyphClass: 4
Flags: W
HStem: 512 187
VStem: 127 116
AnchorPoint: "top2" 127 512 mark 0
LayerCount: 2
Fore
SplineSet
189 699 m 5
 243 699 l 5
 175 512 l 1
 127 512 l 1
 189 699 l 5
EndSplineSet
EndChar

StartChar: periodcentered
Encoding: 183 183 302
GlifName: periodcentered
Width: 163
GlyphClass: 2
Flags: HW
LayerCount: 2
Fore
SplineSet
113 362 m 5
 179 362 l 5
 166 291 l 5
 100 291 l 5
 113 362 l 5
EndSplineSet
Substitution2: "ss03StyleSet3inLatinlookup2 subtable" periodcentered.ss03
EndChar

StartChar: Hbar
Encoding: 294 294 305
GlifName: H_bar
Width: 665
GlyphClass: 2
Flags: HW
LayerCount: 2
Fore
SplineSet
116 541 m 1
 740 541 l 1
 732 492 l 1
 107 492 l 1
 116 541 l 1
194 666 m 1
 245 666 l 1
 193 369 l 1
 603 369 l 1
 655 666 l 1
 706 666 l 1
 589 0 l 1
 538 0 l 1
 594 319 l 1
 184 319 l 1
 128 0 l 1
 77 0 l 1
 194 666 l 1
EndSplineSet
EndChar

StartChar: hbar
Encoding: 295 295 306
GlifName: hbar
Width: 552
GlyphClass: 2
Flags: HW
LayerCount: 2
Fore
SplineSet
114 645 m 5
 454 645 l 5
 445 598 l 5
 105 598 l 5
 114 645 l 5
502 299 m 6
 521 403 472 470 378 470 c 4
 279 470 208 407 192 307 c 5
 161 313 l 5
 181 433 277 521 389 521 c 4
 501 521 576 423 554 304 c 6
 499 0 l 5
 447 0 l 5
 502 299 l 6
212 717 m 5
 263 717 l 5
 139 0 l 5
 88 0 l 5
 212 717 l 5
EndSplineSet
EndChar

StartChar: uni030B
Encoding: 779 779 307
GlifName: uni030B_
Width: 307
GlyphClass: 4
Flags: HW
AnchorPoint: "top1" 250 512 mark 0
LayerCount: 2
Fore
SplineSet
487 666 m 5
 325 512 l 5
 281 512 l 5
 423 666 l 5
 487 666 l 5
344 666 m 5
 181 512 l 5
 137 512 l 5
 279 666 l 5
 344 666 l 5
EndSplineSet
EndChar

StartChar: uni02BC
Encoding: 700 700 311
GlifName: uni02B_C_
Width: 128
GlyphClass: 2
Flags: HW
LayerCount: 2
Fore
SplineSet
186 699 m 5
 251 699 l 5
 236 612 l 6
 223 536 181 512 147 512 c 6
 134 512 l 5
 140 547 l 5
 152 547 l 6
 179 547 201 559 211 618 c 6
 213 628 l 5
 173 628 l 5
 186 699 l 5
EndSplineSet
EndChar

StartChar: Lslash
Encoding: 321 321 312
GlifName: L_slash
Width: 512
GlyphClass: 2
Flags: HW
LayerCount: 2
Fore
SplineSet
60 339 m 1
 387 404 l 1
 378 355 l 1
 51 290 l 1
 60 339 l 1
476 0 m 1
 87 0 l 1
 204 666 l 1
 256 666 l 1
 147 49 l 1
 485 49 l 1
 476 0 l 1
EndSplineSet
EndChar

StartChar: lslash
Encoding: 322 322 313
GlifName: lslash
Width: 233
GlyphClass: 2
Flags: HW
LayerCount: 2
Fore
SplineSet
63 359 m 5
 305 404 l 5
 296 355 l 5
 55 310 l 5
 63 359 l 5
222 717 m 1
 273 717 l 1
 146 0 l 1
 95 0 l 1
 222 717 l 1
EndSplineSet
Substitution2: "ss02StyleSet2inLatinlookup1 subtable" lslash.ss02
EndChar

StartChar: Eng
Encoding: 330 330 314
GlifName: E_ng
Width: 624
GlyphClass: 2
Flags: HW
LayerCount: 2
Fore
SplineSet
634 666 m 1
 686 666 l 1
 562 -37 l 2
 547 -126 492 -178 415 -178 c 6
 352 -178 l 1
 360 -129 l 1
 412 -129 l 2
 469 -129 500 -100 512 -31 c 2
 517 0 l 1
 214 605 l 1
 108 0 l 1
 56 0 l 1
 174 666 l 1
 240 666 l 1
 533 89 l 1
 634 666 l 1
EndSplineSet
EndChar

StartChar: eng
Encoding: 331 331 315
GlifName: eng
Width: 522
GlyphClass: 2
Flags: HW
LayerCount: 2
Fore
SplineSet
147 512 m 1
 198 512 l 1
 108 0 l 1
 56 0 l 1
 147 512 l 1
471 317 m 2
 487 418 449 471 359 471 c 0
 263 471 181 409 165 324 c 1
 136 330 l 1
 155 437 254 522 359 522 c 0
 482 522 546 448 524 328 c 2
 459 -37 l 2
 444 -126 391 -178 314 -178 c 6
 249 -178 l 1
 258 -129 l 1
 310 -129 l 2
 367 -129 397 -100 409 -31 c 2
 471 317 l 2
EndSplineSet
EndChar

StartChar: OE
Encoding: 338 338 316
GlifName: O_E_
Width: 1067
GlyphClass: 2
Flags: HW
LayerCount: 2
Fore
SplineSet
1142 666 m 5
 1133 616 l 5
 743 616 l 5
 699 366 l 5
 1060 366 l 5
 1051 316 l 5
 690 316 l 5
 643 49 l 5
 1032 49 l 5
 1024 0 l 5
 584 0 l 5
 701 666 l 5
 1142 666 l 5
99 270 m 4
 99 503 239 676 426 676 c 4
 575 676 680 561 680 397 c 4
 680 157 551 -8 364 -8 c 4
 208 -8 99 106 99 270 c 4
643 392 m 4
 643 539 563 625 424 625 c 4
 267 625 153 474 153 267 c 4
 153 125 235 43 376 43 c 4
 535 43 643 184 643 392 c 4
EndSplineSet
EndChar

StartChar: oe
Encoding: 339 339 317
GlifName: oe
Width: 969
GlyphClass: 2
Flags: HW
LayerCount: 2
Fore
SplineSet
501 212 m 4
 501 381 601 522 759 522 c 4
 910 522 991 403 968 268 c 6
 963 238 l 5
 548 238 l 5
 557 287 l 5
 916 287 l 5
 933 396 867 471 763 471 c 4
 639 471 554 366 554 209 c 4
 554 100 615 42 728 42 c 4
 808 42 865 83 894 155 c 5
 953 155 l 5
 912 48 833 -9 726 -9 c 4
 587 -9 501 75 501 212 c 4
86 214 m 4
 86 389 198 522 345 522 c 4
 474 522 558 435 558 301 c 4
 558 126 445 -8 299 -8 c 4
 170 -8 86 79 86 214 c 4
505 303 m 4
 505 409 444 471 340 471 c 4
 232 471 140 365 140 212 c 4
 140 104 201 43 305 43 c 4
 411 43 505 150 505 303 c 4
EndSplineSet
EndChar

StartChar: Tbar
Encoding: 358 358 320
GlifName: T_bar
Width: 532
GlyphClass: 2
Flags: HW
LayerCount: 2
Fore
SplineSet
138 348 m 5
 519 348 l 5
 510 299 l 5
 130 299 l 5
 138 348 l 5
614 666 m 1
 605 616 l 1
 401 616 l 1
 292 0 l 1
 241 0 l 1
 349 616 l 1
 145 616 l 1
 153 666 l 1
 614 666 l 1
EndSplineSet
EndChar

StartChar: tbar
Encoding: 359 359 321
GlifName: tbar
Width: 319
GlyphClass: 2
Flags: HW
LayerCount: 2
Fore
SplineSet
90 307 m 5
 338 307 l 5
 329 258 l 5
 81 258 l 5
 90 307 l 5
126 512 m 1
 374 512 l 1
 365 463 l 1
 117 463 l 1
 126 512 l 1
292 49 m 1
 284 0 l 1
 241 0 l 2
 190 0 139 29 155 121 c 2
 248 645 l 1
 299 645 l 1
 208 127 l 2
 197 64 218 49 250 49 c 2
 292 49 l 1
EndSplineSet
Substitution2: "ss08StyleSet8inLatinlookup7 subtable" tbar.ss08
EndChar

StartChar: germandbls
Encoding: 223 223 322
GlifName: germandbls
Width: 558
GlyphClass: 2
Flags: HW
LayerCount: 2
Fore
SplineSet
409 674 m 0
 296 674 213 602 193 487 c 2
 108 0 l 1
 56 0 l 1
 143 494 l 2
 166 631 273 725 406 725 c 0
 517 725 599 651 599 550 c 0
 599 438 510 346 402 346 c 1
 389 387 l 1
 476 387 544 458 544 548 c 0
 544 623 489 674 409 674 c 0
440 387 m 1
 431 336 l 1
 309 336 l 1
 318 387 l 1
 440 387 l 1
387 377 m 1
 487 377 550 315 550 216 c 0
 550 95 450 0 321 0 c 2
 209 0 l 1
 218 51 l 1
 309 51 l 2
 421 51 496 124 496 233 c 0
 496 299 455 336 380 336 c 1
 387 377 l 1
EndSplineSet
EndChar

StartChar: uni1E9E
Encoding: 7838 7838 323
GlifName: uni1E_9E_
Width: 619
GlyphClass: 2
Flags: HW
LayerCount: 2
Fore
SplineSet
528 594 m 1
 467 614 403 628 325 628 c 0
 173 628 108 564 108 416 c 2
 108 0 l 1
 56 0 l 1
 56 422 l 2
 56 590 147 677 322 677 c 0
 401 677 467 662 528 640 c 1
 528 594 l 1
366 357 m 1
 513 352 573 284 573 185 c 0
 573 74 484 0 349 0 c 2
 278 0 l 1
 278 51 l 1
 342 51 l 2
 455 51 519 100 519 185 c 0
 519 264 459 309 353 309 c 2
 311 309 l 1
 311 360 l 1
 486 618 l 1
 528 594 l 1
 366 357 l 1
EndSplineSet
EndChar

StartChar: asciitilde
Encoding: 126 126 324
GlifName: asciitilde
Width: 437
GlyphClass: 2
Flags: HW
LayerCount: 2
Fore
SplineSet
226 512 m 4
 272 512 294 483 314 457 c 4
 332 433 347 410 378 410 c 4
 409 410 437 448 447 506 c 5
 491 506 l 5
 476 420 428 365 370 365 c 4
 323 365 301 390 281 414 c 4
 260 439 246 467 216 467 c 4
 184 467 157 428 147 369 c 5
 101 369 l 5
 117 458 164 512 226 512 c 4
EndSplineSet
EndChar

StartChar: exclamdown
Encoding: 161 161 325
GlifName: exclamdown
Width: 163
GlyphClass: 2
Flags: HW
LayerCount: 2
Fore
SplineSet
139 512 m 1
 205 512 l 1
 192 440 l 1
 127 440 l 1
 139 512 l 1
125 366 m 1
 168 366 l 1
 80 -154 l 1
 29 -154 l 1
 125 366 l 1
EndSplineSet
Substitution2: "ss03StyleSet3inLatinlookup2 subtable" exclamdown.ss03
EndChar

StartChar: questiondown
Encoding: 191 191 326
GlifName: questiondown
Width: 529
GlyphClass: 2
Flags: HW
LayerCount: 2
Fore
SplineSet
353 366 m 5
 334 261 265 212 204 164 c 4
 151 122 104 81 104 4 c 4
 104 -70 156 -111 249 -111 c 4
 343 -111 415 -51 436 42 c 5
 491 42 l 5
 462 -79 370 -162 247 -162 c 4
 124 -162 49 -100 49 -2 c 4
 49 106 113 156 178 205 c 4
 233 248 289 289 302 366 c 5
 353 366 l 5
322 512 m 5
 387 512 l 5
 374 440 l 5
 309 440 l 5
 322 512 l 5
EndSplineSet
Substitution2: "ss03StyleSet3inLatinlookup2 subtable" questiondown.ss03
EndChar

StartChar: endash
Encoding: 8211 8211 327
GlifName: endash
Width: 669
GlyphClass: 2
Flags: HW
LayerCount: 2
Fore
SplineSet
90 307 m 1
 688 307 l 5
 679 258 l 5
 81 258 l 1
 90 307 l 1
EndSplineSet
EndChar

StartChar: emdash
Encoding: 8212 8212 328
GlifName: emdash
Width: 1005
GlyphClass: 2
Flags: HW
LayerCount: 2
Fore
SplineSet
90 307 m 1
 1024 307 l 5
 1015 258 l 5
 81 258 l 1
 90 307 l 1
EndSplineSet
EndChar

StartChar: quoteleft
Encoding: 8216 8216 329
GlifName: quoteleft
Width: 163
GlyphClass: 2
Flags: HW
LayerCount: 2
Fore
SplineSet
198 512 m 5
 132 512 l 5
 145 584 l 5
 199 717 l 5
 241 717 l 5
 171 584 l 5
 210 584 l 5
 198 512 l 5
EndSplineSet
Substitution2: "ss03StyleSet3inLatinlookup2 subtable" quoteleft.ss03
EndChar

StartChar: quoteright
Encoding: 8217 8217 330
GlifName: quoteright
Width: 163
GlyphClass: 2
Flags: HW
LayerCount: 2
Fore
SplineSet
176 717 m 5
 241 717 l 5
 228 645 l 5
 174 512 l 5
 132 512 l 5
 203 645 l 5
 163 645 l 5
 176 717 l 5
EndSplineSet
Substitution2: "ss03StyleSet3inLatinlookup2 subtable" quoteright.ss03
EndChar

StartChar: quotedblleft
Encoding: 8220 8220 331
GlifName: quotedblleft
Width: 276
GlyphClass: 2
Flags: HW
LayerCount: 2
Fore
SplineSet
310 512 m 1
 245 512 l 1
 258 584 l 1
 312 717 l 1
 354 717 l 1
 283 584 l 1
 323 584 l 1
 310 512 l 1
198 512 m 1
 132 512 l 1
 145 584 l 1
 199 717 l 1
 241 717 l 1
 171 584 l 1
 210 584 l 1
 198 512 l 1
EndSplineSet
Substitution2: "ss03StyleSet3inLatinlookup2 subtable" quotedblleft.ss03
EndChar

StartChar: quotesinglbase
Encoding: 8218 8218 332
GlifName: quotesinglbase
Width: 163
GlyphClass: 2
Flags: HW
LayerCount: 2
Fore
SplineSet
62 72 m 5
 127 72 l 5
 115 0 l 5
 60 -133 l 5
 19 -133 l 5
 89 0 l 5
 49 0 l 5
 62 72 l 5
EndSplineSet
Substitution2: "ss03StyleSet3inLatinlookup2 subtable" quotesinglbase.ss03
EndChar

StartChar: quotereversed
Encoding: 8219 8219 333
GlifName: quotereversed
Width: 163
GlyphClass: 2
Flags: HW
LayerCount: 2
Fore
SplineSet
234 717 m 5
 221 645 l 5
 181 645 l 5
 205 512 l 5
 163 512 l 5
 156 645 l 5
 168 717 l 5
 234 717 l 5
EndSplineSet
Substitution2: "ss03StyleSet3inLatinlookup2 subtable" quotereversed.ss03
EndChar

StartChar: quotedblright
Encoding: 8221 8221 334
GlifName: quotedblright
Width: 276
GlyphClass: 2
Flags: HW
LayerCount: 2
Fore
SplineSet
176 717 m 5
 241 717 l 5
 228 645 l 5
 174 512 l 5
 132 512 l 5
 203 645 l 5
 163 645 l 5
 176 717 l 5
288 717 m 1
 354 717 l 1
 341 645 l 1
 287 512 l 1
 245 512 l 1
 315 645 l 1
 276 645 l 1
 288 717 l 1
EndSplineSet
Substitution2: "ss03StyleSet3inLatinlookup2 subtable" quotedblright.ss03
EndChar

StartChar: quotedblbase
Encoding: 8222 8222 335
GlifName: quotedblbase
Width: 276
GlyphClass: 2
Flags: HW
LayerCount: 2
Fore
SplineSet
62 72 m 5
 127 72 l 5
 115 0 l 5
 60 -133 l 5
 19 -133 l 5
 89 0 l 5
 49 0 l 5
 62 72 l 5
174 72 m 5
 240 72 l 5
 227 0 l 5
 173 -133 l 5
 131 -133 l 5
 202 0 l 5
 162 0 l 5
 174 72 l 5
EndSplineSet
Substitution2: "ss03StyleSet3inLatinlookup2 subtable" quotedblbase.ss03
EndChar

StartChar: uni201F
Encoding: 8223 8223 336
GlifName: uni201F_
Width: 276
GlyphClass: 2
Flags: HW
LayerCount: 2
Fore
SplineSet
347 717 m 5
 334 645 l 5
 294 645 l 5
 318 512 l 5
 276 512 l 5
 268 645 l 5
 281 717 l 5
 347 717 l 5
234 717 m 1
 221 645 l 1
 181 645 l 1
 205 512 l 1
 163 512 l 1
 156 645 l 1
 168 717 l 1
 234 717 l 1
EndSplineSet
Substitution2: "ss03StyleSet3inLatinlookup2 subtable" uni201F.ss03
EndChar

StartChar: dagger
Encoding: 8224 8224 337
GlifName: dagger
Width: 319
GlyphClass: 2
Flags: HW
LayerCount: 2
Fore
SplineSet
216 463 m 1
 117 463 l 1
 126 512 l 1
 224 512 l 1
 248 645 l 1
 299 645 l 1
 276 512 l 1
 374 512 l 1
 365 463 l 1
 267 463 l 1
 185 0 l 1
 134 0 l 1
 216 463 l 1
EndSplineSet
EndChar

StartChar: daggerdbl
Encoding: 8225 8225 338
GlifName: daggerdbl
Width: 319
GlyphClass: 2
Flags: HW
LayerCount: 2
Fore
SplineSet
276 512 m 1
 374 512 l 1
 365 463 l 1
 267 463 l 1
 217 182 l 1
 316 182 l 1
 307 133 l 1
 209 133 l 1
 185 0 l 1
 134 0 l 1
 158 133 l 1
 59 133 l 1
 68 182 l 1
 166 182 l 1
 216 463 l 1
 117 463 l 1
 126 512 l 1
 224 512 l 1
 248 645 l 1
 299 645 l 1
 276 512 l 1
EndSplineSet
EndChar

StartChar: bullet
Encoding: 8226 8226 339
GlifName: bullet
Width: 204
GlyphClass: 2
Flags: HW
LayerCount: 2
Fore
SplineSet
39 383 m 0
 39 418 67 446 102 446 c 0
 137 446 166 418 166 383 c 0
 166 348 137 319 102 319 c 4
 67 319 39 348 39 383 c 0
EndSplineSet
EndChar

StartChar: ellipsis
Encoding: 8230 8230 340
GlifName: ellipsis
Width: 491
GlyphClass: 2
Flags: HW
LayerCount: 2
Fore
SplineSet
389 72 m 1
 455 72 l 1
 442 0 l 1
 377 0 l 1
 389 72 l 1
226 72 m 1
 291 72 l 1
 279 0 l 1
 213 0 l 1
 226 72 l 1
62 72 m 1
 127 72 l 1
 115 0 l 1
 49 0 l 1
 62 72 l 1
EndSplineSet
Substitution2: "ss03StyleSet3inLatinlookup2 subtable" ellipsis.ss03
EndChar

StartChar: perthousand
Encoding: 8240 8240 341
GlifName: perthousand
Width: 1235
GlyphClass: 2
Flags: HW
LayerCount: 2
Fore
SplineSet
910 157 m 0
 910 294 992 399 1096 399 c 0
 1183 399 1239 335 1239 236 c 0
 1239 100 1157 -8 1054 -8 c 0
 967 -8 910 57 910 157 c 0
1186 237 m 0
 1186 308 1151 348 1092 348 c 0
 1019 348 965 267 965 156 c 0
 965 84 1000 43 1059 43 c 0
 1132 43 1186 126 1186 237 c 0
528 157 m 0
 528 294 610 399 714 399 c 0
 801 399 857 335 857 236 c 0
 857 100 775 -8 672 -8 c 0
 585 -8 528 57 528 157 c 0
804 237 m 0
 804 308 769 348 710 348 c 0
 637 348 583 267 583 156 c 0
 583 84 618 43 677 43 c 0
 750 43 804 126 804 237 c 0
653 666 m 1
 711 666 l 1
 319 0 l 1
 262 0 l 1
 653 666 l 1
113 432 m 0
 113 569 194 675 298 675 c 0
 385 675 441 610 441 511 c 0
 441 375 359 267 256 267 c 0
 169 267 113 332 113 432 c 0
388 512 m 0
 388 583 353 624 294 624 c 0
 221 624 167 542 167 431 c 0
 167 359 202 318 261 318 c 0
 334 318 388 401 388 512 c 0
EndSplineSet
EndChar

StartChar: minute
Encoding: 8242 8242 342
GlifName: minute
Width: 230
GlyphClass: 2
Flags: HW
LayerCount: 2
Fore
SplineSet
322 666 m 5
 160 512 l 5
 116 512 l 5
 258 666 l 5
 322 666 l 5
EndSplineSet
EndChar

StartChar: second
Encoding: 8243 8243 343
GlifName: second
Width: 361
GlyphClass: 2
Flags: HW
LayerCount: 2
Fore
SplineSet
453 666 m 1
 291 512 l 1
 247 512 l 1
 389 666 l 1
 453 666 l 1
322 666 m 1
 160 512 l 1
 116 512 l 1
 258 666 l 1
 322 666 l 1
EndSplineSet
EndChar

StartChar: uni2034
Encoding: 8244 8244 344
GlifName: uni2034
Width: 492
GlyphClass: 2
Flags: HW
LayerCount: 2
Fore
SplineSet
322 666 m 1
 160 512 l 1
 116 512 l 1
 258 666 l 1
 322 666 l 1
584 666 m 1
 422 512 l 1
 378 512 l 1
 520 666 l 1
 584 666 l 1
453 666 m 1
 291 512 l 1
 247 512 l 1
 389 666 l 1
 453 666 l 1
EndSplineSet
EndChar

StartChar: uni2035
Encoding: 8245 8245 345
GlifName: uni2035
Width: 230
GlyphClass: 2
Flags: HW
LayerCount: 2
Fore
SplineSet
143 666 m 5
 207 666 l 5
 295 512 l 5
 251 512 l 5
 143 666 l 5
EndSplineSet
EndChar

StartChar: uni2036
Encoding: 8246 8246 346
GlifName: uni2036
Width: 361
GlyphClass: 2
Flags: HW
LayerCount: 2
Fore
SplineSet
143 666 m 1
 207 666 l 1
 295 512 l 1
 251 512 l 1
 143 666 l 1
274 666 m 1
 339 666 l 1
 426 512 l 1
 382 512 l 1
 274 666 l 1
EndSplineSet
EndChar

StartChar: uni2037
Encoding: 8247 8247 347
GlifName: uni2037
Width: 492
GlyphClass: 2
Flags: HW
LayerCount: 2
Fore
SplineSet
405 666 m 1
 470 666 l 1
 557 512 l 1
 513 512 l 1
 405 666 l 1
143 666 m 1
 207 666 l 1
 295 512 l 1
 251 512 l 1
 143 666 l 1
274 666 m 1
 339 666 l 1
 426 512 l 1
 382 512 l 1
 274 666 l 1
EndSplineSet
EndChar

StartChar: uni031B
Encoding: 795 795 348
GlifName: uni031B_
Width: 307
GlyphClass: 4
Flags: HW
AnchorPoint: "top3" 177 561 mark 0
LayerCount: 2
Fore
SplineSet
177 561 m 1
 240 561 l 2
 281 561 314 576 325 639 c 2
 330 666 l 1
 381 666 l 1
 375 633 l 2
 359 541 295 512 242 512 c 2
 177 512 l 5
 177 561 l 1
EndSplineSet
EndChar

StartChar: Ohorn
Encoding: 416 416 349
GlifName: O_horn
Width: 680
GlyphClass: 2
Flags: HW
AnchorPoint: "top1" 433 717 basechar 0
AnchorPoint: "bottom1" 335 0 basechar 0
LayerCount: 2
Fore
SplineSet
99 270 m 0
 99 496 246 676 431 676 c 0
 592 676 696 562 696 387 c 0
 696 160 557 -8 369 -8 c 0
 205 -8 99 101 99 270 c 0
643 392 m 0
 643 539 562 625 424 625 c 0
 267 625 153 474 153 267 c 0
 153 126 235 43 376 43 c 0
 535 43 643 184 643 392 c 0
507 666 m 1
 631 666 l 2
 672 666 705 680 716 743 c 2
 721 770 l 1
 772 770 l 1
 766 737 l 2
 750 645 686 616 633 616 c 2
 498 616 l 1
 507 666 l 1
EndSplineSet
EndChar

StartChar: ohorn
Encoding: 417 417 350
GlifName: ohorn
Width: 558
GlyphClass: 2
Flags: HW
AnchorPoint: "top1" 346 573 basechar 0
AnchorPoint: "bottom1" 246 0 basechar 0
LayerCount: 2
Fore
SplineSet
86 214 m 0
 86 389 198 522 345 522 c 0
 474 522 558 435 558 301 c 0
 558 126 445 -8 299 -8 c 0
 170 -8 86 79 86 214 c 0
505 303 m 0
 505 409 444 471 340 471 c 0
 232 471 140 365 140 212 c 0
 140 104 201 43 305 43 c 0
 411 43 505 150 505 303 c 0
417 512 m 1
 500 512 l 2
 541 512 574 527 585 590 c 2
 590 616 l 1
 641 616 l 1
 635 584 l 2
 619 492 555 463 502 463 c 2
 408 463 l 1
 417 512 l 1
EndSplineSet
EndChar

StartChar: hookabovecomb
Encoding: 777 777 353
GlifName: hookabovecomb
Width: 307
GlyphClass: 4
Flags: HW
AnchorPoint: "top1" 250 512 mark 0
LayerCount: 2
Fore
SplineSet
219 512 m 1
 224 538 238 554 285 588 c 0
 313 608 322 620 325 636 c 0
 329 658 314 672 286 672 c 0
 256 672 232 656 220 628 c 1
 171 628 l 1
 192 681 236 712 288 712 c 0
 348 712 381 681 372 633 c 0
 367 603 356 588 318 561 c 4
 288 543 278 532 274 512 c 1
 219 512 l 1
EndSplineSet
EndChar

StartChar: dotbelowcomb
Encoding: 803 803 354
GlifName: dotbelowcomb
Width: 307
GlyphClass: 4
Flags: HW
AnchorPoint: "bottom1" 154 0 mark 0
LayerCount: 2
Fore
SplineSet
109 -75 m 1
 174 -75 l 1
 162 -146 l 1
 96 -146 l 1
 109 -75 l 1
EndSplineSet
Substitution2: "ss03StyleSet3inLatinlookup2 subtable" dotbelowcomb.ss03
EndChar

StartChar: exclamdown.ss03
Encoding: 65553 -1 445
GlifName: exclamdown.ss03
Width: 163
GlyphClass: 2
Flags: HW
LayerCount: 2
Fore
SplineSet
207 479 m 0
 207 455 188 436 164 436 c 0
 140 436 121 455 121 479 c 0
 121 503 140 522 164 522 c 0
 188 522 207 503 207 479 c 0
125 368 m 1
 168 368 l 1
 80 -152 l 1
 29 -152 l 1
 125 368 l 1
EndSplineSet
EndChar

StartChar: periodcentered.ss03
Encoding: 65554 -1 446
GlifName: periodcentered.ss03
Width: 163
GlyphClass: 2
Flags: HW
LayerCount: 2
Fore
SplineSet
39 327 m 0
 39 351 58 370 82 370 c 0
 106 370 125 351 125 327 c 0
 125 303 106 284 82 284 c 0
 58 284 39 303 39 327 c 0
EndSplineSet
EndChar

StartChar: questiondown.ss03
Encoding: 65555 -1 447
GlifName: questiondown.ss03
Width: 529
GlyphClass: 2
Flags: HW
LayerCount: 2
Fore
SplineSet
386 480 m 4
 386 456 367 437 343 437 c 4
 319 437 300 456 300 480 c 4
 300 504 319 523 343 523 c 4
 367 523 386 504 386 480 c 4
354 369 m 5
 335 264 266 215 205 167 c 4
 152 125 105 84 105 7 c 4
 105 -67 157 -108 250 -108 c 4
 344 -108 416 -48 437 45 c 5
 492 45 l 5
 463 -76 371 -159 248 -159 c 4
 125 -159 50 -97 50 1 c 4
 50 109 115 158 179 208 c 4
 234 251 290 292 303 369 c 5
 354 369 l 5
EndSplineSet
EndChar

StartChar: divide.ss03
Encoding: 65556 -1 448
GlifName: divide.ss03
Width: 473
GlyphClass: 2
Flags: HW
LayerCount: 2
Fore
SplineSet
286 486 m 0
 286 510 305 529 329 529 c 0
 353 529 372 510 372 486 c 0
 372 462 353 443 329 443 c 0
 305 443 286 462 286 486 c 0
212 63 m 0
 212 87 231 106 255 106 c 0
 279 106 298 87 298 63 c 0
 298 39 279 20 255 20 c 0
 231 20 212 39 212 63 c 0
90 307 m 1
 491 307 l 1
 483 258 l 1
 81 258 l 1
 90 307 l 1
EndSplineSet
Substitution2: "tnumTabularNumbersinLatinlookup11 subtable" divide.ss03.tabl
EndChar

StartChar: uni0307.ss03
Encoding: 65557 -1 449
GlifName: uni0307.ss03
Width: 307
GlyphClass: 4
Flags: HW
AnchorPoint: "top1" 160 512 mark 0
LayerCount: 2
Fore
SplineSet
116 549 m 4
 116 573 135 592 159 592 c 4
 183 592 202 573 202 549 c 4
 202 525 183 506 159 506 c 4
 135 506 116 525 116 549 c 4
EndSplineSet
EndChar

StartChar: uni0308.ss03
Encoding: 65558 -1 450
GlifName: uni0308.ss03
Width: 307
GlyphClass: 4
Flags: HW
AnchorPoint: "top1" 160 512 mark 0
LayerCount: 2
Fore
SplineSet
9 549 m 0
 9 573 28 592 52 592 c 0
 76 592 95 573 95 549 c 0
 95 525 76 506 52 506 c 0
 28 506 9 525 9 549 c 0
211 549 m 0
 211 573 230 592 254 592 c 0
 278 592 297 573 297 549 c 0
 297 525 278 506 254 506 c 0
 230 506 211 525 211 549 c 0
EndSplineSet
EndChar

StartChar: uni0312.ss03
Encoding: 65559 -1 451
GlifName: uni0312.ss03
Width: 307
GlyphClass: 4
Flags: HW
AnchorPoint: "top1" 160 512 mark 0
LayerCount: 2
Fore
SplineSet
213 555 m 4
 213 531 194 512 170 512 c 4
 146 512 127 531 127 555 c 6
 127 607 l 6
 127 675 165 697 199 697 c 6
 211 697 l 5
 211 673 l 5
 200 673 l 6
 170 673 147 660 147 601 c 6
 147 592 l 5
 153 596 162 598 170 598 c 4
 194 598 213 579 213 555 c 4
EndSplineSet
EndChar

StartChar: uni0313.ss03
Encoding: 65560 -1 452
GlifName: uni0313.ss03
Width: 307
GlyphClass: 4
Flags: HW
AnchorPoint: "top1" 160 512 mark 0
LayerCount: 2
Fore
SplineSet
127 654 m 4
 127 678 146 697 170 697 c 4
 194 697 213 678 213 654 c 6
 213 602 l 6
 213 534 175 512 141 512 c 6
 129 512 l 5
 129 537 l 5
 140 537 l 6
 170 537 193 549 193 608 c 6
 193 617 l 5
 187 613 178 611 170 611 c 4
 146 611 127 630 127 654 c 4
EndSplineSet
EndChar

StartChar: dotbelowcomb.ss03
Encoding: 65561 -1 453
GlifName: dotbelowcomb.ss03
Width: 307
GlyphClass: 4
Flags: HW
AnchorPoint: "bottom1" 154 0 mark 0
LayerCount: 2
Fore
SplineSet
86 -111 m 4
 86 -87 105 -68 129 -68 c 4
 153 -68 172 -87 172 -111 c 4
 172 -135 153 -154 129 -154 c 4
 105 -154 86 -135 86 -111 c 4
EndSplineSet
EndChar

StartChar: uni0326.ss03
Encoding: 65562 -1 454
GlifName: uni0326.ss03
Width: 307
GlyphClass: 4
Flags: HW
AnchorPoint: "bottom1" 164 0 mark 0
LayerCount: 2
Fore
SplineSet
121 -82 m 0
 121 -58 140 -39 164 -39 c 0
 188 -39 207 -58 207 -82 c 2
 207 -134 l 2
 207 -202 169 -224 135 -224 c 2
 123 -224 l 1
 123 -200 l 1
 134 -200 l 2
 164 -200 186 -187 186 -128 c 2
 186 -119 l 1
 180 -123 172 -125 164 -125 c 0
 140 -125 121 -106 121 -82 c 0
EndSplineSet
EndChar

StartChar: ellipsis.ss03
Encoding: 65563 -1 455
GlifName: ellipsis.ss03
Width: 491
GlyphClass: 2
Flags: HW
LayerCount: 2
Fore
SplineSet
373 35 m 4
 373 59 392 78 416 78 c 4
 440 78 459 59 459 35 c 4
 459 11 440 -8 416 -8 c 4
 392 -8 373 11 373 35 c 4
209 35 m 4
 209 59 228 78 252 78 c 4
 276 78 295 59 295 35 c 4
 295 11 276 -8 252 -8 c 4
 228 -8 209 11 209 35 c 4
45 35 m 4
 45 59 64 78 88 78 c 4
 112 78 131 59 131 35 c 4
 131 11 112 -8 88 -8 c 4
 64 -8 45 11 45 35 c 4
EndSplineSet
EndChar

StartChar: quoteleft.ss03
Encoding: 65564 -1 456
GlifName: quoteleft.ss03
Width: 163
GlyphClass: 2
Flags: HW
LayerCount: 2
Fore
SplineSet
217 543 m 4
 213 522 193 505 172 505 c 0
 145 505 126 524 131 548 c 2
 141 600 l 2
 157 688 204 717 243 717 c 2
 255 717 l 1
 249 682 l 1
 238 682 l 2
 206 682 179 666 167 596 c 2
 165 587 l 1
 170 590 176 591 182 591 c 0
 206 591 221 569 217 543 c 4
EndSplineSet
EndChar

StartChar: quoteright.ss03
Encoding: 65565 -1 457
GlifName: quoteright.ss03
Width: 163
GlyphClass: 2
Flags: HW
LayerCount: 2
Fore
SplineSet
162 674 m 4
 166 698 188 717 212 717 c 4
 236 717 252 698 248 674 c 6
 239 622 l 6
 223 534 175 505 136 505 c 6
 124 505 l 5
 130 540 l 5
 141 540 l 6
 173 540 201 556 213 626 c 6
 214 635 l 5
 209 632 203 631 197 631 c 4
 173 631 158 650 162 674 c 4
EndSplineSet
EndChar

StartChar: quotesinglbase.ss03
Encoding: 65566 -1 458
GlifName: quotesinglbase.ss03
Width: 163
GlyphClass: 2
Flags: HW
LayerCount: 2
Fore
SplineSet
51 43 m 0
 55 67 77 86 101 86 c 0
 125 86 141 67 137 43 c 2
 127 -9 l 2
 111 -97 64 -126 25 -126 c 2
 13 -126 l 1
 19 -91 l 1
 30 -91 l 2
 62 -91 89 -75 101 -5 c 2
 103 4 l 1
 98 1 92 0 86 0 c 0
 62 0 47 19 51 43 c 0
EndSplineSet
EndChar

StartChar: quotereversed.ss03
Encoding: 65567 -1 459
GlifName: quotereversed.ss03
Width: 163
GlyphClass: 2
Flags: HW
LayerCount: 2
Fore
SplineSet
240 674 m 4
 236 650 213 631 189 631 c 4
 183 631 177 632 173 635 c 5
 172 626 l 6
 160 556 181 540 213 540 c 6
 224 540 l 5
 218 505 l 5
 206 505 l 6
 167 505 128 534 144 622 c 6
 154 674 l 6
 158 698 180 717 204 717 c 4
 228 717 244 698 240 674 c 4
EndSplineSet
EndChar

StartChar: quotedblleft.ss03
Encoding: 65568 -1 460
GlifName: quotedblleft.ss03
Width: 276
GlyphClass: 2
Flags: HW
LayerCount: 2
Fore
SplineSet
330 548 m 4
 326 524 303 505 279 505 c 4
 255 505 240 524 244 548 c 6
 253 600 l 6
 269 688 317 717 356 717 c 6
 368 717 l 5
 362 682 l 5
 351 682 l 6
 319 682 291 666 279 596 c 6
 278 587 l 5
 283 590 289 591 295 591 c 4
 319 591 334 572 330 548 c 4
217 548 m 4
 213 524 191 505 167 505 c 4
 143 505 127 524 131 548 c 6
 141 600 l 6
 157 688 204 717 243 717 c 6
 255 717 l 5
 249 682 l 5
 238 682 l 6
 206 682 179 666 167 596 c 6
 165 587 l 5
 170 590 176 591 182 591 c 4
 206 591 221 572 217 548 c 4
EndSplineSet
EndChar

StartChar: quotedblright.ss03
Encoding: 65569 -1 461
GlifName: quotedblright.ss03
Width: 276
GlyphClass: 2
Flags: HW
LayerCount: 2
Fore
SplineSet
162 674 m 4
 166 698 188 717 212 717 c 4
 236 717 252 698 248 674 c 6
 239 622 l 6
 223 534 175 505 136 505 c 6
 124 505 l 5
 130 540 l 5
 141 540 l 6
 173 540 201 556 213 626 c 6
 214 635 l 5
 209 632 203 631 197 631 c 4
 173 631 158 650 162 674 c 4
274 674 m 4
 278 698 301 717 325 717 c 4
 349 717 364 698 360 674 c 6
 351 622 l 6
 335 534 288 505 249 505 c 6
 236 505 l 5
 243 540 l 5
 254 540 l 6
 286 540 313 556 325 626 c 6
 327 635 l 5
 322 632 316 631 310 631 c 4
 286 631 270 650 274 674 c 4
EndSplineSet
EndChar

StartChar: quotedblbase.ss03
Encoding: 65570 -1 462
GlifName: quotedblbase.ss03
Width: 276
GlyphClass: 2
Flags: HW
LayerCount: 2
Fore
SplineSet
51 43 m 4
 55 67 77 86 101 86 c 4
 125 86 141 67 137 43 c 6
 127 -9 l 6
 111 -97 64 -126 25 -126 c 6
 13 -126 l 5
 19 -91 l 5
 30 -91 l 6
 62 -91 89 -75 101 -5 c 6
 103 4 l 5
 98 1 92 0 86 0 c 4
 62 0 47 19 51 43 c 4
163 43 m 4
 167 67 190 86 214 86 c 4
 238 86 253 67 249 43 c 6
 240 -9 l 6
 224 -97 177 -126 138 -126 c 6
 125 -126 l 5
 131 -91 l 5
 143 -91 l 6
 175 -91 202 -75 214 -5 c 6
 216 4 l 5
 211 1 205 0 199 0 c 4
 175 0 159 19 163 43 c 4
EndSplineSet
EndChar

StartChar: uni201F.ss03
Encoding: 65571 -1 463
GlifName: uni201F_.ss03
Width: 276
GlyphClass: 2
Flags: HW
LayerCount: 2
Fore
SplineSet
352 674 m 4
 348 650 326 631 302 631 c 4
 296 631 290 632 286 635 c 5
 284 626 l 6
 272 556 294 540 326 540 c 6
 337 540 l 5
 331 505 l 5
 318 505 l 6
 279 505 241 534 257 622 c 6
 266 674 l 6
 270 698 293 717 317 717 c 4
 341 717 356 698 352 674 c 4
240 674 m 4
 236 650 213 631 189 631 c 4
 183 631 177 632 173 635 c 5
 172 626 l 6
 160 556 181 540 213 540 c 6
 224 540 l 5
 218 505 l 5
 206 505 l 6
 167 505 128 534 144 622 c 6
 154 674 l 6
 158 698 180 717 204 717 c 4
 228 717 244 698 240 674 c 4
EndSplineSet
EndChar

StartChar: ldot.ss02
Encoding: 65595 -1 487
GlifName: ldot.ss02
Width: 309
GlyphClass: 2
Flags: HW
LayerCount: 2
Fore
SplineSet
240 362 m 1
 305 362 l 1
 293 291 l 1
 227 291 l 1
 240 362 l 1
EndSplineSet
Refer: 74 -1 N 1 0 0 1 0 0 2
Substitution2: "ss03StyleSet3inLatinlookup2 subtable" ldot.ss02.ss03
EndChar

StartChar: lslash.ss02
Encoding: 65596 -1 488
GlifName: lslash.ss02
Width: 233
GlyphClass: 2
Flags: HW
LayerCount: 2
Fore
SplineSet
230 49 m 1
 221 0 l 1
 209 0 l 2
 151 0 92 29 108 121 c 2
 213 717 l 1
 265 717 l 1
 161 127 l 2
 150 64 179 49 219 49 c 2
 230 49 l 1
63 359 m 1
 305 404 l 1
 296 355 l 1
 55 310 l 1
 63 359 l 1
EndSplineSet
EndChar

StartChar: dotlessi.ss03
Encoding: 65647 -1 539
GlifName: dotlessi.ss03
Width: 163
GlyphClass: 2
Flags: HW
AnchorPoint: "top1" 82 573 basechar 0
AnchorPoint: "bottom1" 83 0 basechar 0
LayerCount: 2
Fore
SplineSet
56 512 m 5
 108 512 l 5
 108 0 l 5
 56 0 l 5
 56 512 l 5
EndSplineSet
EndChar

StartChar: adieresis.ss01.ss03
Encoding: 65657 -1 549
GlifName: adieresis.ss01.ss03
Width: 565
GlyphClass: 2
Flags: HW
LayerCount: 2
Fore
SplineSet
237 609 m 4
 237 633 256 652 280 652 c 4
 304 652 323 633 323 609 c 4
 323 585 304 566 280 566 c 4
 256 566 237 585 237 609 c 4
438 609 m 4
 438 633 457 652 481 652 c 4
 505 652 524 633 524 609 c 4
 524 585 505 566 481 566 c 4
 457 566 438 585 438 609 c 4
EndSplineSet
Refer: 73 -1 N 1 0 0 1 0 0 3
Decomposition: "a+AwgA"
EndChar

StartChar: uni1EA1.ss01.ss03
Encoding: 65658 -1 550
GlifName: uni1E_A_1.ss01.ss03
Width: 565
GlyphClass: 2
Flags: HW
AnchorPoint: "top1" 400 573 basechar 0
LayerCount: 2
Fore
SplineSet
237 -111 m 0
 237 -87 256 -68 280 -68 c 0
 304 -68 323 -87 323 -111 c 0
 323 -135 304 -154 280 -154 c 0
 256 -154 237 -135 237 -111 c 0
EndSplineSet
Refer: 73 -1 N 1 0 0 1 0 0 3
Decomposition: "a+AyMA"
EndChar

StartChar: ldot.ss02.ss03
Encoding: 65661 -1 553
GlifName: ldot.ss02.ss03
Width: 348
GlyphClass: 2
Flags: HW
LayerCount: 2
Fore
SplineSet
271 327 m 0
 275 351 297 370 321 370 c 0
 345 370 361 351 357 327 c 0
 353 303 330 284 306 284 c 0
 282 284 267 303 271 327 c 0
199 49 m 1
 190 0 l 1
 178 0 l 2
 120 0 62 29 78 121 c 2
 183 717 l 1
 234 717 l 1
 130 127 l 2
 119 64 148 49 188 49 c 2
 199 49 l 1
EndSplineSet
EndChar

StartChar: tbar.ss08
Encoding: 65679 -1 571
GlifName: tbar.ss08
Width: 319
GlyphClass: 2
Flags: HW
LayerCount: 2
Fore
SplineSet
90 307 m 1
 338 307 l 1
 329 258 l 1
 81 258 l 1
 90 307 l 1
126 512 m 1
 374 512 l 1
 365 463 l 1
 117 463 l 1
 126 512 l 1
134 0 m 1
 248 645 l 1
 299 645 l 1
 185 0 l 1
 134 0 l 1
EndSplineSet
EndChar

StartChar: Gdotaccent.ss04.ss03
Encoding: 65698 -1 590
GlifName: G_dotaccent.ss04.ss03
Width: 662
GlyphClass: 2
Flags: HW
LayerCount: 2
Fore
SplineSet
419 753 m 4
 419 777 438 796 462 796 c 4
 486 796 505 777 505 753 c 4
 505 729 486 710 462 710 c 4
 438 710 419 729 419 753 c 4
EndSplineSet
Refer: 77 -1 N 1 0 0 1 0 0 3
EndChar

StartChar: uni0122.ss04.ss03
Encoding: 65699 -1 591
GlifName: uni0122.ss04.ss03
Width: 662
GlyphClass: 2
Flags: HW
LayerCount: 2
Fore
SplineSet
305 -82 m 4
 305 -58 324 -39 348 -39 c 4
 372 -39 391 -58 391 -82 c 6
 391 -134 l 6
 391 -202 353 -224 319 -224 c 6
 307 -224 l 5
 307 -200 l 5
 318 -200 l 6
 348 -200 371 -187 371 -128 c 6
 371 -119 l 5
 365 -123 356 -125 348 -125 c 4
 324 -125 305 -106 305 -82 c 4
EndSplineSet
Refer: 77 -1 N 1 0 0 1 0 0 3
EndChar

StartChar: uni0156.ss05.ss03
Encoding: 65700 -1 592
GlifName: uni0156.ss05.ss03
Width: 572
GlyphClass: 2
Flags: HW
LayerCount: 2
Fore
SplineSet
257 -82 m 0
 257 -58 276 -39 300 -39 c 0
 324 -39 343 -58 343 -82 c 2
 343 -134 l 2
 343 -202 305 -224 271 -224 c 2
 259 -224 l 1
 259 -200 l 1
 270 -200 l 2
 300 -200 323 -187 323 -128 c 2
 323 -119 l 1
 317 -123 308 -125 300 -125 c 0
 276 -125 257 -106 257 -82 c 0
EndSplineSet
Refer: 78 -1 N 1 0 0 1 0 0 3
EndChar

StartChar: ydieresis.ss07.ss03
Encoding: 65701 -1 593
GlifName: ydieresis.ss07.ss03
Width: 543
GlyphClass: 2
Flags: HW
LayerCount: 2
Fore
SplineSet
214 609 m 4
 214 633 233 652 257 652 c 4
 281 652 300 633 300 609 c 4
 300 585 281 566 257 566 c 4
 233 566 214 585 214 609 c 4
416 609 m 4
 416 633 435 652 459 652 c 4
 483 652 502 633 502 609 c 4
 502 585 483 566 459 566 c 4
 435 566 416 585 416 609 c 4
EndSplineSet
Refer: 80 -1 N 1 0 0 1 0 0 3
EndChar

StartChar: uni1EF5.ss07.ss03
Encoding: 65702 -1 594
GlifName: uni1E_F_5.ss07.ss03
Width: 543
GlyphClass: 2
Flags: HW
LayerCount: 2
Fore
SplineSet
330 -111 m 4
 330 -87 349 -68 373 -68 c 4
 397 -68 416 -87 416 -111 c 4
 416 -135 397 -154 373 -154 c 4
 349 -154 330 -135 330 -111 c 4
EndSplineSet
Refer: 80 -1 N 1 0 0 1 0 0 3
EndChar

StartChar: udieresis.ss10.ss03
Encoding: 65703 -1 595
GlifName: udieresis.ss10.ss03
Width: 514
GlyphClass: 2
Flags: HW
LayerCount: 2
Fore
SplineSet
204 609 m 4
 204 633 223 652 247 652 c 4
 271 652 290 633 290 609 c 4
 290 585 271 566 247 566 c 4
 223 566 204 585 204 609 c 4
406 609 m 4
 406 633 425 652 449 652 c 4
 473 652 492 633 492 609 c 4
 492 585 473 566 449 566 c 4
 425 566 406 585 406 609 c 4
EndSplineSet
Refer: 105 -1 N 1 0 0 1 0 0 3
EndChar

StartChar: uni1EE5.ss10.ss03
Encoding: 65704 -1 596
GlifName: uni1E_E_5.ss10.ss03
Width: 514
GlyphClass: 2
Flags: HW
LayerCount: 2
Fore
SplineSet
215 -111 m 4
 215 -87 234 -68 258 -68 c 4
 282 -68 301 -87 301 -111 c 4
 301 -135 282 -154 258 -154 c 4
 234 -154 215 -135 215 -111 c 4
EndSplineSet
Refer: 105 -1 N 1 0 0 1 0 0 3
EndChar

StartChar: uni1EF1.ss10.ss03
Encoding: 65705 -1 597
GlifName: uni1E_F_1.ss10.ss03
Width: 571
GlyphClass: 2
Flags: HW
LayerCount: 2
Fore
SplineSet
215 -111 m 0
 215 -87 234 -68 258 -68 c 0
 282 -68 301 -87 301 -111 c 0
 301 -135 282 -154 258 -154 c 0
 234 -154 215 -135 215 -111 c 0
EndSplineSet
Refer: 582 -1 N 1 0 0 1 0 0 3
EndChar

StartChar: Gdotaccent.ss03.ss04
Encoding: 65706 -1 598
GlifName: G_dotaccent.ss03.ss04
Width: 662
GlyphClass: 2
Flags: HW
LayerCount: 2
Fore
SplineSet
419 753 m 4
 419 777 438 796 462 796 c 4
 486 796 505 777 505 753 c 4
 505 729 486 710 462 710 c 4
 438 710 419 729 419 753 c 4
EndSplineSet
Refer: 77 -1 N 1 0 0 1 0 0 3
Decomposition: "G+AwcA"
EndChar

StartChar: uni0122.ss03.ss04
Encoding: 65707 -1 599
GlifName: uni0122.ss03.ss04
Width: 662
GlyphClass: 2
Flags: HW
LayerCount: 2
Fore
SplineSet
305 -82 m 4
 305 -58 324 -39 348 -39 c 4
 372 -39 391 -58 391 -82 c 6
 391 -134 l 6
 391 -202 353 -224 319 -224 c 6
 307 -224 l 5
 307 -200 l 5
 318 -200 l 6
 348 -200 371 -187 371 -128 c 6
 371 -119 l 5
 365 -123 356 -125 348 -125 c 4
 324 -125 305 -106 305 -82 c 4
EndSplineSet
Refer: 77 -1 N 1 0 0 1 0 0 3
EndChar

StartChar: uni0156.ss03.ss05
Encoding: 65708 -1 600
GlifName: uni0156.ss03.ss05
Width: 572
GlyphClass: 2
Flags: HW
LayerCount: 2
Fore
SplineSet
257 -82 m 0
 257 -58 276 -39 300 -39 c 0
 324 -39 343 -58 343 -82 c 2
 343 -134 l 2
 343 -202 305 -224 271 -224 c 2
 259 -224 l 1
 259 -200 l 1
 270 -200 l 2
 300 -200 323 -187 323 -128 c 2
 323 -119 l 1
 317 -123 308 -125 300 -125 c 0
 276 -125 257 -106 257 -82 c 0
EndSplineSet
Refer: 78 -1 N 1 0 0 1 0 0 3
EndChar

StartChar: uni1EF5.ss03.ss07
Encoding: 65709 -1 601
GlifName: uni1E_F_5.ss03.ss07
Width: 543
GlyphClass: 2
Flags: HW
LayerCount: 2
Fore
SplineSet
330 -111 m 4
 330 -87 349 -68 373 -68 c 4
 397 -68 416 -87 416 -111 c 4
 416 -135 397 -154 373 -154 c 4
 349 -154 330 -135 330 -111 c 4
EndSplineSet
Refer: 80 -1 N 1 0 0 1 0 0 3
EndChar

StartChar: ydieresis.ss03.ss07
Encoding: 65710 -1 602
GlifName: ydieresis.ss03.ss07
Width: 543
GlyphClass: 2
Flags: HW
LayerCount: 2
Fore
SplineSet
214 609 m 4
 214 633 233 652 257 652 c 4
 281 652 300 633 300 609 c 4
 300 585 281 566 257 566 c 4
 233 566 214 585 214 609 c 4
416 609 m 4
 416 633 435 652 459 652 c 4
 483 652 502 633 502 609 c 4
 502 585 483 566 459 566 c 4
 435 566 416 585 416 609 c 4
EndSplineSet
Refer: 80 -1 N 1 0 0 1 0 0 3
EndChar

StartChar: udieresis.ss03.ss10
Encoding: 65711 -1 603
GlifName: udieresis.ss03.ss10
Width: 514
GlyphClass: 2
Flags: HW
LayerCount: 2
Fore
SplineSet
204 609 m 4
 204 633 223 652 247 652 c 4
 271 652 290 633 290 609 c 4
 290 585 271 566 247 566 c 4
 223 566 204 585 204 609 c 4
406 609 m 4
 406 633 425 652 449 652 c 4
 473 652 492 633 492 609 c 4
 492 585 473 566 449 566 c 4
 425 566 406 585 406 609 c 4
EndSplineSet
Refer: 105 -1 N 1 0 0 1 0 0 3
EndChar

StartChar: uni1EE5.ss03.ss10
Encoding: 65712 -1 604
GlifName: uni1E_E_5.ss03.ss10
Width: 514
GlyphClass: 2
Flags: HW
LayerCount: 2
Fore
SplineSet
215 -111 m 0
 215 -87 234 -68 258 -68 c 0
 282 -68 301 -87 301 -111 c 0
 301 -135 282 -154 258 -154 c 0
 234 -154 215 -135 215 -111 c 0
EndSplineSet
Refer: 105 -1 N 1 0 0 1 0 0 3
EndChar

StartChar: uni1EF1.ss03.ss10
Encoding: 65713 -1 605
GlifName: uni1E_F_1.ss03.ss10
Width: 571
GlyphClass: 2
Flags: HW
LayerCount: 2
Fore
SplineSet
215 -111 m 0
 215 -87 234 -68 258 -68 c 0
 282 -68 301 -87 301 -111 c 0
 301 -135 282 -154 258 -154 c 0
 234 -154 215 -135 215 -111 c 0
EndSplineSet
Refer: 582 -1 N 1 0 0 1 0 0 3
EndChar

StartChar: zero.slsh
Encoding: 65714 -1 606
GlifName: zero.slsh
Width: 558
GlyphClass: 2
Flags: HW
LayerCount: 2
Fore
SplineSet
529 570 m 1
 560 529 l 1
 148 103 l 1
 117 144 l 5
 529 570 l 1
94 237 m 0
 94 483 218 676 376 676 c 0
 503 676 577 584 577 423 c 0
 577 174 459 -8 299 -8 c 0
 169 -8 94 81 94 237 c 0
523 431 m 0
 523 559 472 625 371 625 c 0
 244 625 147 454 147 230 c 0
 147 107 201 43 304 43 c 0
 432 43 523 204 523 431 c 0
EndSplineSet
Substitution2: "tnumTabularNumbersinLatinlookup11 subtable" zero.slsh.tabl
EndChar

StartChar: zero.tabl
Encoding: 65715 -1 607
GlifName: zero.tabl
Width: 558
GlyphClass: 2
Flags: HW
LayerCount: 2
Fore
SplineSet
94 237 m 4
 94 483 218 676 376 676 c 4
 503 676 577 584 577 423 c 4
 577 174 459 -8 299 -8 c 4
 169 -8 94 81 94 237 c 4
523 431 m 4
 523 559 472 625 371 625 c 4
 244 625 147 454 147 230 c 4
 147 107 201 43 304 43 c 4
 432 43 523 204 523 431 c 4
EndSplineSet
Substitution2: "zeroSlashedZeroinLatinlookup10 subtable" zero.tabl.slsh
EndChar

StartChar: one.tabl
Encoding: 65716 -1 608
GlifName: one.tabl
Width: 558
GlyphClass: 2
Flags: HW
LayerCount: 2
Fore
SplineSet
378 666 m 1
 430 666 l 1
 321 49 l 1
 488 49 l 1
 479 0 l 1
 78 0 l 1
 86 49 l 1
 270 49 l 1
 351 512 l 1
 192 512 l 1
 199 556 l 1
 277 556 l 2
 330 556 362 572 371 625 c 2
 378 666 l 1
EndSplineSet
EndChar

StartChar: two.tabl
Encoding: 65717 -1 609
GlifName: two.tabl
Width: 558
GlyphClass: 2
Flags: HW
LayerCount: 2
Fore
SplineSet
127 49 m 1
 504 49 l 1
 495 0 l 1
 59 0 l 1
 61 14 l 2
 78 135 155 204 331 280 c 0
 484 347 526 392 526 487 c 0
 526 570 465 623 367 623 c 0
 295 623 218 573 199 487 c 1
 144 487 l 1
 171 599 255 674 372 674 c 0
 497 674 581 599 581 488 c 0
 581 376 520 309 356 237 c 0
 194 165 139 117 127 49 c 1
EndSplineSet
EndChar

StartChar: three.tabl
Encoding: 65718 -1 610
GlifName: three.tabl
Width: 558
GlyphClass: 2
Flags: HW
LayerCount: 2
Fore
SplineSet
421 360 m 1
 412 309 l 1
 290 309 l 1
 299 360 l 1
 421 360 l 1
362 319 m 1
 370 360 l 1
 460 360 521 423 521 515 c 0
 521 584 473 623 387 623 c 0
 297 623 228 570 211 487 c 1
 157 487 l 1
 185 598 272 674 391 674 c 0
 505 674 575 613 575 517 c 0
 575 403 484 319 362 319 c 1
368 350 m 1
 469 350 532 293 532 201 c 0
 532 82 427 -8 288 -8 c 0
 163 -8 89 59 89 174 c 1
 143 174 l 1
 143 89 195 43 291 43 c 0
 406 43 477 108 477 210 c 0
 477 273 436 309 360 309 c 1
 368 350 l 1
EndSplineSet
EndChar

StartChar: four.tabl
Encoding: 65719 -1 611
GlifName: four.tabl
Width: 558
GlyphClass: 2
Flags: HW
LayerCount: 2
Fore
SplineSet
446 176 m 1
 416 0 l 1
 365 0 l 1
 395 176 l 1
 69 176 l 1
 79 234 l 1
 469 666 l 1
 532 666 l 1
 455 224 l 1
 560 224 l 1
 552 176 l 1
 446 176 l 1
403 224 m 1
 470 602 l 1
 133 224 l 5
 403 224 l 1
EndSplineSet
EndChar

StartChar: five.tabl
Encoding: 65720 -1 612
GlifName: five.tabl
Width: 558
GlyphClass: 2
Flags: HW
LayerCount: 2
Fore
SplineSet
485 263 m 0
 485 131 405 43 284 43 c 0
 192 43 143 86 143 168 c 1
 89 168 l 1
 89 58 163 -8 286 -8 c 0
 431 -8 540 108 540 262 c 0
 540 377 470 447 358 447 c 0
 289 447 226 423 179 380 c 1
 246 617 l 1
 582 617 l 1
 591 667 l 1
 208 667 l 1
 115 316 l 1
 165 316 l 1
 206 367 269 396 342 396 c 0
 433 396 485 348 485 263 c 0
EndSplineSet
EndChar

StartChar: six.tabl
Encoding: 65721 -1 613
GlifName: six.tabl
Width: 558
GlyphClass: 2
Flags: HW
LayerCount: 2
Fore
SplineSet
100 230 m 0
 100 496 226 676 413 676 c 0
 524 676 590 610 590 501 c 1
 536 501 l 1
 536 580 491 625 409 625 c 0
 279 625 199 530 164 335 c 0
 162 326 161 317 160 300 c 1
 204 384 286 436 370 436 c 0
 480 436 551 362 551 249 c 0
 551 110 439 -8 308 -8 c 0
 181 -8 100 85 100 230 c 0
162 182 m 0
 162 100 221 44 306 44 c 0
 412 44 496 135 496 254 c 0
 496 335 447 384 367 384 c 0
 253 384 162 295 162 182 c 0
EndSplineSet
EndChar

StartChar: seven.tabl
Encoding: 65722 -1 614
GlifName: seven.tabl
Width: 558
GlyphClass: 2
Flags: HW
LayerCount: 2
Fore
SplineSet
258 0 m 5
 318 302 448 442 617 606 c 1
 628 666 l 1
 165 666 l 1
 157 616 l 1
 567 616 l 1
 419 469 279 351 201 0 c 5
 258 0 l 5
EndSplineSet
EndChar

StartChar: eight.tabl
Encoding: 65723 -1 615
GlifName: eight.tabl
Width: 558
GlyphClass: 2
Flags: HW
LayerCount: 2
Fore
SplineSet
436 336 m 1
 497 312 531 263 531 197 c 0
 531 80 427 -8 288 -8 c 0
 165 -8 88 54 88 152 c 0
 88 237 148 307 241 336 c 1
 192 361 164 407 164 467 c 0
 164 584 262 674 387 674 c 0
 498 674 567 613 567 516 c 0
 567 435 517 366 436 336 c 1
349 360 m 2
 447 360 512 424 512 520 c 0
 512 586 464 623 378 623 c 0
 283 623 219 558 219 460 c 0
 219 397 260 360 336 360 c 2
 349 360 l 2
340 309 m 6
 327 309 l 6
 216 309 143 244 143 147 c 0
 143 79 198 43 296 43 c 0
 407 43 477 106 477 204 c 0
 477 272 428 309 340 309 c 6
EndSplineSet
EndChar

StartChar: nine.tabl
Encoding: 65724 -1 616
GlifName: nine.tabl
Width: 558
GlyphClass: 2
Flags: HW
LayerCount: 2
Fore
SplineSet
575 437 m 4
 575 171 450 -8 263 -8 c 4
 153 -8 86 58 86 167 c 5
 140 167 l 5
 140 88 185 43 267 43 c 4
 397 43 477 138 512 333 c 4
 514 342 515 351 516 368 c 5
 472 284 390 231 306 231 c 4
 196 231 125 306 125 419 c 4
 125 558 237 676 368 676 c 4
 495 676 575 582 575 437 c 4
514 485 m 4
 514 567 455 624 370 624 c 4
 264 624 180 533 180 414 c 4
 180 333 229 284 309 284 c 4
 423 284 514 372 514 485 c 4
EndSplineSet
EndChar

StartChar: zero.slsh.tabl
Encoding: 65725 -1 617
GlifName: zero.slsh.tabl
Width: 558
GlyphClass: 2
Flags: HW
LayerCount: 2
Fore
SplineSet
529 570 m 1
 560 529 l 1
 148 103 l 1
 117 144 l 5
 529 570 l 1
94 237 m 0
 94 483 218 676 376 676 c 0
 503 676 577 584 577 423 c 0
 577 174 459 -8 299 -8 c 0
 169 -8 94 81 94 237 c 0
523 431 m 0
 523 559 472 625 371 625 c 0
 244 625 147 454 147 230 c 0
 147 107 201 43 304 43 c 0
 432 43 523 204 523 431 c 0
EndSplineSet
EndChar

StartChar: plus.tabl
Encoding: 65726 -1 618
GlifName: plus.tabl
Width: 558
GlyphClass: 2
Flags: HW
LayerCount: 2
Fore
SplineSet
357 307 m 5
 576 307 l 5
 568 258 l 5
 349 258 l 5
 310 39 l 5
 261 39 l 5
 299 258 l 5
 80 258 l 5
 89 307 l 5
 308 307 l 5
 347 526 l 5
 396 526 l 5
 357 307 l 5
EndSplineSet
EndChar

StartChar: hyphen.tabl
Encoding: 65727 -1 619
GlifName: hyphen.tabl
Width: 558
GlyphClass: 2
Flags: HW
LayerCount: 2
Fore
SplineSet
132 307 m 1
 533 307 l 1
 525 258 l 1
 123 258 l 1
 132 307 l 1
EndSplineSet
EndChar

StartChar: period.tabl
Encoding: 65728 -1 620
GlifName: period.tabl
Width: 558
GlyphClass: 2
Flags: HW
LayerCount: 2
Fore
SplineSet
258 72 m 5
 324 72 l 5
 311 0 l 5
 246 0 l 5
 258 72 l 5
EndSplineSet
EndChar

StartChar: slash.tabl
Encoding: 65729 -1 621
GlifName: slash.tabl
Width: 558
GlyphClass: 2
Flags: HW
LayerCount: 2
Fore
SplineSet
500 666 m 1
 562 666 l 1
 174 0 l 1
 113 0 l 1
 500 666 l 1
EndSplineSet
EndChar

StartChar: colon.tabl
Encoding: 65730 -1 622
GlifName: colon.tabl
Width: 558
GlyphClass: 2
Flags: HW
LayerCount: 2
Fore
SplineSet
332 492 m 5
 398 492 l 5
 385 420 l 5
 320 420 l 5
 332 492 l 5
258 72 m 5
 324 72 l 5
 311 0 l 5
 246 0 l 5
 258 72 l 5
EndSplineSet
EndChar

StartChar: multiply.tabl
Encoding: 65731 -1 623
GlifName: multiply.tabl
Width: 558
GlyphClass: 2
Flags: HW
LayerCount: 2
Fore
SplineSet
335 317 m 5
 542 493 l 1
 570 458 l 1
 363 283 l 1
 508 108 l 1
 467 73 l 1
 322 248 l 1
 117 73 l 1
 89 108 l 1
 294 283 l 1
 150 458 l 1
 191 493 l 5
 335 317 l 5
EndSplineSet
EndChar

StartChar: divide.tabl
Encoding: 65732 -1 624
GlifName: divide.tabl
Width: 558
GlyphClass: 2
Flags: HW
LayerCount: 2
Fore
SplineSet
337 519 m 5
 403 519 l 5
 390 447 l 5
 325 447 l 5
 337 519 l 5
263 99 m 5
 329 99 l 5
 316 28 l 5
 251 28 l 5
 263 99 l 5
132 307 m 1
 533 307 l 1
 525 258 l 1
 123 258 l 1
 132 307 l 1
EndSplineSet
EndChar

StartChar: period.ss03.tabl
Encoding: 65733 -1 625
GlifName: period.ss03.tabl
Width: 558
GlyphClass: 2
Flags: HW
LayerCount: 2
Fore
SplineSet
242 35 m 4
 246 59 268 78 292 78 c 4
 316 78 332 59 328 35 c 4
 324 11 301 -8 277 -8 c 4
 253 -8 238 11 242 35 c 4
EndSplineSet
EndChar

StartChar: colon.ss03.tabl
Encoding: 65734 -1 626
GlifName: colon.ss03.tabl
Width: 558
GlyphClass: 2
Flags: HW
LayerCount: 2
Fore
SplineSet
308 458 m 0
 308 482 327 501 351 501 c 0
 375 501 394 482 394 458 c 0
 394 434 375 415 351 415 c 0
 327 415 308 434 308 458 c 0
234 35 m 0
 234 59 253 78 277 78 c 0
 301 78 320 59 320 35 c 0
 320 11 301 -8 277 -8 c 0
 253 -8 234 11 234 35 c 0
EndSplineSet
EndChar

StartChar: divide.ss03.tabl
Encoding: 65735 -1 627
GlifName: divide.ss03.tabl
Width: 558
GlyphClass: 2
Flags: HW
LayerCount: 2
Fore
SplineSet
321 486 m 0
 325 510 348 529 372 529 c 0
 396 529 411 510 407 486 c 0
 403 462 381 443 357 443 c 0
 333 443 317 462 321 486 c 0
247 63 m 0
 251 87 273 106 297 106 c 0
 321 106 337 87 333 63 c 0
 329 39 306 20 282 20 c 0
 258 20 243 39 247 63 c 0
132 307 m 1
 533 307 l 1
 525 258 l 1
 123 258 l 1
 132 307 l 1
EndSplineSet
EndChar

StartChar: cent
Encoding: 162 162 628
GlifName: cent
Width: 549
GlyphClass: 2
Flags: HW
LayerCount: 2
Fore
SplineSet
371 666 m 1
 423 666 l 1
 305 0 l 1
 254 0 l 1
 371 666 l 1
105 291 m 0
 105 466 217 599 364 599 c 0
 486 599 566 512 566 398 c 1
 513 398 l 1
 513 490 456 548 358 548 c 0
 245 548 160 436 160 289 c 0
 160 180 219 119 326 119 c 0
 405 119 470 173 489 250 c 1
 548 250 l 1
 520 139 432 69 321 69 c 0
 189 69 105 156 105 291 c 0
EndSplineSet
EndChar

StartChar: sterling
Encoding: 163 163 629
GlifName: sterling
Width: 536
GlyphClass: 2
Flags: HW
LayerCount: 2
Fore
SplineSet
97 346 m 1
 481 346 l 1
 472 297 l 1
 88 297 l 1
 97 346 l 1
534 514 m 1
 534 584 496 623 420 623 c 0
 339 623 282 568 266 475 c 2
 221 220 l 2
 210 156 175 84 96 49 c 1
 509 49 l 1
 501 0 l 1
 36 0 l 1
 46 55 l 1
 125 90 160 164 171 228 c 2
 215 475 l 2
 235 594 316 674 418 674 c 4
 527 674 585 608 585 514 c 1
 534 514 l 1
EndSplineSet
EndChar

StartChar: currency
Encoding: 164 164 630
GlifName: currency
Width: 491
GlyphClass: 2
Flags: HW
LayerCount: 2
Fore
SplineSet
190 259 m 0
 190 207 222 177 277 177 c 0
 348 177 401 234 401 311 c 0
 401 363 368 394 314 394 c 0
 243 394 190 337 190 259 c 0
410 410 m 1
 508 493 l 1
 536 458 l 1
 438 374 l 1
 446 358 450 339 450 318 c 0
 450 274 433 228 404 194 c 1
 475 108 l 1
 434 73 l 1
 363 159 l 1
 335 142 303 132 269 132 c 0
 235 132 207 142 185 159 c 1
 83 73 l 1
 55 108 l 1
 156 194 l 1
 147 211 142 231 142 254 c 0
 142 297 158 342 185 375 c 1
 117 458 l 1
 158 493 l 1
 225 411 l 1
 254 430 288 439 322 439 c 0
 358 439 388 430 410 410 c 1
EndSplineSet
EndChar

StartChar: degree
Encoding: 176 176 631
GlifName: degree
Width: 332
GlyphClass: 2
Flags: HW
LayerCount: 2
Fore
SplineSet
177 529 m 0
 177 483 207 456 255 456 c 0
 307 456 344 499 344 558 c 0
 344 604 314 632 266 632 c 0
 214 632 177 589 177 529 c 0
392 560 m 0
 392 476 330 410 251 410 c 0
 178 410 129 458 129 527 c 0
 129 611 191 677 270 677 c 0
 342 677 392 629 392 560 c 0
EndSplineSet
EndChar

StartChar: yen
Encoding: 165 165 632
GlifName: yen
Width: 580
GlyphClass: 2
Flags: HW
LayerCount: 2
Fore
SplineSet
110 139 m 1
 511 139 l 1
 502 90 l 1
 101 90 l 1
 110 139 l 1
130 256 m 1
 532 256 l 1
 523 207 l 1
 121 207 l 1
 130 256 l 1
307 251 m 1
 153 666 l 1
 212 666 l 5
 339 315 l 5
 596 666 l 5
 662 666 l 1
 359 251 l 1
 314 0 l 1
 263 0 l 1
 307 251 l 1
EndSplineSet
EndChar

StartChar: brokenbar
Encoding: 166 166 633
GlifName: brokenbar
Width: 163
GlyphClass: 2
Flags: HW
LayerCount: 2
Fore
SplineSet
201 820 m 1
 252 820 l 1
 171 361 l 1
 120 361 l 1
 201 820 l 1
152 254 m 1
 71 -205 l 1
 20 -205 l 1
 101 254 l 1
 152 254 l 1
EndSplineSet
EndChar

StartChar: uni2070
Encoding: 8304 8304 634
GlifName: uni2070
Width: 394
GlyphClass: 2
Flags: HW
LayerCount: 2
Fore
SplineSet
36 569 m 4
 36 691 101 772 198 772 c 4
 294 772 358 691 358 569 c 4
 358 446 294 365 198 365 c 4
 101 365 36 446 36 569 c 4
304 569 m 4
 304 665 266 721 198 721 c 4
 130 721 90 665 90 569 c 4
 90 472 130 416 198 416 c 4
 266 416 304 472 304 569 c 4
EndSplineSet
EndChar

StartChar: uni2074
Encoding: 8308 8308 635
GlifName: uni2074
Width: 403
GlyphClass: 2
Flags: HW
LayerCount: 2
Fore
SplineSet
292 473 m 1
 292 373 l 1
 241 373 l 1
 241 473 l 1
 36 473 l 1
 36 531 l 1
 230 768 l 1
 292 768 l 1
 292 521 l 1
 368 521 l 1
 368 473 l 1
 292 473 l 1
241 521 m 1
 241 705 l 1
 90 521 l 1
 241 521 l 1
EndSplineSet
EndChar

StartChar: uni2075
Encoding: 8309 8309 636
GlifName: uni2075
Width: 371
GlyphClass: 2
Flags: HW
LayerCount: 2
Fore
SplineSet
282 505 m 0
 282 446 247 416 187 416 c 0
 129 416 92 440 90 479 c 1
 36 479 l 1
 42 411 102 365 187 365 c 0
 275 365 336 418 336 506 c 0
 336 586 284 644 201 644 c 0
 154 644 116 625 92 594 c 1
 105 719 l 1
 316 719 l 1
 316 768 l 1
 61 768 l 1
 36 539 l 1
 86 539 l 1
 106 572 144 593 194 593 c 0
 251 593 282 559 282 505 c 0
EndSplineSet
EndChar

StartChar: uni2076
Encoding: 8310 8310 637
GlifName: uni2076
Width: 386
GlyphClass: 2
Flags: HW
LayerCount: 2
Fore
SplineSet
36 564 m 0
 36 695 98 772 205 772 c 0
 277 772 329 731 342 663 c 1
 288 663 l 1
 280 701 251 721 205 721 c 0
 128 721 90 671 90 569 c 0
 90 560 91 552 92 543 c 1
 111 594 158 625 211 625 c 0
 292 625 350 571 350 495 c 0
 350 419 292 365 211 365 c 0
 104 365 36 442 36 564 c 0
113 495 m 0
 113 450 153 417 207 417 c 0
 261 417 296 448 296 495 c 0
 296 542 261 572 207 572 c 0
 151 572 113 541 113 495 c 0
EndSplineSet
EndChar

StartChar: uni2077
Encoding: 8311 8311 638
GlifName: uni2077
Width: 395
GlyphClass: 2
Flags: HW
LayerCount: 2
Fore
SplineSet
182 373 m 1
 195 510 262 618 359 709 c 1
 359 768 l 1
 36 768 l 1
 36 719 l 1
 307 719 l 1
 222 634 149 539 127 373 c 1
 182 373 l 1
EndSplineSet
EndChar

StartChar: uni2078
Encoding: 8312 8312 639
GlifName: uni2078
Width: 386
GlyphClass: 2
Flags: HW
LayerCount: 2
Fore
SplineSet
196 772 m 1
 196 721 l 1
 135 721 100 696 100 653 c 0
 100 615 135 594 193 594 c 1
 193 553 l 1
 105 553 46 595 46 658 c 0
 46 726 106 772 196 772 c 1
196 416 m 1
 196 365 l 1
 100 365 36 408 36 473 c 0
 36 539 99 584 193 584 c 1
 193 543 l 1
 128 543 90 519 90 477 c 0
 90 438 129 416 196 416 c 1
210 594 m 1
 210 543 l 1
 182 543 l 1
 182 594 l 1
 210 594 l 1
196 772 m 1
 283 772 340 726 340 658 c 0
 340 595 284 553 200 553 c 1
 200 594 l 1
 255 594 286 615 286 653 c 0
 286 696 254 721 196 721 c 1
 196 772 l 1
196 416 m 1
 260 416 296 438 296 477 c 0
 296 519 261 543 200 543 c 1
 200 584 l 1
 290 584 350 539 350 473 c 0
 350 408 289 365 196 365 c 1
 196 416 l 1
EndSplineSet
EndChar

StartChar: uni2079
Encoding: 8313 8313 640
GlifName: uni2079
Width: 386
GlyphClass: 2
Flags: HW
LayerCount: 2
Fore
SplineSet
350 552 m 0
 350 434 288 365 181 365 c 0
 105 365 50 404 37 469 c 1
 91 469 l 1
 100 434 131 416 181 416 c 0
 259 416 298 462 298 557 c 0
 298 566 297 575 296 584 c 1
 277 534 230 503 177 503 c 0
 95 503 36 559 36 637 c 0
 36 715 97 772 182 772 c 0
 284 772 350 687 350 552 c 0
276 636 m 0
 276 683 236 719 182 719 c 0
 128 719 93 686 93 636 c 0
 93 587 128 554 182 554 c 0
 238 554 276 587 276 636 c 0
EndSplineSet
EndChar

StartChar: uni207A
Encoding: 8314 8314 641
GlifName: uni207A_
Width: 374
GlyphClass: 2
Flags: HW
LayerCount: 2
Fore
SplineSet
212 602 m 5
 339 602 l 5
 339 553 l 5
 212 553 l 5
 212 426 l 1
 163 426 l 1
 163 553 l 5
 36 553 l 5
 36 602 l 5
 163 602 l 5
 163 729 l 1
 212 729 l 1
 212 602 l 5
EndSplineSet
EndChar

StartChar: uni207B
Encoding: 8315 8315 642
GlifName: uni207B_
Width: 374
GlyphClass: 2
Flags: HW
LayerCount: 2
Fore
SplineSet
36 602 m 1
 339 602 l 1
 339 553 l 1
 36 553 l 1
 36 602 l 1
EndSplineSet
EndChar

StartChar: uni207C
Encoding: 8316 8316 643
GlifName: uni207C_
Width: 374
GlyphClass: 2
Flags: HW
LayerCount: 2
Fore
SplineSet
36 515 m 5
 339 515 l 5
 339 466 l 5
 36 466 l 5
 36 515 l 5
36 689 m 5
 339 689 l 5
 339 640 l 5
 36 640 l 5
 36 689 l 5
EndSplineSet
EndChar

StartChar: uni207D
Encoding: 8317 8317 644
GlifName: uni207D_
Width: 183
GlyphClass: 2
Flags: HW
LayerCount: 2
Fore
SplineSet
168 301 m 1
 116 301 l 1
 70 353 36 450 36 578 c 0
 36 699 70 790 116 840 c 1
 168 840 l 5
 116 776 90 696 90 578 c 0
 90 453 116 368 168 301 c 1
EndSplineSet
EndChar

StartChar: uni207E
Encoding: 8318 8318 645
GlifName: uni207E_
Width: 183
GlyphClass: 2
Flags: HW
LayerCount: 2
Fore
SplineSet
15 840 m 5
 68 840 l 5
 114 788 147 691 147 563 c 4
 147 442 114 351 68 301 c 5
 15 301 l 5
 67 365 93 445 93 563 c 4
 93 688 67 773 15 840 c 5
EndSplineSet
EndChar

StartChar: uni207F
Encoding: 8319 8319 646
GlifName: uni207F_
Width: 430
GlyphClass: 2
Flags: HW
LayerCount: 2
Fore
SplineSet
323 614 m 6
 323 693 283 727 222 727 c 0
 157 727 108 683 108 621 c 5
 78 627 l 5
 79 721 158 778 232 778 c 0
 314 778 374 724 374 625 c 6
 374 373 l 1
 323 373 l 1
 323 614 l 6
56 768 m 1
 108 768 l 1
 108 373 l 1
 56 373 l 1
 56 768 l 1
EndSplineSet
EndChar

StartChar: uni2080
Encoding: 8320 8320 647
GlifName: uni2080
Width: 394
GlyphClass: 2
Flags: HW
LayerCount: 2
Fore
SplineSet
36 94 m 4
 36 216 101 297 198 297 c 4
 294 297 358 216 358 94 c 4
 358 -29 294 -111 198 -111 c 4
 101 -111 36 -29 36 94 c 4
304 94 m 4
 304 190 266 246 198 246 c 4
 130 246 90 190 90 94 c 4
 90 -3 130 -59 198 -59 c 4
 266 -59 304 -3 304 94 c 4
EndSplineSet
EndChar

StartChar: uni2081
Encoding: 8321 8321 648
GlifName: uni2081
Width: 225
GlyphClass: 2
Flags: HW
LayerCount: 2
Fore
SplineSet
138 293 m 5
 189 293 l 5
 189 -102 l 5
 138 -102 l 5
 138 164 l 5
 26 164 l 5
 26 208 l 5
 70 208 l 6
 115 208 138 220 138 261 c 6
 138 293 l 5
EndSplineSet
EndChar

StartChar: uni2082
Encoding: 8322 8322 649
GlifName: uni2082
Width: 385
GlyphClass: 2
Flags: HW
LayerCount: 2
Fore
SplineSet
89 -53 m 5
 345 -53 l 1
 345 -102 l 1
 36 -102 l 1
 36 -88 l 2
 36 16 123 46 197 75 c 0
 250 95 295 117 295 165 c 0
 295 216 260 246 200 246 c 0
 135 246 93 211 90 156 c 1
 36 156 l 1
 42 240 110 297 200 297 c 0
 289 297 349 243 349 161 c 0
 349 93 283 59 217 31 c 0
 152 4 98 -16 89 -53 c 5
EndSplineSet
EndChar

StartChar: uni2083
Encoding: 8323 8323 650
GlifName: uni2083
Width: 386
GlyphClass: 2
Flags: HW
LayerCount: 2
Fore
SplineSet
271 118 m 5
 271 67 l 5
 166 67 l 1
 166 118 l 1
 271 118 l 5
227 77 m 1
 227 118 l 1
 264 118 286 138 286 174 c 0
 286 220 251 247 191 247 c 0
 135 247 98 219 96 176 c 1
 42 176 l 1
 48 248 108 298 191 298 c 0
 280 298 340 249 340 174 c 0
 340 116 294 77 227 77 c 1
227 108 m 1
 301 108 350 67 350 6 c 0
 350 -64 288 -111 195 -111 c 0
 107 -111 42 -64 36 4 c 1
 90 4 l 1
 93 -35 134 -59 195 -59 c 0
 259 -59 296 -36 296 6 c 0
 296 45 271 67 227 67 c 1
 227 108 l 1
EndSplineSet
EndChar

StartChar: uni2084
Encoding: 8324 8324 651
GlifName: uni2084
Width: 403
GlyphClass: 2
Flags: HW
LayerCount: 2
Fore
SplineSet
292 -2 m 1
 292 -102 l 1
 241 -102 l 1
 241 -2 l 1
 36 -2 l 1
 36 56 l 1
 230 293 l 1
 292 293 l 1
 292 46 l 1
 368 46 l 1
 368 -2 l 1
 292 -2 l 1
241 46 m 1
 241 229 l 1
 90 46 l 1
 241 46 l 1
EndSplineSet
EndChar

StartChar: uni2085
Encoding: 8325 8325 652
GlifName: uni2085
Width: 371
GlyphClass: 2
Flags: HW
LayerCount: 2
Fore
SplineSet
282 30 m 0
 282 -29 247 -59 187 -59 c 0
 129 -59 92 -35 90 4 c 1
 36 4 l 1
 42 -64 102 -111 187 -111 c 0
 275 -111 336 -57 336 31 c 0
 336 111 284 169 201 169 c 0
 154 169 116 150 92 119 c 1
 105 244 l 1
 316 244 l 1
 316 293 l 1
 61 293 l 1
 36 63 l 1
 86 63 l 1
 106 96 144 118 194 118 c 0
 251 118 282 84 282 30 c 0
EndSplineSet
EndChar

StartChar: uni2086
Encoding: 8326 8326 653
GlifName: uni2086
Width: 386
GlyphClass: 2
Flags: HW
LayerCount: 2
Fore
SplineSet
36 89 m 0
 36 220 98 297 205 297 c 0
 277 297 329 255 342 187 c 1
 288 187 l 1
 280 225 251 246 205 246 c 0
 128 246 90 196 90 94 c 0
 90 85 91 77 92 68 c 1
 111 119 158 150 211 150 c 0
 292 150 350 95 350 19 c 0
 350 -57 292 -111 211 -111 c 0
 104 -111 36 -33 36 89 c 0
113 19 m 0
 113 -26 153 -58 207 -58 c 0
 261 -58 296 -28 296 19 c 0
 296 66 261 97 207 97 c 0
 151 97 113 65 113 19 c 0
EndSplineSet
EndChar

StartChar: uni2087
Encoding: 8327 8327 654
GlifName: uni2087
Width: 395
GlyphClass: 2
Flags: HW
LayerCount: 2
Fore
SplineSet
182 -102 m 5
 195 35 262 142 359 233 c 5
 359 293 l 5
 36 293 l 5
 36 244 l 5
 307 244 l 5
 222 159 149 64 127 -102 c 5
 182 -102 l 5
EndSplineSet
EndChar

StartChar: uni2088
Encoding: 8328 8328 655
GlifName: uni2088
Width: 386
GlyphClass: 2
Flags: HW
LayerCount: 2
Fore
SplineSet
196 297 m 1
 196 246 l 1
 135 246 100 221 100 178 c 0
 100 140 135 119 193 119 c 1
 193 78 l 1
 105 78 46 120 46 183 c 0
 46 251 106 297 196 297 c 1
196 -59 m 1
 196 -111 l 1
 100 -111 36 -67 36 -2 c 0
 36 64 99 109 193 109 c 1
 193 68 l 1
 128 68 90 44 90 2 c 0
 90 -37 129 -59 196 -59 c 1
210 119 m 1
 210 68 l 1
 182 68 l 1
 182 119 l 1
 210 119 l 1
196 297 m 1
 283 297 340 251 340 183 c 0
 340 120 284 78 200 78 c 1
 200 119 l 1
 255 119 286 140 286 178 c 0
 286 221 254 246 196 246 c 1
 196 297 l 1
196 -59 m 1
 260 -59 296 -37 296 2 c 0
 296 44 261 68 200 68 c 1
 200 109 l 1
 290 109 350 64 350 -2 c 0
 350 -67 289 -111 196 -111 c 1
 196 -59 l 1
EndSplineSet
EndChar

StartChar: uni2089
Encoding: 8329 8329 656
GlifName: uni2089
Width: 386
GlyphClass: 2
Flags: HW
LayerCount: 2
Fore
SplineSet
350 77 m 0
 350 -41 288 -111 181 -111 c 0
 105 -111 50 -71 37 -6 c 1
 91 -6 l 1
 100 -41 131 -59 181 -59 c 0
 259 -59 298 -13 298 82 c 0
 298 91 297 100 296 109 c 1
 277 59 230 28 177 28 c 0
 95 28 36 84 36 162 c 0
 36 240 97 297 182 297 c 0
 284 297 350 212 350 77 c 0
276 161 m 0
 276 208 236 244 182 244 c 0
 128 244 93 211 93 161 c 0
 93 112 128 79 182 79 c 0
 238 79 276 112 276 161 c 0
EndSplineSet
EndChar

StartChar: uni208A
Encoding: 8330 8330 657
GlifName: uni208A_
Width: 374
GlyphClass: 2
Flags: HW
LayerCount: 2
Fore
SplineSet
212 127 m 5
 339 127 l 5
 339 78 l 5
 212 78 l 5
 212 -49 l 1
 163 -49 l 1
 163 78 l 5
 36 78 l 5
 36 127 l 5
 163 127 l 5
 163 254 l 1
 212 254 l 1
 212 127 l 5
EndSplineSet
EndChar

StartChar: uni208B
Encoding: 8331 8331 658
GlifName: uni208B_
Width: 374
GlyphClass: 2
Flags: HW
LayerCount: 2
Fore
SplineSet
36 127 m 1
 339 127 l 1
 339 78 l 1
 36 78 l 1
 36 127 l 1
EndSplineSet
EndChar

StartChar: uni208C
Encoding: 8332 8332 659
GlifName: uni208C_
Width: 374
GlyphClass: 2
Flags: HW
LayerCount: 2
Fore
SplineSet
36 40 m 5
 339 40 l 5
 339 -9 l 5
 36 -9 l 5
 36 40 l 5
36 214 m 5
 339 214 l 5
 339 165 l 5
 36 165 l 5
 36 214 l 5
EndSplineSet
EndChar

StartChar: uni208D
Encoding: 8333 8333 660
GlifName: uni208D_
Width: 183
GlyphClass: 2
Flags: HW
LayerCount: 2
Fore
SplineSet
168 -174 m 1
 116 -174 l 1
 70 -122 36 -26 36 102 c 0
 36 223 70 315 116 365 c 1
 168 365 l 5
 116 301 90 220 90 102 c 0
 90 -23 116 -107 168 -174 c 1
EndSplineSet
EndChar

StartChar: uni208E
Encoding: 8334 8334 661
GlifName: uni208E_
Width: 183
GlyphClass: 2
Flags: HW
LayerCount: 2
Fore
SplineSet
15 365 m 5
 68 365 l 5
 114 313 147 216 147 88 c 4
 147 -33 114 -124 68 -174 c 5
 15 -174 l 5
 67 -110 93 -30 93 88 c 4
 93 213 67 298 15 365 c 5
EndSplineSet
EndChar

StartChar: uni2099
Encoding: 8345 8345 662
GlifName: uni2099
Width: 430
GlyphClass: 2
Flags: HW
LayerCount: 2
Fore
SplineSet
323 139 m 2
 323 218 283 252 222 252 c 0
 157 252 108 207 108 145 c 1
 78 152 l 1
 79 246 158 303 232 303 c 0
 314 303 374 249 374 150 c 2
 374 -102 l 1
 323 -102 l 1
 323 139 l 2
56 293 m 1
 108 293 l 1
 108 -102 l 1
 56 -102 l 1
 56 293 l 1
EndSplineSet
EndChar

StartChar: uni2460
Encoding: 9312 9312 663
GlifName: uni2460
Width: 844
GlyphClass: 2
Flags: HW
LayerCount: 2
Fore
SplineSet
480 3 m 0
 675 3 808 137 808 334 c 0
 808 529 679 660 486 660 c 0
 293 660 164 528 164 329 c 0
 164 132 289 3 480 3 c 0
862 333 m 0
 862 105 707 -51 481 -51 c 0
 258 -51 110 98 110 322 c 0
 110 553 265 715 488 715 c 0
 709 715 862 558 862 333 c 0
486 530 m 5
 537 530 l 5
 537 135 l 5
 486 135 l 5
 486 401 l 5
 373 401 l 5
 373 445 l 5
 418 445 l 6
 463 445 486 458 486 499 c 6
 486 530 l 5
EndSplineSet
EndChar

StartChar: uni2461
Encoding: 9313 9313 664
GlifName: uni2461
Width: 844
GlyphClass: 2
Flags: HW
LayerCount: 2
Fore
SplineSet
480 3 m 4
 675 3 808 137 808 334 c 4
 808 529 679 660 486 660 c 4
 293 660 164 528 164 329 c 4
 164 132 289 3 480 3 c 4
862 333 m 4
 862 105 707 -51 481 -51 c 4
 258 -51 110 98 110 322 c 4
 110 553 265 715 488 715 c 4
 709 715 862 558 862 333 c 4
382 184 m 1
 638 184 l 1
 638 135 l 1
 329 135 l 1
 329 150 l 2
 329 254 415 283 489 312 c 0
 542 332 587 354 587 402 c 0
 587 453 553 483 493 483 c 0
 428 483 385 448 382 393 c 1
 329 393 l 1
 335 477 403 535 493 535 c 0
 582 535 643 480 643 398 c 0
 643 330 575 296 509 268 c 0
 444 241 391 221 382 184 c 1
EndSplineSet
EndChar

StartChar: uni2462
Encoding: 9314 9314 665
GlifName: uni2462
Width: 844
GlyphClass: 2
Flags: HW
LayerCount: 2
Fore
SplineSet
862 333 m 0
 862 105 707 -51 481 -51 c 0
 258 -51 110 98 110 322 c 0
 110 553 265 715 488 715 c 0
 709 715 862 558 862 333 c 0
480 3 m 0
 675 3 808 137 808 334 c 0
 808 529 679 660 486 660 c 0
 293 660 164 528 164 329 c 0
 164 132 289 3 480 3 c 0
588 331 m 1
 623 314 643 283 643 244 c 0
 643 173 580 127 487 127 c 0
 399 127 335 174 329 242 c 1
 383 242 l 1
 386 203 426 178 487 178 c 0
 552 178 589 202 589 244 c 0
 589 283 563 304 520 304 c 2
 459 304 l 1
 459 355 l 1
 520 355 l 2
 557 355 579 376 579 412 c 0
 579 458 544 484 484 484 c 0
 428 484 391 457 389 414 c 1
 335 414 l 1
 341 487 401 536 484 536 c 0
 573 536 633 487 633 412 c 0
 633 376 616 348 588 331 c 1
EndSplineSet
EndChar

StartChar: uni2463
Encoding: 9315 9315 666
GlifName: uni2463
Width: 844
GlyphClass: 2
Flags: HW
LayerCount: 2
Fore
SplineSet
480 3 m 4
 675 3 808 137 808 334 c 4
 808 529 679 660 486 660 c 4
 293 660 164 528 164 329 c 4
 164 132 289 3 480 3 c 4
862 333 m 4
 862 105 707 -51 481 -51 c 4
 258 -51 110 98 110 322 c 4
 110 553 265 715 488 715 c 4
 709 715 862 558 862 333 c 4
576 236 m 1
 576 135 l 1
 525 135 l 1
 525 236 l 1
 320 236 l 1
 320 294 l 1
 515 530 l 1
 576 530 l 1
 576 284 l 1
 652 284 l 1
 652 236 l 1
 576 236 l 1
525 284 m 1
 525 467 l 1
 375 284 l 1
 525 284 l 1
EndSplineSet
EndChar

StartChar: uni2464
Encoding: 9316 9316 667
GlifName: uni2464
Width: 844
GlyphClass: 2
Flags: HW
LayerCount: 2
Fore
SplineSet
480 3 m 4
 675 3 808 137 808 334 c 4
 808 529 679 660 486 660 c 4
 293 660 164 528 164 329 c 4
 164 132 289 3 480 3 c 4
862 333 m 4
 862 105 707 -51 481 -51 c 4
 258 -51 110 98 110 322 c 4
 110 553 265 715 488 715 c 4
 709 715 862 558 862 333 c 4
582 267 m 0
 582 208 546 178 487 178 c 0
 430 178 392 203 390 242 c 1
 336 242 l 1
 342 174 402 127 487 127 c 0
 575 127 636 180 636 268 c 0
 636 348 584 407 501 407 c 0
 454 407 416 387 392 356 c 1
 406 481 l 1
 616 481 l 1
 616 530 l 1
 361 530 l 1
 336 301 l 1
 386 301 l 1
 406 335 444 355 494 355 c 0
 550 355 582 321 582 267 c 0
EndSplineSet
EndChar

StartChar: uni2465
Encoding: 9317 9317 668
GlifName: uni2465
Width: 844
GlyphClass: 2
Flags: HW
LayerCount: 2
Fore
SplineSet
480 3 m 4
 675 3 808 137 808 334 c 4
 808 529 679 660 486 660 c 4
 293 660 164 528 164 329 c 4
 164 132 289 3 480 3 c 4
862 333 m 4
 862 105 707 -51 481 -51 c 4
 258 -51 110 98 110 322 c 4
 110 553 265 715 488 715 c 4
 709 715 862 558 862 333 c 4
329 327 m 0
 329 458 392 535 498 535 c 0
 571 535 623 493 635 425 c 1
 581 425 l 1
 573 463 544 483 498 483 c 0
 421 483 383 433 383 332 c 0
 383 323 384 313 385 305 c 1
 404 355 451 387 504 387 c 0
 585 387 643 333 643 257 c 0
 643 181 585 127 504 127 c 0
 398 127 329 205 329 327 c 0
406 257 m 0
 406 213 447 179 500 179 c 0
 554 179 589 210 589 257 c 0
 589 304 554 335 500 335 c 0
 444 335 406 303 406 257 c 0
EndSplineSet
EndChar

StartChar: uni2466
Encoding: 9318 9318 669
GlifName: uni2466
Width: 844
GlyphClass: 2
Flags: HW
LayerCount: 2
Fore
SplineSet
480 3 m 4
 675 3 808 137 808 334 c 4
 808 529 679 660 486 660 c 4
 293 660 164 528 164 329 c 4
 164 132 289 3 480 3 c 4
862 333 m 4
 862 105 707 -51 481 -51 c 4
 258 -51 110 98 110 322 c 4
 110 553 265 715 488 715 c 4
 709 715 862 558 862 333 c 4
472 135 m 1
 485 271 551 380 648 471 c 1
 648 530 l 1
 324 530 l 1
 324 481 l 1
 596 481 l 1
 511 396 439 302 416 135 c 1
 472 135 l 1
EndSplineSet
EndChar

StartChar: uni2467
Encoding: 9319 9319 670
GlifName: uni2467
Width: 844
GlyphClass: 2
Flags: HW
LayerCount: 2
Fore
SplineSet
862 333 m 0
 862 105 707 -51 481 -51 c 0
 258 -51 110 98 110 322 c 0
 110 553 265 715 488 715 c 0
 709 715 862 558 862 333 c 0
480 3 m 0
 675 3 808 137 808 334 c 0
 808 529 679 660 486 660 c 0
 293 660 164 528 164 329 c 0
 164 132 289 3 480 3 c 0
401 332 m 1
 362 350 339 381 339 421 c 0
 339 490 398 535 488 535 c 0
 575 535 633 490 633 421 c 0
 633 381 610 350 573 332 c 1
 617 314 643 280 643 236 c 0
 643 170 581 127 488 127 c 0
 392 127 329 170 329 236 c 0
 329 280 356 314 401 332 c 1
485 356 m 2
 493 356 l 2
 547 356 579 378 579 416 c 0
 579 459 545 483 488 483 c 0
 428 483 393 459 393 416 c 0
 393 378 427 356 485 356 c 2
485 305 m 2
 420 305 383 282 383 240 c 0
 383 201 420 178 488 178 c 0
 551 178 589 201 589 240 c 0
 589 282 554 305 493 305 c 2
 485 305 l 2
EndSplineSet
EndChar

StartChar: uni2468
Encoding: 9320 9320 671
GlifName: uni2468
Width: 844
GlyphClass: 2
Flags: HW
LayerCount: 2
Fore
SplineSet
480 3 m 4
 675 3 808 137 808 334 c 4
 808 529 679 660 486 660 c 4
 293 660 164 528 164 329 c 4
 164 132 289 3 480 3 c 4
862 333 m 4
 862 105 707 -51 481 -51 c 4
 258 -51 110 98 110 322 c 4
 110 553 265 715 488 715 c 4
 709 715 862 558 862 333 c 4
643 314 m 0
 643 196 580 127 474 127 c 0
 398 127 343 166 330 231 c 1
 384 231 l 1
 393 196 424 178 474 178 c 0
 553 178 591 224 591 319 c 0
 591 328 590 338 589 346 c 1
 570 296 523 265 470 265 c 0
 388 265 329 321 329 399 c 0
 329 478 390 535 475 535 c 0
 577 535 643 449 643 314 c 0
569 398 m 0
 569 445 528 481 475 481 c 0
 421 481 386 448 386 398 c 0
 386 349 421 316 475 316 c 0
 531 316 569 349 569 398 c 0
EndSplineSet
EndChar

StartChar: uni24EA
Encoding: 9450 9450 672
GlifName: uni24E_A_
Width: 844
GlyphClass: 2
Flags: HW
LayerCount: 2
Fore
SplineSet
480 3 m 0
 675 3 808 137 808 334 c 0
 808 529 679 660 486 660 c 0
 293 660 164 528 164 329 c 0
 164 132 289 3 480 3 c 0
862 333 m 0
 862 105 707 -51 481 -51 c 0
 258 -51 110 98 110 322 c 0
 110 553 265 715 488 715 c 0
 709 715 862 558 862 333 c 0
325 332 m 0
 325 454 389 535 486 535 c 0
 582 535 647 454 647 332 c 0
 647 209 582 127 486 127 c 0
 389 127 325 209 325 332 c 0
593 332 m 0
 593 428 554 483 486 483 c 0
 418 483 379 428 379 332 c 0
 379 235 418 178 486 178 c 0
 554 178 593 235 593 332 c 0
EndSplineSet
EndChar

StartChar: uni24FF
Encoding: 9471 9471 673
GlifName: uni24F_F_
Width: 844
GlyphClass: 2
Flags: HW
LayerCount: 2
Fore
SplineSet
862 333 m 0
 862 105 707 -51 481 -51 c 0
 258 -51 110 98 110 322 c 0
 110 553 265 715 488 715 c 0
 709 715 862 558 862 333 c 0
325 332 m 0
 325 209 389 127 486 127 c 0
 582 127 647 209 647 332 c 0
 647 454 582 535 486 535 c 0
 389 535 325 454 325 332 c 0
593 332 m 0
 593 235 554 178 486 178 c 0
 418 178 379 235 379 332 c 0
 379 428 418 483 486 483 c 0
 554 483 593 428 593 332 c 0
EndSplineSet
EndChar

StartChar: uni2776
Encoding: 10102 10102 674
GlifName: uni2776
Width: 844
GlyphClass: 2
Flags: HW
LayerCount: 2
Fore
SplineSet
862 333 m 0
 862 105 707 -51 481 -51 c 0
 258 -51 110 98 110 322 c 0
 110 553 265 715 488 715 c 0
 709 715 862 558 862 333 c 0
486 530 m 1
 486 499 l 2
 486 458 463 445 418 445 c 2
 373 445 l 1
 373 401 l 1
 486 401 l 1
 486 135 l 1
 537 135 l 1
 537 530 l 1
 486 530 l 1
EndSplineSet
EndChar

StartChar: uni2777
Encoding: 10103 10103 675
GlifName: uni2777
Width: 844
GlyphClass: 2
Flags: HW
LayerCount: 2
Fore
SplineSet
862 333 m 0
 862 105 707 -51 481 -51 c 0
 258 -51 110 98 110 322 c 0
 110 553 265 715 488 715 c 0
 709 715 862 558 862 333 c 0
382 184 m 1
 391 221 444 241 509 268 c 0
 575 296 643 330 643 398 c 0
 643 480 582 535 493 535 c 0
 403 535 335 477 329 393 c 1
 382 393 l 1
 385 448 428 483 493 483 c 0
 553 483 587 453 587 402 c 0
 587 354 542 332 489 312 c 0
 415 283 329 254 329 150 c 2
 329 135 l 1
 638 135 l 1
 638 184 l 1
 382 184 l 1
EndSplineSet
EndChar

StartChar: uni2778
Encoding: 10104 10104 676
GlifName: uni2778
Width: 844
GlyphClass: 2
Flags: HW
LayerCount: 2
Fore
SplineSet
862 333 m 0
 862 105 707 -51 481 -51 c 0
 258 -51 110 98 110 322 c 0
 110 553 265 715 488 715 c 0
 709 715 862 558 862 333 c 0
588 331 m 1
 616 348 633 376 633 412 c 0
 633 487 573 536 484 536 c 0
 401 536 341 487 335 414 c 1
 389 414 l 1
 391 457 428 484 484 484 c 0
 544 484 579 458 579 412 c 0
 579 376 557 355 520 355 c 2
 459 355 l 1
 459 304 l 1
 520 304 l 2
 563 304 589 283 589 244 c 0
 589 202 552 178 487 178 c 0
 426 178 386 203 383 242 c 1
 329 242 l 1
 335 174 399 127 487 127 c 0
 580 127 643 173 643 244 c 0
 643 283 623 314 588 331 c 1
EndSplineSet
EndChar

StartChar: uni2779
Encoding: 10105 10105 677
GlifName: uni2779
Width: 844
GlyphClass: 2
Flags: HW
LayerCount: 2
Fore
SplineSet
862 333 m 0
 862 105 707 -51 481 -51 c 0
 258 -51 110 98 110 322 c 0
 110 553 265 715 488 715 c 0
 709 715 862 558 862 333 c 0
576 236 m 1
 652 236 l 1
 652 284 l 1
 576 284 l 1
 576 530 l 1
 515 530 l 1
 320 294 l 1
 320 236 l 1
 525 236 l 1
 525 135 l 1
 576 135 l 1
 576 236 l 1
525 284 m 1
 375 284 l 1
 525 467 l 1
 525 284 l 1
EndSplineSet
EndChar

StartChar: uni277A
Encoding: 10106 10106 678
GlifName: uni277A_
Width: 844
GlyphClass: 2
Flags: HW
LayerCount: 2
Fore
SplineSet
862 333 m 0
 862 105 707 -51 481 -51 c 0
 258 -51 110 98 110 322 c 0
 110 553 265 715 488 715 c 0
 709 715 862 558 862 333 c 0
582 267 m 0
 582 208 546 178 487 178 c 0
 430 178 392 203 390 242 c 1
 336 242 l 1
 342 174 402 127 487 127 c 0
 575 127 636 180 636 268 c 0
 636 348 584 407 501 407 c 0
 454 407 416 387 392 356 c 1
 406 481 l 1
 616 481 l 1
 616 530 l 1
 361 530 l 1
 336 301 l 1
 386 301 l 1
 406 335 444 355 494 355 c 0
 550 355 582 321 582 267 c 0
EndSplineSet
EndChar

StartChar: uni277B
Encoding: 10107 10107 679
GlifName: uni277B_
Width: 844
GlyphClass: 2
Flags: HW
LayerCount: 2
Fore
SplineSet
862 333 m 0
 862 105 707 -51 481 -51 c 0
 258 -51 110 98 110 322 c 0
 110 553 265 715 488 715 c 0
 709 715 862 558 862 333 c 0
329 327 m 0
 329 205 398 127 504 127 c 0
 585 127 643 181 643 257 c 0
 643 333 585 387 504 387 c 0
 451 387 404 355 385 305 c 1
 384 313 383 323 383 332 c 0
 383 433 421 483 498 483 c 0
 544 483 573 463 581 425 c 1
 635 425 l 1
 623 493 571 535 498 535 c 0
 392 535 329 458 329 327 c 0
406 257 m 0
 406 303 444 335 500 335 c 0
 554 335 589 304 589 257 c 0
 589 210 554 179 500 179 c 0
 447 179 406 213 406 257 c 0
EndSplineSet
EndChar

StartChar: uni277C
Encoding: 10108 10108 680
GlifName: uni277C_
Width: 844
GlyphClass: 2
Flags: HW
LayerCount: 2
Fore
SplineSet
862 333 m 0
 862 105 707 -51 481 -51 c 0
 258 -51 110 98 110 322 c 0
 110 553 265 715 488 715 c 0
 709 715 862 558 862 333 c 0
472 135 m 1
 485 271 551 380 648 471 c 1
 648 530 l 1
 324 530 l 1
 324 481 l 1
 596 481 l 1
 511 396 439 302 416 135 c 1
 472 135 l 1
EndSplineSet
EndChar

StartChar: uni277D
Encoding: 10109 10109 681
GlifName: uni277D_
Width: 844
GlyphClass: 2
Flags: HW
LayerCount: 2
Fore
SplineSet
862 333 m 0
 862 105 707 -51 481 -51 c 0
 258 -51 110 98 110 322 c 0
 110 553 265 715 488 715 c 0
 709 715 862 558 862 333 c 0
573 332 m 1
 610 350 633 381 633 421 c 0
 633 490 575 535 488 535 c 0
 398 535 339 490 339 421 c 0
 339 381 362 350 401 332 c 1
 356 314 329 280 329 236 c 0
 329 170 392 127 488 127 c 0
 581 127 643 170 643 236 c 0
 643 280 617 314 573 332 c 1
493 356 m 2
 485 356 l 2
 427 356 393 378 393 416 c 0
 393 459 428 483 488 483 c 0
 545 483 579 459 579 416 c 0
 579 378 547 356 493 356 c 2
493 305 m 2
 554 305 589 282 589 240 c 0
 589 201 551 178 488 178 c 0
 420 178 383 201 383 240 c 0
 383 282 420 305 485 305 c 2
 493 305 l 2
EndSplineSet
EndChar

StartChar: uni277E
Encoding: 10110 10110 682
GlifName: uni277E_
Width: 844
GlyphClass: 2
Flags: HW
LayerCount: 2
Fore
SplineSet
862 333 m 0
 862 105 707 -51 481 -51 c 0
 258 -51 110 98 110 322 c 0
 110 553 265 715 488 715 c 0
 709 715 862 558 862 333 c 0
643 314 m 0
 643 449 577 535 475 535 c 0
 390 535 329 478 329 399 c 0
 329 321 388 265 470 265 c 0
 523 265 570 296 589 346 c 1
 590 338 591 328 591 319 c 0
 591 224 553 178 474 178 c 0
 424 178 393 196 384 231 c 1
 330 231 l 1
 343 166 398 127 474 127 c 0
 580 127 643 196 643 314 c 0
569 398 m 0
 569 349 531 316 475 316 c 0
 421 316 386 349 386 398 c 0
 386 448 421 481 475 481 c 0
 528 481 569 445 569 398 c 0
EndSplineSet
EndChar

StartChar: filledbox
Encoding: 9632 9632 683
GlifName: filledbox
Width: 844
GlyphClass: 2
Flags: HW
LayerCount: 2
Fore
SplineSet
862 -41 m 1
 110 -41 l 1
 110 707 l 1
 862 707 l 1
 862 -41 l 1
EndSplineSet
EndChar

StartChar: H22073
Encoding: 9633 9633 684
GlifName: H_22073
Width: 844
GlyphClass: 2
Flags: HW
LayerCount: 2
Fore
SplineSet
811 10 m 1
 811 655 l 1
 161 655 l 1
 161 10 l 1
 811 10 l 1
862 -41 m 1
 110 -41 l 1
 110 707 l 1
 862 707 l 1
 862 -41 l 1
EndSplineSet
EndChar

StartChar: triagup
Encoding: 9650 9650 685
GlifName: triagup
Width: 844
GlyphClass: 2
Flags: HW
LayerCount: 2
Fore
SplineSet
862 -41 m 1
 110 -41 l 1
 485 707 l 1
 862 -41 l 1
EndSplineSet
EndChar

StartChar: uni25B3
Encoding: 9651 9651 686
GlifName: uni25B_3
Width: 844
GlyphClass: 2
Flags: HW
LayerCount: 2
Fore
SplineSet
780 10 m 1
 485 594 l 1
 191 10 l 1
 780 10 l 1
862 -41 m 1
 110 -41 l 1
 485 707 l 1
 862 -41 l 1
EndSplineSet
EndChar

StartChar: uni25B6
Encoding: 9654 9654 687
GlifName: uni25B_6
Width: 844
GlyphClass: 2
Flags: HW
LayerCount: 2
Fore
SplineSet
112 -44 m 1
 112 709 l 1
 860 333 l 1
 112 -44 l 1
EndSplineSet
EndChar

StartChar: uni25B7
Encoding: 9655 9655 688
GlifName: uni25B_7
Width: 844
GlyphClass: 2
Flags: HW
LayerCount: 2
Fore
SplineSet
163 38 m 1
 747 333 l 5
 163 627 l 1
 163 38 l 1
112 -44 m 1
 112 709 l 1
 860 333 l 1
 112 -44 l 1
EndSplineSet
EndChar

StartChar: triagdn
Encoding: 9660 9660 689
GlifName: triagdn
Width: 844
GlyphClass: 2
Flags: HW
LayerCount: 2
Fore
SplineSet
110 707 m 1
 862 707 l 1
 486 -41 l 1
 110 707 l 1
EndSplineSet
EndChar

StartChar: uni25BD
Encoding: 9661 9661 690
GlifName: uni25B_D_
Width: 844
GlyphClass: 2
Flags: HW
LayerCount: 2
Fore
SplineSet
191 655 m 1
 486 72 l 5
 780 655 l 1
 191 655 l 1
110 707 m 1
 862 707 l 1
 486 -41 l 1
 110 707 l 1
EndSplineSet
EndChar

StartChar: uni25C0
Encoding: 9664 9664 691
GlifName: uni25C_0
Width: 844
GlyphClass: 2
Flags: HW
LayerCount: 2
Fore
SplineSet
860 709 m 1
 860 -44 l 1
 112 332 l 1
 860 709 l 1
EndSplineSet
EndChar

StartChar: uni25C1
Encoding: 9665 9665 692
GlifName: uni25C_1
Width: 844
GlyphClass: 2
Flags: HW
LayerCount: 2
Fore
SplineSet
808 627 m 1
 225 332 l 5
 808 38 l 1
 808 627 l 1
860 709 m 1
 860 -44 l 1
 112 332 l 1
 860 709 l 1
EndSplineSet
EndChar

StartChar: uni25C6
Encoding: 9670 9670 693
GlifName: uni25C_6
Width: 844
GlyphClass: 2
Flags: HW
LayerCount: 2
Fore
SplineSet
862 333 m 1
 481 -51 l 1
 110 323 l 1
 487 715 l 1
 862 333 l 1
EndSplineSet
EndChar

StartChar: uni25C7
Encoding: 9671 9671 694
GlifName: uni25C_7
Width: 844
GlyphClass: 2
Flags: HW
LayerCount: 2
Fore
SplineSet
862 333 m 1
 481 -51 l 1
 110 323 l 1
 487 715 l 1
 862 333 l 1
479 27 m 1
 785 335 l 1
 487 637 l 1
 187 328 l 1
 479 27 l 1
EndSplineSet
EndChar

StartChar: lozenge
Encoding: 9674 9674 695
GlifName: lozenge
Width: 619
GlyphClass: 2
Flags: HW
LayerCount: 2
Fore
SplineSet
367 16 m 5
 575 336 l 1
 375 647 l 1
 170 329 l 1
 367 16 l 5
637 337 m 1
 389 -51 l 1
 348 -51 l 1
 110 327 l 1
 354 715 l 1
 395 715 l 1
 637 337 l 1
EndSplineSet
EndChar

StartChar: circle
Encoding: 9675 9675 696
GlifName: circle
Width: 844
GlyphClass: 2
Flags: HW
LayerCount: 2
Fore
SplineSet
480 3 m 4
 675 3 808 137 808 334 c 4
 808 529 679 660 486 660 c 4
 293 660 164 528 164 329 c 4
 164 132 289 3 480 3 c 4
862 333 m 4
 862 105 707 -51 481 -51 c 4
 258 -51 110 98 110 322 c 4
 110 553 265 715 488 715 c 4
 709 715 862 558 862 333 c 4
EndSplineSet
EndChar

StartChar: H18533
Encoding: 9679 9679 697
GlifName: H_18533
Width: 844
GlyphClass: 2
Flags: HW
LayerCount: 2
Fore
SplineSet
862 333 m 0
 862 105 707 -51 481 -51 c 0
 258 -51 110 98 110 322 c 0
 110 553 265 715 488 715 c 0
 709 715 862 558 862 333 c 0
EndSplineSet
EndChar

StartChar: uni25D0
Encoding: 9680 9680 698
GlifName: uni25D_0
Width: 844
GlyphClass: 2
Flags: HW
LayerCount: 2
Fore
SplineSet
480 3 m 5
 675 3 808 137 808 334 c 0
 808 529 679 660 486 660 c 5
 480 3 l 5
862 333 m 0
 862 105 707 -51 481 -51 c 0
 258 -51 110 98 110 322 c 0
 110 553 265 715 488 715 c 0
 709 715 862 558 862 333 c 0
EndSplineSet
EndChar

StartChar: uni25D1
Encoding: 9681 9681 699
GlifName: uni25D_1
Width: 844
GlyphClass: 2
Flags: HW
LayerCount: 2
Fore
SplineSet
491 660 m 5
 296 660 164 526 164 329 c 0
 164 134 293 3 486 3 c 5
 491 660 l 5
110 331 m 0
 110 559 265 715 491 715 c 0
 714 715 862 565 862 341 c 0
 862 110 707 -51 484 -51 c 0
 263 -51 110 106 110 331 c 0
EndSplineSet
EndChar

StartChar: uni25D2
Encoding: 9682 9682 700
GlifName: uni25D_2
Width: 844
GlyphClass: 2
Flags: HW
LayerCount: 2
Fore
SplineSet
808 334 m 1
 808 529 679 660 486 660 c 0
 293 660 164 528 164 329 c 1
 808 334 l 1
862 333 m 0
 862 105 707 -51 481 -51 c 0
 258 -51 110 98 110 322 c 0
 110 553 265 715 488 715 c 0
 709 715 862 558 862 333 c 0
EndSplineSet
EndChar

StartChar: uni25D3
Encoding: 9683 9683 701
GlifName: uni25D_3
Width: 844
GlyphClass: 2
Flags: HW
LayerCount: 2
Fore
SplineSet
164 329 m 1
 164 134 293 3 486 3 c 0
 679 3 808 135 808 334 c 1
 164 329 l 1
110 331 m 0
 110 559 265 715 491 715 c 0
 714 715 862 565 862 341 c 0
 862 110 707 -51 484 -51 c 0
 263 -51 110 106 110 331 c 0
EndSplineSet
EndChar

StartChar: uni25E2
Encoding: 9698 9698 702
GlifName: uni25E_2
Width: 844
GlyphClass: 2
Flags: HW
LayerCount: 2
Fore
SplineSet
862 -41 m 1
 110 -41 l 1
 862 707 l 1
 862 -41 l 1
EndSplineSet
EndChar

StartChar: uni25E3
Encoding: 9699 9699 703
GlifName: uni25E_3
Width: 844
GlyphClass: 2
Flags: HW
LayerCount: 2
Fore
SplineSet
112 -44 m 1
 112 709 l 1
 860 -44 l 1
 112 -44 l 1
EndSplineSet
EndChar

StartChar: uni25E4
Encoding: 9700 9700 704
GlifName: uni25E_4
Width: 844
GlyphClass: 2
Flags: HW
LayerCount: 2
Fore
SplineSet
110 707 m 1
 862 707 l 5
 110 -41 l 5
 110 707 l 1
EndSplineSet
EndChar

StartChar: uni25E5
Encoding: 9701 9701 705
GlifName: uni25E_5
Width: 844
GlyphClass: 2
Flags: HW
LayerCount: 2
Fore
SplineSet
860 709 m 1
 860 -44 l 5
 112 709 l 5
 860 709 l 1
EndSplineSet
EndChar

StartChar: uni00B2
Encoding: 178 178 706
GlifName: uni00B_2
Width: 385
GlyphClass: 2
Flags: HW
LayerCount: 2
Fore
SplineSet
89 422 m 5
 345 422 l 1
 345 373 l 1
 36 373 l 1
 36 387 l 2
 36 491 123 521 197 550 c 0
 250 570 295 592 295 640 c 0
 295 691 260 721 200 721 c 0
 135 721 93 686 90 631 c 1
 36 631 l 1
 42 715 110 772 200 772 c 0
 289 772 349 718 349 636 c 0
 349 568 283 534 217 506 c 0
 152 479 98 459 89 422 c 5
EndSplineSet
EndChar

StartChar: uni00B3
Encoding: 179 179 707
GlifName: uni00B_3
Width: 386
GlyphClass: 2
Flags: HW
LayerCount: 2
Fore
SplineSet
271 593 m 5
 271 542 l 5
 166 542 l 1
 166 593 l 1
 271 593 l 5
227 552 m 1
 227 593 l 1
 264 593 286 613 286 649 c 0
 286 695 251 722 191 722 c 0
 135 722 98 694 96 651 c 1
 42 651 l 1
 48 723 108 773 191 773 c 0
 280 773 340 724 340 649 c 0
 340 591 294 552 227 552 c 1
227 583 m 1
 301 583 350 542 350 481 c 0
 350 411 288 365 195 365 c 0
 107 365 42 411 36 479 c 1
 90 479 l 1
 93 440 134 416 195 416 c 0
 259 416 296 439 296 481 c 0
 296 520 271 542 227 542 c 1
 227 583 l 1
EndSplineSet
EndChar

StartChar: uni00B9
Encoding: 185 185 708
GlifName: uni00B_9
Width: 225
GlyphClass: 2
Flags: HW
LayerCount: 2
Fore
SplineSet
138 768 m 5
 189 768 l 5
 189 373 l 5
 138 373 l 5
 138 639 l 5
 26 639 l 5
 26 683 l 5
 70 683 l 6
 115 683 138 695 138 736 c 6
 138 768 l 5
EndSplineSet
EndChar

StartChar: zero.dnom
Encoding: 65736 -1 709
GlifName: zero.dnom
Width: 394
GlyphClass: 2
Flags: HW
LayerCount: 2
Fore
SplineSet
36 197 m 4
 36 319 101 399 198 399 c 4
 294 399 358 319 358 197 c 4
 358 74 294 -8 198 -8 c 4
 101 -8 36 74 36 197 c 4
304 197 m 4
 304 293 266 348 198 348 c 4
 130 348 90 293 90 197 c 4
 90 100 130 43 198 43 c 4
 266 43 304 100 304 197 c 4
EndSplineSet
EndChar

StartChar: one.dnom
Encoding: 65737 -1 710
GlifName: one.dnom
Width: 225
GlyphClass: 2
Flags: HW
LayerCount: 2
Fore
SplineSet
138 395 m 5
 189 395 l 5
 189 0 l 5
 138 0 l 5
 138 266 l 5
 26 266 l 5
 26 310 l 5
 70 310 l 6
 115 310 138 323 138 364 c 6
 138 395 l 5
EndSplineSet
EndChar

StartChar: two.dnom
Encoding: 65738 -1 711
GlifName: two.dnom
Width: 385
GlyphClass: 2
Flags: HW
LayerCount: 2
Fore
SplineSet
89 49 m 5
 345 49 l 1
 345 0 l 1
 36 0 l 1
 36 14 l 2
 36 118 123 148 197 177 c 0
 250 197 295 219 295 267 c 0
 295 318 260 348 200 348 c 0
 135 348 93 313 90 258 c 1
 36 258 l 1
 42 342 110 399 200 399 c 0
 289 399 349 345 349 263 c 0
 349 195 283 161 217 133 c 0
 152 106 98 86 89 49 c 5
EndSplineSet
EndChar

StartChar: three.dnom
Encoding: 65739 -1 712
GlifName: three.dnom
Width: 386
GlyphClass: 2
Flags: HW
LayerCount: 2
Fore
SplineSet
271 220 m 5
 271 169 l 5
 166 169 l 1
 166 220 l 1
 271 220 l 5
227 179 m 1
 227 220 l 1
 264 220 286 240 286 276 c 0
 286 322 251 349 191 349 c 0
 135 349 98 322 96 279 c 1
 42 279 l 1
 48 351 108 400 191 400 c 0
 280 400 340 351 340 276 c 0
 340 218 294 179 227 179 c 1
227 210 m 1
 301 210 350 170 350 109 c 0
 350 39 288 -8 195 -8 c 0
 107 -8 42 38 36 106 c 1
 90 106 l 1
 93 67 134 43 195 43 c 0
 259 43 296 67 296 109 c 0
 296 148 271 169 227 169 c 1
 227 210 l 1
EndSplineSet
EndChar

StartChar: four.dnom
Encoding: 65740 -1 713
GlifName: four.dnom
Width: 403
GlyphClass: 2
Flags: HW
LayerCount: 2
Fore
SplineSet
292 100 m 1
 292 0 l 1
 241 0 l 1
 241 100 l 1
 36 100 l 1
 36 159 l 1
 230 395 l 1
 292 395 l 1
 292 148 l 1
 368 148 l 1
 368 100 l 1
 292 100 l 1
241 148 m 1
 241 332 l 1
 90 148 l 1
 241 148 l 1
EndSplineSet
EndChar

StartChar: five.dnom
Encoding: 65741 -1 714
GlifName: five.dnom
Width: 371
GlyphClass: 2
Flags: HW
LayerCount: 2
Fore
SplineSet
282 132 m 0
 282 73 247 43 187 43 c 0
 129 43 92 67 90 106 c 1
 36 106 l 1
 42 38 102 -8 187 -8 c 0
 275 -8 336 45 336 133 c 0
 336 213 284 271 201 271 c 0
 154 271 116 252 92 221 c 1
 105 346 l 1
 316 346 l 1
 316 395 l 1
 61 395 l 1
 36 166 l 1
 86 166 l 1
 106 199 144 220 194 220 c 0
 251 220 282 186 282 132 c 0
EndSplineSet
EndChar

StartChar: six.dnom
Encoding: 65742 -1 715
GlifName: six.dnom
Width: 386
GlyphClass: 2
Flags: HW
LayerCount: 2
Fore
SplineSet
36 191 m 0
 36 322 98 399 205 399 c 0
 277 399 329 358 342 290 c 1
 288 290 l 1
 280 328 251 348 205 348 c 0
 128 348 90 299 90 197 c 0
 90 188 91 179 92 170 c 1
 111 221 158 252 211 252 c 0
 292 252 350 198 350 122 c 0
 350 46 292 -8 211 -8 c 0
 104 -8 36 69 36 191 c 0
113 122 m 0
 113 77 153 44 207 44 c 0
 261 44 296 75 296 122 c 0
 296 169 261 200 207 200 c 0
 151 200 113 168 113 122 c 0
EndSplineSet
EndChar

StartChar: seven.dnom
Encoding: 65743 -1 716
GlifName: seven.dnom
Width: 395
GlyphClass: 2
Flags: HW
LayerCount: 2
Fore
SplineSet
182 0 m 5
 195 137 262 245 359 336 c 5
 359 395 l 5
 36 395 l 5
 36 346 l 5
 307 346 l 5
 222 261 149 166 127 0 c 5
 182 0 l 5
EndSplineSet
EndChar

StartChar: eight.dnom
Encoding: 65744 -1 717
GlifName: eight.dnom
Width: 386
GlyphClass: 2
Flags: HW
LayerCount: 2
Fore
SplineSet
196 399 m 1
 196 348 l 1
 135 348 100 324 100 281 c 0
 100 243 135 221 193 221 c 1
 193 180 l 1
 105 180 46 223 46 286 c 0
 46 354 106 399 196 399 c 1
196 43 m 1
 196 -8 l 1
 100 -8 36 35 36 100 c 0
 36 166 99 211 193 211 c 1
 193 170 l 1
 128 170 90 146 90 104 c 0
 90 65 129 43 196 43 c 1
210 221 m 1
 210 170 l 1
 182 170 l 1
 182 221 l 1
 210 221 l 1
196 399 m 1
 283 399 340 354 340 286 c 0
 340 223 284 180 200 180 c 1
 200 221 l 1
 255 221 286 243 286 281 c 0
 286 324 254 348 196 348 c 1
 196 399 l 1
196 43 m 1
 260 43 296 65 296 104 c 0
 296 146 261 170 200 170 c 1
 200 211 l 1
 290 211 350 166 350 100 c 0
 350 35 289 -8 196 -8 c 1
 196 43 l 1
EndSplineSet
EndChar

StartChar: nine.dnom
Encoding: 65745 -1 718
GlifName: nine.dnom
Width: 386
GlyphClass: 2
Flags: HW
LayerCount: 2
Fore
SplineSet
350 179 m 0
 350 61 288 -8 181 -8 c 0
 105 -8 50 31 37 96 c 1
 91 96 l 1
 100 61 131 43 181 43 c 0
 259 43 298 89 298 184 c 0
 298 193 297 202 296 211 c 1
 277 161 230 130 177 130 c 0
 95 130 36 186 36 264 c 0
 36 342 97 399 182 399 c 0
 284 399 350 314 350 179 c 0
276 263 m 0
 276 310 236 346 182 346 c 0
 128 346 93 313 93 263 c 0
 93 214 128 181 182 181 c 0
 238 181 276 214 276 263 c 0
EndSplineSet
EndChar

StartChar: zero.numr
Encoding: 65746 -1 719
GlifName: zero.numr
Width: 394
GlyphClass: 2
Flags: HW
LayerCount: 2
Fore
SplineSet
36 467 m 4
 36 589 101 670 198 670 c 4
 294 670 358 589 358 467 c 4
 358 344 294 262 198 262 c 4
 101 262 36 344 36 467 c 4
304 467 m 4
 304 563 266 618 198 618 c 4
 130 618 90 563 90 467 c 4
 90 370 130 313 198 313 c 4
 266 313 304 370 304 467 c 4
EndSplineSet
EndChar

StartChar: one.numr
Encoding: 65747 -1 720
GlifName: one.numr
Width: 225
GlyphClass: 2
Flags: HW
LayerCount: 2
Fore
SplineSet
138 666 m 5
 189 666 l 5
 189 270 l 5
 138 270 l 5
 138 537 l 5
 26 537 l 5
 26 581 l 5
 70 581 l 6
 115 581 138 593 138 634 c 6
 138 666 l 5
EndSplineSet
EndChar

StartChar: two.numr
Encoding: 65748 -1 721
GlifName: two.numr
Width: 385
GlyphClass: 2
Flags: HW
LayerCount: 2
Fore
SplineSet
89 319 m 5
 345 319 l 1
 345 270 l 1
 36 270 l 1
 36 285 l 2
 36 389 123 418 197 447 c 0
 250 467 295 490 295 538 c 0
 295 589 260 618 200 618 c 0
 135 618 93 583 90 528 c 1
 36 528 l 1
 42 612 110 670 200 670 c 0
 289 670 349 616 349 534 c 0
 349 466 283 431 217 403 c 0
 152 376 98 356 89 319 c 5
EndSplineSet
EndChar

StartChar: three.numr
Encoding: 65749 -1 722
GlifName: three.numr
Width: 386
GlyphClass: 2
Flags: HW
LayerCount: 2
Fore
SplineSet
271 490 m 5
 271 439 l 5
 166 439 l 1
 166 490 l 1
 271 490 l 5
227 450 m 1
 227 490 l 1
 264 490 286 511 286 547 c 0
 286 593 251 620 191 620 c 0
 135 620 98 592 96 549 c 1
 42 549 l 1
 48 621 108 671 191 671 c 0
 280 671 340 622 340 547 c 0
 340 489 294 450 227 450 c 1
227 480 m 1
 301 480 350 440 350 379 c 0
 350 309 288 262 195 262 c 0
 107 262 42 309 36 377 c 1
 90 377 l 1
 93 338 134 313 195 313 c 0
 259 313 296 337 296 379 c 0
 296 418 271 439 227 439 c 1
 227 480 l 1
EndSplineSet
EndChar

StartChar: four.numr
Encoding: 65750 -1 723
GlifName: four.numr
Width: 403
GlyphClass: 2
Flags: HW
LayerCount: 2
Fore
SplineSet
292 371 m 1
 292 270 l 1
 241 270 l 1
 241 371 l 1
 36 371 l 1
 36 429 l 1
 230 666 l 1
 292 666 l 1
 292 419 l 1
 368 419 l 1
 368 371 l 1
 292 371 l 1
241 419 m 1
 241 602 l 1
 90 419 l 1
 241 419 l 1
EndSplineSet
EndChar

StartChar: five.numr
Encoding: 65751 -1 724
GlifName: five.numr
Width: 371
GlyphClass: 2
Flags: HW
LayerCount: 2
Fore
SplineSet
282 402 m 0
 282 343 247 313 187 313 c 0
 129 313 92 338 90 377 c 1
 36 377 l 1
 42 309 102 262 187 262 c 0
 275 262 336 315 336 403 c 0
 336 483 284 542 201 542 c 0
 154 542 116 523 92 492 c 1
 105 616 l 1
 316 616 l 1
 316 666 l 1
 61 666 l 1
 36 436 l 1
 86 436 l 1
 106 469 144 490 194 490 c 0
 251 490 282 456 282 402 c 0
EndSplineSet
EndChar

StartChar: six.numr
Encoding: 65752 -1 725
GlifName: six.numr
Width: 386
GlyphClass: 2
Flags: HW
LayerCount: 2
Fore
SplineSet
36 462 m 0
 36 593 98 670 205 670 c 0
 277 670 329 628 342 560 c 1
 288 560 l 1
 280 598 251 618 205 618 c 0
 128 618 90 569 90 467 c 0
 90 458 91 449 92 440 c 1
 111 491 158 522 211 522 c 0
 292 522 350 468 350 392 c 0
 350 316 292 262 211 262 c 0
 104 262 36 340 36 462 c 0
113 392 m 0
 113 347 153 314 207 314 c 0
 261 314 296 345 296 392 c 0
 296 439 261 470 207 470 c 0
 151 470 113 438 113 392 c 0
EndSplineSet
EndChar

StartChar: seven.numr
Encoding: 65753 -1 726
GlifName: seven.numr
Width: 395
GlyphClass: 2
Flags: HW
LayerCount: 2
Fore
SplineSet
182 270 m 5
 195 407 262 515 359 606 c 5
 359 666 l 5
 36 666 l 5
 36 616 l 5
 307 616 l 5
 222 531 149 436 127 270 c 5
 182 270 l 5
EndSplineSet
EndChar

StartChar: eight.numr
Encoding: 65754 -1 727
GlifName: eight.numr
Width: 386
GlyphClass: 2
Flags: HW
LayerCount: 2
Fore
SplineSet
196 670 m 1
 196 618 l 1
 135 618 100 594 100 551 c 0
 100 513 135 492 193 492 c 1
 193 451 l 1
 105 451 46 493 46 556 c 0
 46 624 106 670 196 670 c 1
196 313 m 1
 196 262 l 1
 100 262 36 306 36 371 c 0
 36 437 99 481 193 481 c 1
 193 440 l 1
 128 440 90 417 90 375 c 0
 90 336 129 313 196 313 c 1
210 492 m 1
 210 440 l 1
 182 440 l 1
 182 492 l 1
 210 492 l 1
196 670 m 1
 283 670 340 624 340 556 c 0
 340 493 284 451 200 451 c 1
 200 492 l 1
 255 492 286 513 286 551 c 0
 286 594 254 618 196 618 c 1
 196 670 l 1
196 313 m 1
 260 313 296 336 296 375 c 0
 296 417 261 440 200 440 c 1
 200 481 l 1
 290 481 350 437 350 371 c 0
 350 306 289 262 196 262 c 1
 196 313 l 1
EndSplineSet
EndChar

StartChar: nine.numr
Encoding: 65755 -1 728
GlifName: nine.numr
Width: 386
GlyphClass: 2
Flags: HW
LayerCount: 2
Fore
SplineSet
350 450 m 0
 350 332 288 262 181 262 c 0
 105 262 50 302 37 367 c 1
 91 367 l 1
 100 332 131 313 181 313 c 0
 259 313 298 360 298 455 c 0
 298 464 297 472 296 481 c 1
 277 431 230 400 177 400 c 0
 95 400 36 457 36 535 c 0
 36 613 97 670 182 670 c 0
 284 670 350 585 350 450 c 0
276 534 m 0
 276 581 236 616 182 616 c 0
 128 616 93 584 93 534 c 0
 93 485 128 452 182 452 c 0
 238 452 276 485 276 534 c 0
EndSplineSet
EndChar

StartChar: onequarter
Encoding: 188 188 730
GlifName: onequarter
Width: 854
GlyphClass: 2
Flags: HW
LayerCount: 2
Fore
SplineSet
742 100 m 1
 742 0 l 1
 691 0 l 1
 691 100 l 1
 486 100 l 1
 486 159 l 1
 681 395 l 1
 742 395 l 1
 742 148 l 1
 818 148 l 1
 818 100 l 1
 742 100 l 1
691 148 m 1
 691 332 l 1
 541 148 l 1
 691 148 l 1
200 666 m 1
 251 666 l 1
 251 270 l 1
 200 270 l 1
 200 537 l 1
 87 537 l 1
 87 581 l 1
 131 581 l 2
 176 581 200 593 200 634 c 2
 200 666 l 1
536 666 m 1
 593 666 l 1
 318 0 l 1
 261 0 l 1
 536 666 l 1
EndSplineSet
EndChar

StartChar: onehalf
Encoding: 189 189 731
GlifName: onehalf
Width: 854
GlyphClass: 2
Flags: HW
LayerCount: 2
Fore
SplineSet
555 49 m 5
 811 49 l 5
 811 0 l 5
 502 0 l 5
 502 14 l 6
 502 118 589 148 663 177 c 4
 716 197 761 219 761 267 c 4
 761 318 726 348 666 348 c 4
 601 348 559 313 556 258 c 5
 502 258 l 5
 508 342 576 399 666 399 c 4
 755 399 815 345 815 263 c 4
 815 195 749 161 683 133 c 4
 618 106 564 86 555 49 c 5
200 666 m 1
 251 666 l 1
 251 270 l 1
 200 270 l 1
 200 537 l 1
 87 537 l 1
 87 581 l 1
 131 581 l 2
 176 581 200 593 200 634 c 2
 200 666 l 1
536 666 m 1
 593 666 l 1
 318 0 l 1
 261 0 l 1
 536 666 l 1
EndSplineSet
EndChar

StartChar: threequarters
Encoding: 190 190 732
GlifName: threequarters
Width: 854
GlyphClass: 2
Flags: HW
LayerCount: 2
Fore
SplineSet
271 490 m 1
 271 439 l 1
 166 439 l 1
 166 490 l 1
 271 490 l 1
227 450 m 1
 227 490 l 1
 264 490 286 511 286 547 c 0
 286 593 251 620 191 620 c 0
 135 620 98 592 96 549 c 1
 42 549 l 1
 48 621 108 671 191 671 c 0
 280 671 340 622 340 547 c 0
 340 489 294 450 227 450 c 1
227 480 m 1
 301 480 350 440 350 379 c 0
 350 309 288 262 195 262 c 0
 107 262 42 309 36 377 c 1
 90 377 l 1
 93 338 134 313 195 313 c 0
 259 313 296 337 296 379 c 0
 296 418 271 439 227 439 c 1
 227 480 l 1
742 100 m 1
 742 0 l 1
 691 0 l 1
 691 100 l 1
 486 100 l 1
 486 159 l 1
 681 395 l 1
 742 395 l 1
 742 148 l 1
 818 148 l 1
 818 100 l 1
 742 100 l 1
691 148 m 1
 691 332 l 1
 541 148 l 1
 691 148 l 1
536 666 m 1
 593 666 l 1
 318 0 l 1
 261 0 l 1
 536 666 l 1
EndSplineSet
EndChar

StartChar: section
Encoding: 167 167 733
GlifName: section
Width: 501
GlyphClass: 2
Flags: HW
LayerCount: 2
Fore
SplineSet
298 472 m 2
 374 462 l 2
 469 448 513 414 513 353 c 4
 513 273 438 218 330 218 c 1
 335 249 l 1
 407 249 459 291 459 347 c 0
 459 381 430 399 359 409 c 2
 285 419 l 2
 194 433 149 469 149 530 c 0
 149 616 231 676 347 676 c 0
 474 676 548 620 548 524 c 1
 493 524 l 1
 493 592 446 626 353 626 c 0
 263 626 203 588 203 533 c 0
 203 500 233 481 298 472 c 2
322 196 m 2
 246 206 l 2
 151 220 107 254 107 314 c 0
 107 391 181 443 289 443 c 1
 285 419 l 1
 213 419 160 377 160 321 c 0
 160 287 189 269 260 259 c 2
 335 249 l 2
 426 235 470 199 470 138 c 0
 470 52 388 -8 272 -8 c 0
 144 -8 72 46 72 143 c 1
 127 143 l 1
 127 75 172 42 266 42 c 0
 356 42 417 79 417 134 c 0
 417 167 387 187 322 196 c 2
EndSplineSet
EndChar

StartChar: guillemotleft
Encoding: 171 171 734
GlifName: guillemotleft
Width: 583
GlyphClass: 2
Flags: HW
LayerCount: 2
Fore
SplineSet
638 512 m 1
 625 439 l 1
 400 274 l 1
 566 105 l 1
 555 41 l 1
 346 248 l 1
 356 305 l 1
 638 512 l 1
372 512 m 1
 359 439 l 1
 133 274 l 1
 300 105 l 1
 289 41 l 1
 80 248 l 1
 90 305 l 1
 372 512 l 1
EndSplineSet
EndChar

StartChar: guillemotright
Encoding: 187 187 735
GlifName: guillemotright
Width: 583
GlyphClass: 2
Flags: HW
LayerCount: 2
Fore
SplineSet
43 41 m 1
 56 114 l 1
 282 279 l 1
 115 447 l 1
 126 512 l 1
 335 305 l 1
 325 248 l 1
 43 41 l 1
309 41 m 1
 322 114 l 1
 548 279 l 1
 381 447 l 1
 392 512 l 1
 602 305 l 1
 592 248 l 1
 309 41 l 1
EndSplineSet
EndChar

StartChar: plusminus
Encoding: 177 177 736
GlifName: plusminus
Width: 559
GlyphClass: 2
Flags: HW
LayerCount: 2
Fore
SplineSet
523 0 m 1
 515 -49 l 1
 27 -49 l 1
 36 0 l 1
 523 0 l 1
358 307 m 1
 577 307 l 1
 569 258 l 1
 350 258 l 1
 311 39 l 1
 262 39 l 1
 300 258 l 1
 81 258 l 1
 90 307 l 1
 309 307 l 1
 348 526 l 1
 397 526 l 1
 358 307 l 1
EndSplineSet
EndChar

StartChar: dieresis
Encoding: 168 168 737
GlifName: dieresis
Width: 340
GlyphClass: 2
Flags: HW
LayerCount: 2
Fore
SplineSet
240 584 m 1
 305 584 l 1
 305 512 l 1
 240 512 l 1
 240 584 l 1
36 584 m 1
 101 584 l 1
 101 512 l 1
 36 512 l 1
 36 584 l 1
EndSplineSet
EndChar

StartChar: copyright
Encoding: 169 169 738
GlifName: copyright
Width: 844
GlyphClass: 2
Flags: HW
LayerCount: 2
Fore
SplineSet
292 332 m 0
 292 460 368 545 483 545 c 0
 585 545 660 478 668 380 c 5
 613 380 l 5
 610 449 559 494 483 494 c 0
 395 494 346 435 346 332 c 0
 346 228 396 168 483 168 c 0
 559 168 609 208 613 272 c 5
 668 272 l 5
 659 178 585 117 483 117 c 0
 368 117 292 203 292 332 c 0
480 3 m 0
 675 3 808 137 808 334 c 0
 808 529 679 660 486 660 c 0
 293 660 164 528 164 329 c 0
 164 132 289 3 480 3 c 0
862 333 m 0
 862 105 707 -51 481 -51 c 0
 258 -51 110 98 110 322 c 0
 110 553 265 715 488 715 c 0
 709 715 862 558 862 333 c 0
EndSplineSet
EndChar

StartChar: ordfeminine
Encoding: 170 170 739
GlifName: ordfeminine
Width: 435
GlyphClass: 2
Flags: HW
LayerCount: 2
Fore
SplineSet
448 382 m 2
 440 336 438 298 441 271 c 1
 388 271 l 1
 386 300 389 333 396 374 c 2
 424 535 l 2
 432 583 392 620 333 620 c 0
 260 620 218 594 201 540 c 1
 145 540 l 1
 165 620 236 671 335 671 c 0
 425 671 489 612 475 534 c 2
 448 382 l 2
442 435 m 1
 425 338 341 261 245 261 c 0
 162 261 111 305 111 365 c 0
 111 434 164 482 237 487 c 2
 364 496 l 2
 403 499 420 508 424 532 c 1
 410 450 l 1
 244 438 l 2
 193 435 165 410 165 369 c 0
 165 334 198 312 250 312 c 0
 328 312 393 364 406 435 c 1
 442 435 l 1
EndSplineSet
Substitution2: "ss01StyleSet1inLatinlookup0 subtable" ordfeminine.ss01
EndChar

StartChar: logicalnot
Encoding: 172 172 740
GlifName: logicalnot
Width: 524
GlyphClass: 2
Flags: HW
LayerCount: 2
Fore
SplineSet
483 258 m 1
 81 258 l 1
 90 307 l 1
 543 307 l 1
 513 137 l 1
 461 137 l 1
 483 258 l 1
EndSplineSet
EndChar

StartChar: uni00AD
Encoding: 173 173 741
GlifName: uni00A_D_
Width: 387
GlyphClass: 2
Flags: HW
LayerCount: 2
Fore
SplineSet
90 307 m 1
 405 307 l 1
 397 258 l 1
 81 258 l 1
 90 307 l 1
EndSplineSet
EndChar

StartChar: registered
Encoding: 174 174 742
GlifName: registered
Width: 844
GlyphClass: 2
Flags: HW
LayerCount: 2
Fore
SplineSet
512 290 m 1
 546 310 l 1
 621 310 649 287 657 219 c 2
 668 136 l 1
 616 136 l 1
 607 212 l 2
 601 267 573 290 512 290 c 1
536 485 m 2
 386 485 l 1
 386 339 l 1
 536 339 l 2
 585 339 613 368 613 418 c 0
 613 461 585 485 536 485 c 2
546 300 m 1
 538 290 l 1
 386 290 l 1
 386 136 l 1
 335 136 l 1
 335 535 l 1
 541 535 l 2
 617 535 668 488 668 418 c 0
 668 347 619 300 546 300 c 1
480 3 m 0
 675 3 808 137 808 334 c 0
 808 529 679 660 486 660 c 0
 293 660 164 528 164 329 c 0
 164 132 289 3 480 3 c 0
862 333 m 0
 862 105 707 -51 481 -51 c 0
 258 -51 110 98 110 322 c 0
 110 553 265 715 488 715 c 0
 709 715 862 558 862 333 c 0
EndSplineSet
EndChar

StartChar: macron
Encoding: 175 175 743
GlifName: macron
Width: 378
GlyphClass: 2
Flags: HW
LayerCount: 2
Fore
SplineSet
138 580 m 1
 445 580 l 1
 437 532 l 1
 130 532 l 1
 138 580 l 1
EndSplineSet
EndChar

StartChar: acute
Encoding: 180 180 744
GlifName: acute
Width: 250
GlyphClass: 2
Flags: HW
LayerCount: 2
Fore
SplineSet
215 666 m 1
 80 512 l 1
 36 512 l 1
 151 666 l 1
 215 666 l 1
EndSplineSet
EndChar

StartChar: mu
Encoding: 181 181 745
GlifName: mu
Width: 514
GlyphClass: 2
Flags: HW
LayerCount: 2
Fore
SplineSet
147 512 m 1
 200 512 l 1
 80 -167 l 1
 28 -167 l 1
 147 512 l 1
146 213 m 1
 128 109 171 42 265 42 c 0
 360 42 426 105 441 205 c 1
 473 199 l 1
 454 79 364 -9 255 -9 c 0
 146 -9 79 88 100 208 c 1
 146 213 l 1
457 0 m 1
 406 0 l 1
 495 512 l 1
 546 512 l 1
 457 0 l 1
EndSplineSet
EndChar

StartChar: paragraph
Encoding: 182 182 746
GlifName: paragraph
Width: 479
GlyphClass: 2
Flags: HW
LayerCount: 2
Fore
SplineSet
299 340 m 1
 190 340 122 397 122 485 c 0
 122 580 202 666 335 666 c 6
 540 666 l 1
 423 0 l 1
 372 0 l 1
 480 616 l 1
 398 616 l 1
 290 0 l 1
 239 0 l 1
 299 340 l 1
EndSplineSet
EndChar

StartChar: cedilla
Encoding: 184 184 747
GlifName: cedilla
Width: 292
GlyphClass: 2
Flags: HW
LayerCount: 2
Fore
SplineSet
100 10 m 1
 146 10 l 1
 137 -56 l 1
 153 -56 l 2
 215 -56 257 -98 257 -160 c 0
 257 -229 206 -272 127 -272 c 2
 36 -272 l 1
 36 -221 l 1
 119 -221 l 2
 174 -221 203 -199 203 -158 c 0
 203 -126 181 -108 145 -108 c 2
 111 -108 l 1
 86 -77 l 1
 100 10 l 1
EndSplineSet
EndChar

StartChar: ordmasculine
Encoding: 186 186 748
GlifName: ordmasculine
Width: 435
GlyphClass: 2
Flags: HW
LayerCount: 2
Fore
SplineSet
118 434 m 4
 118 569 204 670 319 670 c 4
 420 670 486 603 486 499 c 4
 486 365 399 262 285 262 c 4
 184 262 118 330 118 434 c 4
432 499 m 4
 432 575 388 619 314 619 c 4
 230 619 172 543 172 435 c 4
 172 358 216 313 290 313 c 4
 373 313 432 390 432 499 c 4
EndSplineSet
EndChar

StartChar: ordfeminine.ss01
Encoding: 65756 -1 749
GlifName: ordfeminine.ss01
Width: 435
GlyphClass: 2
Flags: HW
LayerCount: 2
Fore
SplineSet
345 666 m 1
 396 666 l 1
 396 271 l 1
 345 271 l 1
 345 666 l 1
36 467 m 0
 36 589 107 670 214 670 c 4
 313 670 379 589 379 467 c 0
 379 344 313 262 214 262 c 4
 107 262 36 344 36 467 c 0
345 467 m 0
 345 563 299 618 218 618 c 0
 138 618 90 563 90 467 c 0
 90 370 138 313 218 313 c 0
 299 313 345 370 345 467 c 0
EndSplineSet
EndChar

StartChar: arrowleft
Encoding: 8592 8592 750
GlifName: arrowleft
Width: 798
GlyphClass: 2
Flags: HW
LayerCount: 2
Fore
SplineSet
150 321 m 1
 150 371 l 1
 816 372 l 1
 816 321 l 1
 150 321 l 1
110 346 m 5
 300 536 l 5
 335 501 l 5
 179 346 l 5
 335 190 l 5
 300 156 l 5
 110 346 l 5
EndSplineSet
EndChar

StartChar: uni2196
Encoding: 8598 8598 751
GlifName: uni2196
Width: 609
GlyphClass: 2
Flags: HW
LayerCount: 2
Fore
SplineSet
120 558 m 1
 156 594 l 1
 627 124 l 1
 591 87 l 1
 120 558 l 1
110 604 m 1
 378 604 l 1
 378 555 l 1
 159 555 l 1
 159 336 l 1
 110 336 l 1
 110 604 l 1
EndSplineSet
EndChar

StartChar: uni2197
Encoding: 8599 8599 752
GlifName: uni2197
Width: 609
GlyphClass: 2
Flags: HW
LayerCount: 2
Fore
SplineSet
581 594 m 1
 616 558 l 1
 146 87 l 1
 110 123 l 1
 581 594 l 1
627 604 m 1
 627 336 l 1
 578 336 l 1
 578 555 l 1
 358 555 l 1
 358 604 l 1
 627 604 l 1
EndSplineSet
EndChar

StartChar: uni2198
Encoding: 8600 8600 753
GlifName: uni2198
Width: 609
GlyphClass: 2
Flags: HW
LayerCount: 2
Fore
SplineSet
616 133 m 1
 581 97 l 1
 110 567 l 1
 145 604 l 1
 616 133 l 1
627 87 m 1
 358 87 l 1
 358 136 l 1
 578 136 l 1
 578 355 l 1
 627 355 l 1
 627 87 l 1
EndSplineSet
EndChar

StartChar: uni2199
Encoding: 8601 8601 754
GlifName: uni2199
Width: 609
GlyphClass: 2
Flags: HW
LayerCount: 2
Fore
SplineSet
156 97 m 1
 120 133 l 1
 590 604 l 1
 627 568 l 1
 156 97 l 1
110 87 m 1
 110 355 l 1
 159 355 l 1
 159 136 l 1
 378 136 l 1
 378 87 l 1
 110 87 l 1
EndSplineSet
EndChar

StartChar: arrowup
Encoding: 8593 8593 755
GlifName: arrowup
Width: 472
GlyphClass: 2
Flags: HW
LayerCount: 2
Fore
SplineSet
274 659 m 1
 325 659 l 1
 326 -8 l 5
 274 -8 l 1
 274 659 l 1
300 699 m 1
 489 508 l 1
 455 474 l 1
 300 629 l 1
 144 474 l 1
 110 508 l 1
 300 699 l 1
EndSplineSet
EndChar

StartChar: arrowright
Encoding: 8594 8594 756
GlifName: arrowright
Width: 798
GlyphClass: 2
Flags: HW
LayerCount: 2
Fore
SplineSet
776 371 m 1
 776 321 l 1
 110 319 l 5
 110 371 l 1
 776 371 l 1
816 345 m 1
 626 156 l 1
 591 190 l 1
 746 345 l 1
 591 501 l 1
 626 536 l 1
 816 345 l 1
EndSplineSet
EndChar

StartChar: arrowdown
Encoding: 8595 8595 757
GlifName: arrowdown
Width: 472
GlyphClass: 2
Flags: HW
LayerCount: 2
Fore
SplineSet
325 32 m 1
 274 32 l 1
 273 699 l 5
 325 699 l 1
 325 32 l 1
299 -8 m 1
 110 183 l 1
 144 218 l 1
 299 62 l 1
 455 218 l 1
 489 183 l 1
 299 -8 l 1
EndSplineSet
EndChar

StartChar: arrowboth
Encoding: 8596 8596 758
GlifName: arrowboth
Width: 798
GlyphClass: 2
Flags: HW
LayerCount: 2
Fore
SplineSet
816 345 m 1
 626 156 l 1
 591 190 l 1
 746 345 l 1
 591 501 l 1
 626 536 l 1
 816 345 l 1
150 321 m 1
 150 371 l 1
 776 371 l 1
 777 321 l 1
 150 321 l 1
110 346 m 1
 300 536 l 1
 335 501 l 1
 179 346 l 1
 335 190 l 1
 300 156 l 1
 110 346 l 1
EndSplineSet
EndChar

StartChar: arrowupdn
Encoding: 8597 8597 759
GlifName: arrowupdn
Width: 472
GlyphClass: 2
Flags: HW
LayerCount: 2
Fore
SplineSet
299 -8 m 1
 110 183 l 1
 144 218 l 1
 299 62 l 1
 455 218 l 1
 489 183 l 1
 299 -8 l 1
274 659 m 1
 325 659 l 1
 325 32 l 1
 274 31 l 1
 274 659 l 1
300 699 m 1
 489 508 l 1
 455 474 l 1
 300 629 l 1
 144 474 l 1
 110 508 l 1
 300 699 l 1
EndSplineSet
EndChar

StartChar: arrowdblleft
Encoding: 8656 8656 760
GlifName: arrowdblleft
Width: 798
GlyphClass: 2
Flags: HW
LayerCount: 2
Fore
SplineSet
217 249 m 1
 217 299 l 1
 815 300 l 1
 815 249 l 5
 217 249 l 1
217 392 m 1
 217 442 l 1
 816 443 l 1
 816 392 l 1
 217 392 l 1
110 346 m 1
 300 536 l 1
 335 501 l 1
 179 346 l 1
 335 190 l 1
 300 156 l 1
 110 346 l 1
EndSplineSet
EndChar

StartChar: arrowdblup
Encoding: 8657 8657 761
GlifName: arrowdblup
Width: 472
GlyphClass: 2
Flags: HW
LayerCount: 2
Fore
SplineSet
203 591 m 1
 253 591 l 1
 254 -7 l 1
 203 -7 l 1
 203 591 l 1
346 591 m 1
 396 591 l 1
 397 -7 l 1
 346 -7 l 5
 346 591 l 1
300 699 m 1
 489 508 l 1
 455 474 l 1
 300 629 l 1
 144 474 l 1
 110 508 l 1
 300 699 l 1
EndSplineSet
EndChar

StartChar: arrowdblright
Encoding: 8658 8658 762
GlifName: arrowdblright
Width: 798
GlyphClass: 2
Flags: HW
LayerCount: 2
Fore
SplineSet
709 442 m 1
 709 392 l 1
 111 391 l 1
 111 442 l 5
 709 442 l 1
709 299 m 1
 709 249 l 1
 110 248 l 1
 110 299 l 1
 709 299 l 1
816 345 m 1
 626 156 l 1
 591 190 l 1
 746 345 l 1
 591 501 l 1
 626 536 l 1
 816 345 l 1
EndSplineSet
EndChar

StartChar: arrowdbldown
Encoding: 8659 8659 763
GlifName: arrowdbldown
Width: 472
GlyphClass: 2
Flags: HW
LayerCount: 2
Fore
SplineSet
396 101 m 1
 346 101 l 1
 345 699 l 1
 396 699 l 1
 396 101 l 1
253 101 m 1
 203 101 l 1
 202 699 l 1
 253 699 l 5
 253 101 l 1
299 -7 m 1
 110 184 l 1
 144 219 l 1
 299 63 l 1
 455 219 l 1
 489 184 l 1
 299 -7 l 1
EndSplineSet
EndChar

StartChar: arrowdblboth
Encoding: 8660 8660 764
GlifName: arrowdblboth
Width: 798
GlyphClass: 2
Flags: HW
LayerCount: 2
Fore
SplineSet
816 345 m 1
 626 156 l 1
 591 190 l 1
 746 345 l 1
 591 501 l 1
 626 536 l 1
 816 345 l 1
217 249 m 1
 217 299 l 1
 709 300 l 1
 709 249 l 1
 217 249 l 1
217 392 m 1
 217 442 l 1
 709 443 l 1
 709 392 l 1
 217 392 l 1
110 346 m 1
 300 536 l 1
 335 501 l 1
 179 346 l 1
 335 190 l 1
 300 156 l 1
 110 346 l 1
EndSplineSet
EndChar

StartChar: uni21D5
Encoding: 8661 8661 765
GlifName: uni21D_5
Width: 472
GlyphClass: 2
Flags: HW
LayerCount: 2
Fore
SplineSet
299 -8 m 1
 110 183 l 1
 144 218 l 1
 299 62 l 1
 455 218 l 1
 489 183 l 1
 299 -8 l 1
203 591 m 1
 253 591 l 1
 254 100 l 1
 203 100 l 1
 203 591 l 1
346 591 m 1
 396 591 l 1
 397 100 l 1
 346 100 l 1
 346 591 l 1
300 699 m 1
 489 508 l 1
 455 474 l 1
 300 629 l 1
 144 474 l 1
 110 508 l 1
 300 699 l 1
EndSplineSet
EndChar

StartChar: uni21D6
Encoding: 8662 8662 766
GlifName: uni21D_6
Width: 660
GlyphClass: 2
Flags: HW
LayerCount: 2
Fore
SplineSet
117 451 m 1
 153 486 l 1
 577 65 l 1
 540 28 l 1
 117 451 l 1
218 552 m 1
 254 588 l 1
 678 165 l 1
 642 129 l 1
 218 552 l 1
110 596 m 1
 379 596 l 1
 379 547 l 1
 159 547 l 1
 159 327 l 1
 110 327 l 1
 110 596 l 1
EndSplineSet
EndChar

StartChar: uni21D7
Encoding: 8663 8663 767
GlifName: uni21D_7
Width: 660
GlyphClass: 2
Flags: HW
LayerCount: 2
Fore
SplineSet
532 589 m 1
 568 553 l 1
 146 129 l 1
 110 166 l 1
 532 589 l 1
634 487 m 1
 670 452 l 1
 247 28 l 1
 211 63 l 1
 634 487 l 1
678 596 m 1
 678 327 l 1
 629 327 l 1
 629 547 l 1
 409 547 l 1
 409 596 l 1
 678 596 l 1
EndSplineSet
EndChar

StartChar: uni21D8
Encoding: 8664 8664 768
GlifName: uni21D_8
Width: 660
GlyphClass: 2
Flags: HW
LayerCount: 2
Fore
SplineSet
671 173 m 1
 635 137 l 1
 211 559 l 1
 248 596 l 1
 671 173 l 1
569 72 m 1
 534 36 l 1
 110 459 l 1
 145 495 l 1
 569 72 l 1
678 28 m 1
 409 28 l 1
 409 77 l 1
 629 77 l 1
 629 297 l 1
 678 297 l 1
 678 28 l 1
EndSplineSet
EndChar

StartChar: uni21D9
Encoding: 8665 8665 769
GlifName: uni21D_9
Width: 660
GlyphClass: 2
Flags: HW
LayerCount: 2
Fore
SplineSet
255 35 m 1
 219 71 l 1
 641 495 l 1
 678 458 l 1
 255 35 l 1
154 136 m 1
 118 172 l 1
 541 596 l 1
 577 560 l 1
 154 136 l 1
110 28 m 1
 110 297 l 1
 159 297 l 1
 159 77 l 1
 379 77 l 1
 379 28 l 1
 110 28 l 1
EndSplineSet
EndChar

StartChar: uni21C4
Encoding: 8644 8644 770
GlifName: uni21C_4
Width: 798
GlyphClass: 2
Flags: HW
LayerCount: 2
Fore
SplineSet
150 177 m 5
 150 227 l 5
 816 228 l 5
 816 177 l 5
 150 177 l 5
110 203 m 5
 259 351 l 5
 294 316 l 5
 179 203 l 5
 294 88 l 5
 259 53 l 5
 110 203 l 5
776 483 m 1
 776 433 l 1
 110 432 l 1
 110 483 l 1
 776 483 l 1
816 458 m 1
 667 309 l 1
 632 344 l 1
 746 458 l 1
 632 572 l 1
 667 607 l 1
 816 458 l 1
EndSplineSet
EndChar

StartChar: uni21C5
Encoding: 8645 8645 771
GlifName: uni21C_5
Width: 798
GlyphClass: 2
Flags: HW
LayerCount: 2
Fore
SplineSet
310 644 m 5
 360 644 l 5
 361 -23 l 5
 310 -23 l 5
 310 644 l 5
335 684 m 5
 484 534 l 5
 449 499 l 5
 335 614 l 5
 221 499 l 5
 186 534 l 5
 335 684 l 5
616 17 m 1
 566 17 l 1
 565 684 l 1
 616 684 l 1
 616 17 l 1
590 -23 m 1
 442 126 l 1
 477 161 l 1
 590 47 l 1
 705 161 l 1
 740 126 l 1
 590 -23 l 1
EndSplineSet
EndChar

StartChar: uni21C6
Encoding: 8646 8646 772
GlifName: uni21C_6
Width: 798
GlyphClass: 2
Flags: HW
LayerCount: 2
Fore
SplineSet
776 177 m 1
 110 177 l 1
 110 228 l 1
 776 227 l 1
 776 177 l 1
816 203 m 1
 667 53 l 1
 632 88 l 1
 746 203 l 1
 632 316 l 1
 667 351 l 1
 816 203 l 1
150 483 m 1
 816 483 l 1
 816 432 l 1
 150 433 l 1
 150 483 l 1
110 458 m 1
 259 607 l 1
 294 572 l 1
 179 458 l 1
 294 344 l 1
 259 309 l 1
 110 458 l 1
EndSplineSet
EndChar

StartChar: uni21C7
Encoding: 8647 8647 773
GlifName: uni21C_7
Width: 798
GlyphClass: 2
Flags: HW
LayerCount: 2
Fore
SplineSet
150 465 m 5
 150 515 l 5
 816 516 l 5
 816 465 l 5
 150 465 l 5
110 490 m 5
 259 639 l 5
 294 604 l 5
 179 490 l 5
 294 376 l 5
 259 341 l 5
 110 490 l 5
150 157 m 5
 150 207 l 5
 816 208 l 5
 816 157 l 5
 150 157 l 5
110 182 m 5
 259 331 l 5
 294 296 l 5
 179 182 l 5
 294 68 l 5
 259 33 l 5
 110 182 l 5
EndSplineSet
EndChar

StartChar: uni21C8
Encoding: 8648 8648 774
GlifName: uni21C_8
Width: 698
GlyphClass: 2
Flags: HW
LayerCount: 2
Fore
SplineSet
542 649 m 5
 592 649 l 5
 593 -17 l 5
 542 -17 l 5
 542 649 l 5
567 689 m 5
 716 540 l 5
 681 505 l 5
 567 620 l 5
 453 505 l 5
 418 540 l 5
 567 689 l 5
233 649 m 5
 284 649 l 5
 285 -17 l 5
 233 -17 l 5
 233 649 l 5
259 689 m 5
 408 540 l 5
 373 505 l 5
 259 620 l 5
 144 505 l 5
 110 540 l 5
 259 689 l 5
EndSplineSet
EndChar

StartChar: uni21C9
Encoding: 8649 8649 775
GlifName: uni21C_9
Width: 798
GlyphClass: 2
Flags: HW
LayerCount: 2
Fore
SplineSet
776 207 m 5
 776 157 l 5
 110 156 l 5
 110 207 l 5
 776 207 l 5
816 181 m 5
 667 33 l 5
 632 68 l 5
 746 181 l 5
 632 296 l 5
 667 331 l 5
 816 181 l 5
776 515 m 5
 776 465 l 5
 110 464 l 5
 110 515 l 5
 776 515 l 5
816 489 m 5
 667 341 l 5
 632 376 l 5
 746 489 l 5
 632 604 l 5
 667 639 l 5
 816 489 l 5
EndSplineSet
EndChar

StartChar: uni21CA
Encoding: 8650 8650 776
GlifName: uni21C_A_
Width: 698
GlyphClass: 2
Flags: HW
LayerCount: 2
Fore
SplineSet
284 23 m 1
 233 23 l 1
 232 689 l 1
 284 689 l 1
 284 23 l 1
258 -17 m 1
 110 132 l 1
 144 167 l 1
 258 52 l 1
 373 167 l 1
 408 132 l 1
 258 -17 l 1
592 23 m 1
 542 23 l 1
 541 689 l 1
 592 689 l 1
 592 23 l 1
566 -17 m 1
 418 132 l 1
 453 167 l 1
 566 52 l 1
 681 167 l 1
 716 132 l 1
 566 -17 l 1
EndSplineSet
EndChar

StartChar: uni21CB
Encoding: 8651 8651 777
GlifName: uni21C_B_
Width: 798
GlyphClass: 2
Flags: HW
LayerCount: 2
Fore
SplineSet
205 453 m 1
 816 453 l 1
 816 401 l 1
 110 402 l 1
 110 427 l 1
 259 577 l 1
 294 542 l 1
 205 453 l 1
721 218 m 1
 110 218 l 1
 110 269 l 1
 816 268 l 1
 816 244 l 1
 667 94 l 1
 632 129 l 1
 721 218 l 1
EndSplineSet
EndChar

StartChar: uni21CC
Encoding: 8652 8652 778
GlifName: uni21C_C_
Width: 798
GlyphClass: 2
Flags: HW
LayerCount: 2
Fore
SplineSet
721 453 m 1
 632 542 l 1
 667 577 l 1
 816 427 l 1
 816 402 l 1
 110 401 l 1
 110 453 l 1
 721 453 l 1
205 218 m 1
 294 129 l 1
 259 94 l 1
 110 244 l 1
 110 268 l 1
 816 269 l 1
 816 218 l 1
 205 218 l 1
EndSplineSet
EndChar

StartChar: uni21CD
Encoding: 8653 8653 779
GlifName: uni21C_D_
Width: 798
GlyphClass: 2
Flags: HW
LayerCount: 2
Fore
SplineSet
605 597 m 5
 658 597 l 5
 486 75 l 5
 433 75 l 5
 605 597 l 5
217 249 m 1
 217 299 l 1
 815 300 l 1
 815 249 l 1
 217 249 l 1
217 392 m 1
 217 442 l 1
 816 443 l 1
 816 392 l 1
 217 392 l 1
110 346 m 1
 300 536 l 1
 335 501 l 1
 179 346 l 1
 335 190 l 1
 300 156 l 1
 110 346 l 1
EndSplineSet
EndChar

StartChar: uni21CE
Encoding: 8654 8654 780
GlifName: uni21C_E_
Width: 798
GlyphClass: 2
Flags: HW
LayerCount: 2
Fore
SplineSet
517 597 m 5
 570 597 l 5
 398 75 l 5
 345 75 l 5
 517 597 l 5
816 345 m 1
 626 156 l 1
 591 190 l 1
 746 345 l 1
 591 501 l 1
 626 536 l 1
 816 345 l 1
217 249 m 1
 217 299 l 1
 709 300 l 1
 709 249 l 1
 217 249 l 1
217 392 m 1
 217 442 l 1
 709 443 l 1
 709 392 l 1
 217 392 l 1
110 346 m 1
 300 536 l 1
 335 501 l 1
 179 346 l 1
 335 190 l 1
 300 156 l 1
 110 346 l 1
EndSplineSet
EndChar

StartChar: uni21CF
Encoding: 8655 8655 781
GlifName: uni21C_F_
Width: 798
GlyphClass: 2
Flags: HW
LayerCount: 2
Fore
SplineSet
444 597 m 5
 498 597 l 5
 326 75 l 5
 272 75 l 5
 444 597 l 5
709 442 m 1
 709 392 l 1
 111 391 l 1
 111 442 l 1
 709 442 l 1
709 299 m 1
 709 249 l 1
 110 248 l 1
 110 299 l 1
 709 299 l 1
816 345 m 1
 626 156 l 1
 591 190 l 1
 746 345 l 1
 591 501 l 1
 626 536 l 1
 816 345 l 1
EndSplineSet
EndChar

StartChar: uni21B4
Encoding: 8628 8628 782
GlifName: uni21B_4
Width: 781
GlyphClass: 2
Flags: HW
LayerCount: 2
Fore
SplineSet
608 70 m 5
 419 261 l 5
 454 295 l 5
 608 140 l 5
 764 295 l 5
 799 261 l 5
 608 70 l 5
634 110 m 5
 584 110 l 5
 583 492 l 5
 110 492 l 5
 110 541 l 5
 634 541 l 5
 634 110 l 5
EndSplineSet
EndChar

StartChar: carriagereturn
Encoding: 8629 8629 783
GlifName: carriagereturn
Width: 563
GlyphClass: 2
Flags: HW
LayerCount: 2
Fore
SplineSet
110 208 m 5
 300 397 l 5
 335 362 l 5
 179 208 l 5
 335 52 l 5
 300 17 l 5
 110 208 l 5
148 182 m 5
 148 232 l 5
 531 233 l 5
 531 707 l 5
 581 707 l 5
 581 182 l 5
 148 182 l 5
EndSplineSet
EndChar

StartChar: uni219A
Encoding: 8602 8602 784
GlifName: uni219A_
Width: 798
GlyphClass: 2
Flags: HW
LayerCount: 2
Fore
SplineSet
605 597 m 5
 658 597 l 5
 486 75 l 5
 433 75 l 5
 605 597 l 5
150 321 m 1
 150 371 l 1
 816 372 l 1
 816 321 l 1
 150 321 l 1
110 346 m 1
 300 536 l 1
 335 501 l 1
 179 346 l 1
 335 190 l 1
 300 156 l 1
 110 346 l 1
EndSplineSet
EndChar

StartChar: uni219B
Encoding: 8603 8603 785
GlifName: uni219B_
Width: 798
GlyphClass: 2
Flags: HW
LayerCount: 2
Fore
SplineSet
444 597 m 1
 498 597 l 1
 326 75 l 1
 272 75 l 1
 444 597 l 1
776 371 m 1
 776 321 l 1
 110 319 l 1
 110 371 l 1
 776 371 l 1
816 345 m 1
 626 156 l 1
 591 190 l 1
 746 345 l 1
 591 501 l 1
 626 536 l 1
 816 345 l 1
EndSplineSet
EndChar

StartChar: uni219E
Encoding: 8606 8606 786
GlifName: uni219E_
Width: 798
GlyphClass: 2
Flags: HW
LayerCount: 2
Fore
SplineSet
284 346 m 5
 474 536 l 5
 509 501 l 5
 353 346 l 5
 509 190 l 5
 474 156 l 5
 284 346 l 5
150 321 m 1
 150 371 l 1
 816 372 l 1
 816 321 l 1
 150 321 l 1
110 346 m 1
 300 536 l 1
 335 501 l 1
 179 346 l 1
 335 190 l 1
 300 156 l 1
 110 346 l 1
EndSplineSet
EndChar

StartChar: uni219F
Encoding: 8607 8607 787
GlifName: uni219F_
Width: 472
GlyphClass: 2
Flags: HW
LayerCount: 2
Fore
SplineSet
300 524 m 5
 489 334 l 5
 455 299 l 5
 300 455 l 5
 144 299 l 5
 110 334 l 5
 300 524 l 5
274 659 m 1
 325 659 l 1
 326 -8 l 1
 274 -8 l 1
 274 659 l 1
300 698 m 1
 489 508 l 1
 455 473 l 1
 300 629 l 1
 144 473 l 1
 110 508 l 1
 300 698 l 1
EndSplineSet
EndChar

StartChar: uni21A0
Encoding: 8608 8608 788
GlifName: uni21A_0
Width: 798
GlyphClass: 2
Flags: HW
LayerCount: 2
Fore
SplineSet
642 345 m 5
 452 156 l 5
 417 190 l 5
 572 345 l 5
 417 501 l 5
 452 536 l 5
 642 345 l 5
776 371 m 1
 776 321 l 1
 110 319 l 1
 110 371 l 1
 776 371 l 1
816 345 m 1
 626 156 l 1
 591 190 l 1
 746 345 l 1
 591 501 l 1
 626 536 l 1
 816 345 l 1
EndSplineSet
EndChar

StartChar: uni21A1
Encoding: 8609 8609 789
GlifName: uni21A_1
Width: 472
GlyphClass: 2
Flags: HW
LayerCount: 2
Fore
SplineSet
299 166 m 5
 110 356 l 5
 144 391 l 5
 299 236 l 5
 455 391 l 5
 489 356 l 5
 299 166 l 5
325 33 m 1
 274 33 l 1
 273 698 l 1
 325 698 l 1
 325 33 l 1
299 -8 m 1
 110 182 l 1
 144 217 l 1
 299 61 l 1
 455 217 l 1
 489 182 l 1
 299 -8 l 1
EndSplineSet
EndChar

StartChar: uni21A2
Encoding: 8610 8610 790
GlifName: uni21A_2
Width: 798
GlyphClass: 2
Flags: HW
LayerCount: 2
Fore
SplineSet
591 346 m 1
 781 536 l 1
 816 501 l 1
 660 346 l 1
 816 190 l 1
 781 156 l 1
 591 346 l 1
150 321 m 1
 150 371 l 1
 642 372 l 5
 642 321 l 5
 150 321 l 1
110 346 m 1
 300 536 l 1
 335 501 l 1
 179 346 l 1
 335 190 l 1
 300 156 l 1
 110 346 l 1
EndSplineSet
EndChar

StartChar: uni21A3
Encoding: 8611 8611 791
GlifName: uni21A_3
Width: 798
GlyphClass: 2
Flags: HW
LayerCount: 2
Fore
SplineSet
335 345 m 1
 144 156 l 1
 110 190 l 1
 265 345 l 1
 110 501 l 1
 144 536 l 1
 335 345 l 1
776 371 m 1
 776 321 l 1
 284 319 l 5
 284 371 l 5
 776 371 l 1
816 345 m 1
 626 156 l 1
 591 190 l 1
 746 345 l 1
 591 501 l 1
 626 536 l 1
 816 345 l 1
EndSplineSet
EndChar

StartChar: uni21A4
Encoding: 8612 8612 792
GlifName: uni21A_4
Width: 798
GlyphClass: 2
Flags: HW
LayerCount: 2
Fore
SplineSet
765 536 m 5
 816 536 l 5
 816 156 l 5
 765 156 l 5
 765 536 l 5
150 321 m 1
 150 371 l 1
 796 372 l 1
 796 321 l 1
 150 321 l 1
110 346 m 1
 300 536 l 1
 335 501 l 1
 179 346 l 1
 335 190 l 1
 300 156 l 1
 110 346 l 1
EndSplineSet
EndChar

StartChar: uni21A6
Encoding: 8614 8614 793
GlifName: uni21A_6
Width: 798
GlyphClass: 2
Flags: HW
LayerCount: 2
Fore
SplineSet
161 156 m 5
 110 156 l 5
 110 536 l 5
 161 536 l 5
 161 156 l 5
776 371 m 1
 776 321 l 1
 130 319 l 1
 130 371 l 1
 776 371 l 1
816 345 m 1
 626 156 l 1
 591 190 l 1
 746 345 l 1
 591 501 l 1
 626 536 l 1
 816 345 l 1
EndSplineSet
EndChar

StartChar: uni21A5
Encoding: 8613 8613 794
GlifName: uni21A_5
Width: 473
GlyphClass: 2
Flags: HW
LayerCount: 2
Fore
SplineSet
490 43 m 5
 490 -8 l 5
 110 -8 l 5
 110 43 l 5
 490 43 l 5
275 659 m 1
 325 659 l 1
 327 12 l 1
 275 12 l 1
 275 659 l 1
300 698 m 1
 490 508 l 1
 456 473 l 1
 300 629 l 1
 144 473 l 1
 110 508 l 1
 300 698 l 1
EndSplineSet
EndChar

StartChar: uni21A7
Encoding: 8615 8615 795
GlifName: uni21A_7
Width: 473
GlyphClass: 2
Flags: HW
LayerCount: 2
Fore
SplineSet
110 647 m 1
 110 698 l 1
 490 698 l 1
 490 647 l 1
 110 647 l 1
325 33 m 1
 275 33 l 1
 273 678 l 5
 325 678 l 5
 325 33 l 1
300 -8 m 1
 110 182 l 1
 144 217 l 1
 300 61 l 1
 456 217 l 1
 490 182 l 1
 300 -8 l 1
EndSplineSet
EndChar

StartChar: arrowupdnbse
Encoding: 8616 8616 796
GlifName: arrowupdnbse
Width: 472
GlyphClass: 2
Flags: HW
LayerCount: 2
Fore
SplineSet
300 699 m 1
 489 508 l 1
 455 474 l 1
 325 605 l 1
 325 88 l 1
 455 218 l 1
 489 183 l 1
 350 43 l 1
 490 43 l 1
 490 -8 l 1
 110 -8 l 1
 110 43 l 1
 249 43 l 1
 110 183 l 1
 144 218 l 1
 274 87 l 1
 274 604 l 1
 144 474 l 1
 110 508 l 1
 300 699 l 1
EndSplineSet
EndChar

StartChar: uni219C
Encoding: 8604 8604 797
GlifName: uni219C_
Width: 839
GlyphClass: 2
Flags: HW
LayerCount: 2
Fore
SplineSet
223 480 m 1
 466 367 l 1
 445 323 l 1
 247 415 l 1
 154 216 l 1
 110 238 l 1
 223 480 l 1
706 348 m 0
 799 348 857 270 857 143 c 1
 811 143 l 1
 811 239 770 303 708 303 c 0
 650 303 611 259 562 219 c 0
 519 183 479 139 402 139 c 0
 294 139 253 228 225 426 c 1
 269 426 l 1
 296 255 322 184 402 184 c 0
 458 184 495 223 537 262 c 0
 581 301 626 348 706 348 c 0
EndSplineSet
EndChar

StartChar: uni219D
Encoding: 8605 8605 798
GlifName: uni219D_
Width: 839
GlyphClass: 2
Flags: HW
LayerCount: 2
Fore
SplineSet
743 480 m 1
 857 238 l 1
 813 216 l 1
 720 415 l 1
 521 323 l 1
 501 367 l 1
 743 480 l 1
261 348 m 0
 341 348 386 301 430 262 c 0
 472 223 508 184 564 184 c 0
 644 184 670 255 697 426 c 1
 741 426 l 1
 713 228 672 139 564 139 c 0
 487 139 447 183 404 219 c 0
 355 259 317 303 259 303 c 0
 197 303 156 239 156 143 c 1
 110 143 l 1
 110 270 168 348 261 348 c 0
EndSplineSet
EndChar

StartChar: uni21AE
Encoding: 8622 8622 799
GlifName: uni21A_E_
Width: 798
GlyphClass: 2
Flags: HW
LayerCount: 2
Fore
SplineSet
517 597 m 1
 570 597 l 1
 398 75 l 1
 345 75 l 1
 517 597 l 1
816 345 m 1
 626 156 l 1
 591 190 l 1
 746 345 l 1
 591 501 l 1
 626 536 l 1
 816 345 l 1
150 321 m 1
 150 371 l 1
 776 371 l 1
 777 321 l 1
 150 321 l 1
110 346 m 1
 300 536 l 1
 335 501 l 1
 179 346 l 1
 335 190 l 1
 300 156 l 1
 110 346 l 1
EndSplineSet
EndChar

StartChar: uni21B2
Encoding: 8626 8626 800
GlifName: uni21B_2
Width: 450
GlyphClass: 2
Flags: HW
LayerCount: 2
Fore
SplineSet
110 208 m 1
 280 377 l 1
 314 342 l 1
 179 208 l 1
 314 73 l 1
 280 38 l 1
 110 208 l 1
148 182 m 1
 148 232 l 1
 419 233 l 1
 419 707 l 1
 468 707 l 1
 468 182 l 1
 148 182 l 1
EndSplineSet
EndChar

StartChar: uni21B0
Encoding: 8624 8624 801
GlifName: uni21B_0
Width: 450
GlyphClass: 2
Flags: HW
LayerCount: 2
Fore
SplineSet
468 537 m 1
 298 368 l 1
 263 402 l 1
 398 537 l 1
 263 672 l 1
 298 707 l 1
 468 537 l 1
429 562 m 1
 429 512 l 1
 159 511 l 1
 159 38 l 1
 110 38 l 1
 110 562 l 1
 429 562 l 1
EndSplineSet
EndChar

StartChar: uni21B1
Encoding: 8625 8625 802
GlifName: uni21B_1
Width: 450
GlyphClass: 2
Flags: HW
LayerCount: 2
Fore
SplineSet
110 537 m 1
 280 707 l 1
 314 672 l 1
 179 537 l 1
 314 402 l 1
 280 368 l 1
 110 537 l 1
148 562 m 1
 468 562 l 1
 468 38 l 1
 419 38 l 1
 419 511 l 1
 148 512 l 1
 148 562 l 1
EndSplineSet
EndChar

StartChar: uni21B3
Encoding: 8627 8627 803
GlifName: uni21B_3
Width: 450
GlyphClass: 2
Flags: HW
LayerCount: 2
Fore
SplineSet
468 208 m 1
 298 38 l 1
 263 73 l 1
 398 208 l 1
 263 342 l 1
 298 377 l 1
 468 208 l 1
429 182 m 1
 110 182 l 1
 110 707 l 1
 159 707 l 1
 159 233 l 1
 429 232 l 1
 429 182 l 1
EndSplineSet
EndChar

StartChar: uni21BA
Encoding: 8634 8634 804
GlifName: uni21B_A_
Width: 844
GlyphClass: 2
Flags: HW
LayerCount: 2
Fore
SplineSet
620 622 m 1
 862 508 l 1
 842 463 l 1
 643 557 l 1
 551 357 l 1
 505 378 l 1
 620 622 l 1
421 90 m 0
 578 90 686 197 686 353 c 0
 686 422 662 475 607 530 c 1
 646 568 l 1
 711 503 740 437 740 354 c 0
 740 168 606 34 421 34 c 0
 240 34 110 162 110 341 c 0
 110 425 140 492 209 561 c 1
 247 523 l 1
 189 465 164 410 164 341 c 0
 164 191 267 90 421 90 c 0
EndSplineSet
EndChar

StartChar: uni21BB
Encoding: 8635 8635 805
GlifName: uni21B_B_
Width: 844
GlyphClass: 2
Flags: HW
LayerCount: 2
Fore
SplineSet
352 622 m 1
 467 378 l 1
 421 357 l 1
 329 557 l 1
 130 463 l 1
 110 508 l 1
 352 622 l 1
551 90 m 0
 705 90 808 191 808 341 c 0
 808 410 783 465 725 523 c 1
 763 561 l 1
 832 492 862 425 862 341 c 0
 862 162 732 34 551 34 c 0
 366 34 231 168 231 354 c 0
 231 437 261 503 326 568 c 1
 365 530 l 1
 310 475 286 422 286 353 c 0
 286 197 394 90 551 90 c 0
EndSplineSet
EndChar

StartChar: uni21B6
Encoding: 8630 8630 806
GlifName: uni21B_6
Width: 887
GlyphClass: 2
Flags: HW
LayerCount: 2
Fore
SplineSet
299 54 m 5
 110 245 l 5
 144 280 l 5
 299 124 l 5
 455 280 l 5
 489 245 l 5
 299 54 l 5
851 255 m 5
 851 402 730 522 581 522 c 4
 428 522 325 416 325 259 c 6
 325 94 l 5
 274 94 l 5
 273 259 l 6
 273 447 399 575 583 575 c 4
 763 575 905 434 905 255 c 5
 851 255 l 5
EndSplineSet
EndChar

StartChar: uni21B7
Encoding: 8631 8631 807
GlifName: uni21B_7
Width: 887
GlyphClass: 2
Flags: HW
LayerCount: 2
Fore
SplineSet
716 54 m 1
 905 245 l 1
 870 280 l 1
 716 124 l 1
 560 280 l 1
 525 245 l 1
 716 54 l 1
164 255 m 1
 164 402 285 522 434 522 c 0
 587 522 690 416 690 259 c 2
 690 94 l 1
 740 94 l 1
 741 259 l 2
 741 447 616 575 432 575 c 0
 252 575 110 434 110 255 c 1
 164 255 l 1
EndSplineSet
EndChar

StartChar: uni21BC
Encoding: 8636 8636 808
GlifName: uni21B_C_
Width: 798
GlyphClass: 2
Flags: HW
LayerCount: 2
Fore
SplineSet
205 371 m 1
 294 460 l 1
 259 495 l 1
 110 345 l 1
 110 321 l 1
 816 319 l 1
 816 371 l 1
 205 371 l 1
EndSplineSet
EndChar

StartChar: uni21BD
Encoding: 8637 8637 809
GlifName: uni21B_D_
Width: 798
GlyphClass: 2
Flags: HW
LayerCount: 2
Fore
SplineSet
110 346 m 1
 259 197 l 1
 294 231 l 1
 205 321 l 1
 816 321 l 1
 816 372 l 1
 110 371 l 1
 110 346 l 1
EndSplineSet
EndChar

StartChar: uni21BE
Encoding: 8638 8638 810
GlifName: uni21B_E_
Width: 268
GlyphClass: 2
Flags: HW
LayerCount: 2
Fore
SplineSet
161 616 m 1
 251 526 l 1
 286 561 l 1
 136 711 l 1
 112 711 l 1
 110 4 l 1
 161 4 l 1
 161 616 l 1
EndSplineSet
EndChar

StartChar: uni21BF
Encoding: 8639 8639 811
GlifName: uni21B_F_
Width: 268
GlyphClass: 2
Flags: HW
LayerCount: 2
Fore
SplineSet
234 616 m 1
 144 526 l 1
 110 561 l 1
 259 711 l 1
 284 711 l 1
 286 4 l 1
 234 4 l 1
 234 616 l 1
EndSplineSet
EndChar

StartChar: uni21C0
Encoding: 8640 8640 812
GlifName: uni21C_0
Width: 798
GlyphClass: 2
Flags: HW
LayerCount: 2
Fore
SplineSet
816 345 m 1
 816 321 l 1
 110 319 l 1
 110 371 l 1
 721 371 l 1
 632 460 l 1
 667 495 l 1
 816 345 l 1
EndSplineSet
EndChar

StartChar: uni21C1
Encoding: 8641 8641 813
GlifName: uni21C_1
Width: 798
GlyphClass: 2
Flags: HW
LayerCount: 2
Fore
SplineSet
816 346 m 1
 667 197 l 1
 632 231 l 1
 721 321 l 1
 110 321 l 1
 110 372 l 1
 816 371 l 1
 816 346 l 1
EndSplineSet
EndChar

StartChar: uni21C2
Encoding: 8642 8642 814
GlifName: uni21C_2
Width: 268
GlyphClass: 2
Flags: HW
LayerCount: 2
Fore
SplineSet
161 98 m 1
 251 188 l 1
 286 154 l 1
 136 4 l 1
 112 4 l 1
 110 711 l 1
 161 711 l 1
 161 98 l 1
EndSplineSet
EndChar

StartChar: uni21C3
Encoding: 8643 8643 815
GlifName: uni21C_3
Width: 268
GlyphClass: 2
Flags: HW
LayerCount: 2
Fore
SplineSet
234 98 m 1
 234 711 l 1
 286 711 l 1
 284 4 l 1
 259 4 l 1
 110 154 l 1
 144 188 l 1
 234 98 l 1
EndSplineSet
EndChar

StartChar: uni21DA
Encoding: 8666 8666 816
GlifName: uni21D_A_
Width: 798
GlyphClass: 2
Flags: HW
LayerCount: 2
Fore
SplineSet
166 321 m 1
 166 371 l 1
 816 372 l 1
 816 321 l 1
 166 321 l 1
238 228 m 1
 238 279 l 1
 815 280 l 1
 815 228 l 1
 238 228 l 1
238 413 m 1
 238 463 l 1
 816 464 l 1
 816 413 l 1
 238 413 l 1
110 346 m 1
 300 536 l 1
 335 501 l 1
 179 346 l 1
 335 190 l 1
 300 156 l 1
 110 346 l 1
EndSplineSet
EndChar

StartChar: uni21DB
Encoding: 8667 8667 817
GlifName: uni21D_B_
Width: 798
GlyphClass: 2
Flags: HW
LayerCount: 2
Fore
SplineSet
760 371 m 1
 760 321 l 1
 110 319 l 1
 110 371 l 1
 760 371 l 1
688 463 m 1
 688 413 l 1
 111 412 l 1
 111 463 l 1
 688 463 l 1
688 279 m 1
 688 228 l 1
 110 227 l 1
 110 279 l 1
 688 279 l 1
816 345 m 1
 626 156 l 1
 591 190 l 1
 746 345 l 1
 591 501 l 1
 626 536 l 1
 816 345 l 1
EndSplineSet
EndChar

StartChar: uni21E4
Encoding: 8676 8676 818
GlifName: uni21E_4
Width: 798
GlyphClass: 2
Flags: HW
LayerCount: 2
Fore
SplineSet
161 156 m 1
 110 156 l 1
 110 536 l 1
 161 536 l 1
 161 156 l 1
150 321 m 1
 150 371 l 1
 816 372 l 1
 816 321 l 1
 150 321 l 1
110 346 m 1
 300 536 l 1
 335 501 l 1
 179 346 l 1
 335 190 l 1
 300 156 l 1
 110 346 l 1
EndSplineSet
EndChar

StartChar: uni21E5
Encoding: 8677 8677 819
GlifName: uni21E_5
Width: 798
GlyphClass: 2
Flags: HW
LayerCount: 2
Fore
SplineSet
765 536 m 5
 816 536 l 5
 816 156 l 5
 765 156 l 5
 765 536 l 5
776 371 m 1
 776 321 l 1
 110 319 l 1
 110 371 l 1
 776 371 l 1
816 345 m 1
 626 156 l 1
 591 190 l 1
 746 345 l 1
 591 501 l 1
 626 536 l 1
 816 345 l 1
EndSplineSet
EndChar

StartChar: uni21E6
Encoding: 8678 8678 820
GlifName: uni21E_6
Width: 798
GlyphClass: 2
Flags: HW
LayerCount: 2
Fore
SplineSet
351 442 m 1
 816 443 l 1
 816 249 l 1
 351 249 l 1
 351 156 l 1
 300 156 l 1
 110 346 l 1
 300 536 l 1
 351 536 l 1
 351 442 l 1
300 466 m 1
 179 346 l 1
 300 225 l 1
 300 299 l 1
 765 300 l 1
 765 392 l 1
 300 392 l 1
 300 466 l 1
EndSplineSet
EndChar

StartChar: uni21E7
Encoding: 8679 8679 821
GlifName: uni21E_7
Width: 473
GlyphClass: 2
Flags: HW
LayerCount: 2
Fore
SplineSet
397 457 m 1
 398 -8 l 1
 204 -8 l 1
 204 457 l 1
 110 457 l 1
 110 508 l 1
 300 698 l 1
 490 508 l 1
 490 457 l 1
 397 457 l 1
421 508 m 1
 300 629 l 1
 179 508 l 1
 253 508 l 1
 254 43 l 1
 347 43 l 1
 347 508 l 1
 421 508 l 1
EndSplineSet
EndChar

StartChar: uni21E8
Encoding: 8680 8680 822
GlifName: uni21E_8
Width: 798
GlyphClass: 2
Flags: HW
LayerCount: 2
Fore
SplineSet
574 249 m 1
 110 248 l 1
 110 442 l 1
 574 442 l 1
 574 536 l 1
 626 536 l 1
 816 345 l 1
 626 156 l 1
 574 156 l 1
 574 249 l 1
626 225 m 1
 746 345 l 1
 626 466 l 1
 626 392 l 1
 161 391 l 1
 161 299 l 1
 626 299 l 1
 626 225 l 1
EndSplineSet
EndChar

StartChar: uni21E9
Encoding: 8681 8681 823
GlifName: uni21E_9
Width: 473
GlyphClass: 2
Flags: HW
LayerCount: 2
Fore
SplineSet
203 233 m 1
 202 698 l 1
 396 698 l 1
 396 233 l 1
 490 233 l 1
 490 182 l 1
 300 -8 l 1
 110 182 l 1
 110 233 l 1
 203 233 l 1
179 182 m 1
 300 61 l 1
 421 182 l 1
 347 182 l 1
 346 647 l 1
 253 647 l 1
 253 182 l 1
 179 182 l 1
EndSplineSet
EndChar

StartChar: uni21F5
Encoding: 8693 8693 824
GlifName: uni21F_5
Width: 798
GlyphClass: 2
Flags: HW
LayerCount: 2
Fore
SplineSet
616 644 m 5
 566 644 l 5
 565 -23 l 5
 616 -23 l 5
 616 644 l 5
590 684 m 5
 442 534 l 5
 477 499 l 5
 590 614 l 5
 705 499 l 5
 740 534 l 5
 590 684 l 5
310 17 m 1
 360 17 l 1
 361 684 l 1
 310 684 l 1
 310 17 l 1
335 -23 m 1
 484 126 l 1
 449 161 l 1
 335 47 l 1
 221 161 l 1
 186 126 l 1
 335 -23 l 1
EndSplineSet
EndChar

StartChar: uni21F6
Encoding: 8694 8694 825
GlifName: uni21F_6
Width: 798
GlyphClass: 2
Flags: HW
LayerCount: 2
Fore
SplineSet
776 112 m 5
 776 61 l 5
 110 60 l 5
 110 112 l 5
 776 112 l 5
816 86 m 5
 697 -32 l 5
 663 3 l 5
 746 86 l 5
 663 170 l 5
 697 205 l 5
 816 86 l 5
776 357 m 5
 776 307 l 5
 110 306 l 5
 110 357 l 5
 776 357 l 5
816 332 m 5
 697 214 l 5
 663 249 l 5
 746 332 l 5
 663 416 l 5
 697 451 l 5
 816 332 l 5
776 603 m 5
 776 553 l 5
 110 552 l 5
 110 603 l 5
 776 603 l 5
816 578 m 5
 697 460 l 5
 663 495 l 5
 746 578 l 5
 663 662 l 5
 697 696 l 5
 816 578 l 5
EndSplineSet
EndChar

StartChar: uni21F7
Encoding: 8695 8695 826
GlifName: uni21F_7
Width: 798
GlyphClass: 2
Flags: HW
LayerCount: 2
Fore
SplineSet
519 536 m 5
 570 536 l 5
 570 156 l 5
 519 156 l 5
 519 536 l 5
150 321 m 1
 150 371 l 1
 796 372 l 1
 796 321 l 1
 150 321 l 1
110 346 m 1
 300 536 l 1
 335 501 l 1
 179 346 l 1
 335 190 l 1
 300 156 l 1
 110 346 l 1
EndSplineSet
EndChar

StartChar: uni21F8
Encoding: 8696 8696 827
GlifName: uni21F_8
Width: 798
GlyphClass: 2
Flags: HW
LayerCount: 2
Fore
SplineSet
376 536 m 5
 427 536 l 5
 427 156 l 5
 376 156 l 5
 376 536 l 5
776 371 m 1
 776 321 l 1
 110 319 l 1
 110 371 l 1
 776 371 l 1
816 345 m 1
 626 156 l 1
 591 190 l 1
 746 345 l 1
 591 501 l 1
 626 536 l 1
 816 345 l 1
EndSplineSet
EndChar

StartChar: uni21F9
Encoding: 8697 8697 828
GlifName: uni21F_9
Width: 798
GlyphClass: 2
Flags: HW
LayerCount: 2
Fore
SplineSet
441 536 m 5
 493 536 l 5
 493 156 l 5
 441 156 l 5
 441 536 l 5
816 345 m 1
 626 156 l 1
 591 190 l 1
 746 345 l 1
 591 501 l 1
 626 536 l 1
 816 345 l 1
150 321 m 1
 150 371 l 1
 776 371 l 1
 777 321 l 1
 150 321 l 1
110 346 m 1
 300 536 l 1
 335 501 l 1
 179 346 l 1
 335 190 l 1
 300 156 l 1
 110 346 l 1
EndSplineSet
EndChar

StartChar: uni21FA
Encoding: 8698 8698 829
GlifName: uni21F_A_
Width: 798
GlyphClass: 2
Flags: HW
LayerCount: 2
Fore
SplineSet
601 536 m 5
 652 536 l 5
 652 156 l 5
 601 156 l 5
 601 536 l 5
478 536 m 5
 529 536 l 5
 529 156 l 5
 478 156 l 5
 478 536 l 5
150 321 m 1
 150 371 l 1
 796 372 l 1
 796 321 l 1
 150 321 l 1
110 346 m 1
 300 536 l 1
 335 501 l 1
 179 346 l 1
 335 190 l 1
 300 156 l 1
 110 346 l 1
EndSplineSet
EndChar

StartChar: uni21FB
Encoding: 8699 8699 830
GlifName: uni21F_B_
Width: 798
GlyphClass: 2
Flags: HW
LayerCount: 2
Fore
SplineSet
396 536 m 5
 447 536 l 5
 447 156 l 5
 396 156 l 5
 396 536 l 5
273 536 m 5
 325 536 l 5
 325 156 l 5
 273 156 l 5
 273 536 l 5
776 371 m 1
 776 321 l 1
 110 319 l 1
 110 371 l 1
 776 371 l 1
816 345 m 1
 626 156 l 1
 591 190 l 1
 746 345 l 1
 591 501 l 1
 626 536 l 1
 816 345 l 1
EndSplineSet
EndChar

StartChar: uni21FC
Encoding: 8700 8700 831
GlifName: uni21F_C_
Width: 798
GlyphClass: 2
Flags: HW
LayerCount: 2
Fore
SplineSet
495 536 m 5
 546 536 l 5
 546 156 l 5
 495 156 l 5
 495 536 l 5
392 536 m 1
 443 536 l 1
 443 156 l 1
 392 156 l 1
 392 536 l 1
816 345 m 1
 626 156 l 1
 591 190 l 1
 746 345 l 1
 591 501 l 1
 626 536 l 1
 816 345 l 1
150 321 m 1
 150 371 l 1
 776 371 l 1
 777 321 l 1
 150 321 l 1
110 346 m 1
 300 536 l 1
 335 501 l 1
 179 346 l 1
 335 190 l 1
 300 156 l 1
 110 346 l 1
EndSplineSet
EndChar

StartChar: uni21FD
Encoding: 8701 8701 832
GlifName: uni21F_D_
Width: 798
GlyphClass: 2
Flags: HW
LayerCount: 2
Fore
SplineSet
300 466 m 1
 179 346 l 1
 300 225 l 1
 300 466 l 1
300 156 m 1
 110 346 l 1
 300 536 l 1
 351 536 l 1
 351 371 l 1
 816 372 l 1
 816 321 l 1
 351 321 l 1
 351 156 l 1
 300 156 l 1
EndSplineSet
EndChar

StartChar: uni21FE
Encoding: 8702 8702 833
GlifName: uni21F_E_
Width: 798
GlyphClass: 2
Flags: HW
LayerCount: 2
Fore
SplineSet
574 320 m 1
 110 319 l 1
 110 371 l 1
 574 371 l 1
 574 536 l 1
 626 536 l 1
 816 345 l 1
 626 156 l 1
 574 156 l 1
 574 320 l 1
626 225 m 1
 746 345 l 1
 626 466 l 1
 626 225 l 1
EndSplineSet
EndChar

StartChar: uni21FF
Encoding: 8703 8703 834
GlifName: uni21F_F_
Width: 798
GlyphClass: 2
Flags: HW
LayerCount: 2
Fore
SplineSet
626 225 m 1
 746 345 l 1
 626 466 l 1
 626 225 l 1
300 466 m 1
 179 346 l 1
 300 225 l 1
 300 466 l 1
300 156 m 1
 110 346 l 1
 300 536 l 1
 351 536 l 1
 351 371 l 1
 574 371 l 1
 574 536 l 1
 626 536 l 1
 816 345 l 1
 626 156 l 1
 574 156 l 1
 574 321 l 1
 351 321 l 1
 351 156 l 1
 300 156 l 1
EndSplineSet
EndChar

StartChar: zero.tabl.slsh
Encoding: 65757 -1 835
GlifName: zero.tabl.slsh
Width: 558
GlyphClass: 2
Flags: HW
LayerCount: 2
Fore
SplineSet
529 570 m 1
 560 529 l 1
 148 103 l 1
 117 144 l 5
 529 570 l 1
94 237 m 0
 94 483 218 676 376 676 c 0
 503 676 577 584 577 423 c 0
 577 174 459 -8 299 -8 c 0
 169 -8 94 81 94 237 c 0
523 431 m 0
 523 559 472 625 371 625 c 0
 244 625 147 454 147 230 c 0
 147 107 201 43 304 43 c 0
 432 43 523 204 523 431 c 0
EndSplineSet
EndChar

StartChar: zero.cv01
Encoding: 65758 -1 836
GlifName: zero.cv01
Width: 844
GlyphClass: 2
Flags: HW
LayerCount: 2
Fore
SplineSet
862 -41 m 5
 110 -41 l 5
 110 707 l 5
 862 707 l 5
 862 -41 l 5
325 332 m 0
 325 209 389 127 486 127 c 0
 582 127 647 209 647 332 c 0
 647 454 582 535 486 535 c 0
 389 535 325 454 325 332 c 0
593 332 m 0
 593 235 554 178 486 178 c 0
 418 178 379 235 379 332 c 0
 379 428 418 483 486 483 c 0
 554 483 593 428 593 332 c 0
EndSplineSet
EndChar

StartChar: one.cv01
Encoding: 65759 -1 837
GlifName: one.cv01
Width: 844
GlyphClass: 2
Flags: HW
LayerCount: 2
Fore
SplineSet
862 -41 m 5
 110 -41 l 5
 110 707 l 5
 862 707 l 5
 862 -41 l 5
486 530 m 1
 486 499 l 2
 486 458 463 445 418 445 c 2
 373 445 l 1
 373 401 l 1
 486 401 l 1
 486 135 l 1
 537 135 l 1
 537 530 l 1
 486 530 l 1
EndSplineSet
EndChar

StartChar: two.cv01
Encoding: 65760 -1 838
GlifName: two.cv01
Width: 844
GlyphClass: 2
Flags: HW
LayerCount: 2
Fore
SplineSet
862 -41 m 5
 110 -41 l 5
 110 707 l 5
 862 707 l 5
 862 -41 l 5
382 184 m 1
 391 221 444 241 509 268 c 0
 575 296 643 330 643 398 c 0
 643 480 582 535 493 535 c 0
 403 535 335 477 329 393 c 1
 382 393 l 1
 385 448 428 483 493 483 c 0
 553 483 587 453 587 402 c 0
 587 354 542 332 489 312 c 0
 415 283 329 254 329 150 c 2
 329 135 l 1
 638 135 l 1
 638 184 l 1
 382 184 l 1
EndSplineSet
EndChar

StartChar: three.cv01
Encoding: 65761 -1 839
GlifName: three.cv01
Width: 844
GlyphClass: 2
Flags: HW
LayerCount: 2
Fore
SplineSet
862 -41 m 5
 110 -41 l 5
 110 707 l 5
 862 707 l 5
 862 -41 l 5
588 331 m 1
 616 348 633 376 633 412 c 0
 633 487 573 536 484 536 c 0
 401 536 341 487 335 414 c 1
 389 414 l 1
 391 457 428 484 484 484 c 0
 544 484 579 458 579 412 c 0
 579 376 557 355 520 355 c 2
 459 355 l 1
 459 304 l 1
 520 304 l 2
 563 304 589 283 589 244 c 0
 589 202 552 178 487 178 c 0
 426 178 386 203 383 242 c 1
 329 242 l 1
 335 174 399 127 487 127 c 0
 580 127 643 173 643 244 c 0
 643 283 623 314 588 331 c 1
EndSplineSet
EndChar

StartChar: four.cv01
Encoding: 65762 -1 840
GlifName: four.cv01
Width: 844
GlyphClass: 2
Flags: HW
LayerCount: 2
Fore
SplineSet
862 -41 m 5
 110 -41 l 5
 110 707 l 5
 862 707 l 5
 862 -41 l 5
576 236 m 1
 652 236 l 1
 652 284 l 1
 576 284 l 1
 576 530 l 1
 515 530 l 1
 320 294 l 1
 320 236 l 1
 525 236 l 1
 525 135 l 1
 576 135 l 1
 576 236 l 1
525 284 m 1
 375 284 l 1
 525 467 l 1
 525 284 l 1
EndSplineSet
EndChar

